<?xml version="1.0" encoding="utf-8"?>
<!-- Generator: Adobe Illustrator 24.1.3, SVG Export Plug-In . SVG Version: 6.00 Build 0)  -->
<svg version="1.1" id="Logo" xmlns="http://www.w3.org/2000/svg" xmlns:xlink="http://www.w3.org/1999/xlink" x="0px" y="0px"
	 viewBox="0 0 1024 1024" style="enable-background:new 0 0 1024 1024;" xml:space="preserve">
<style type="text/css">
	.st0{display:none;fill:url(#SVGID_1_);}
	.st1{opacity:0.6;}
	.st2{fill:#FFFFFF;}
</style>
<radialGradient id="SVGID_1_" cx="512" cy="512" r="948.624" fx="-97.4127" fy="745.4896" gradientTransform="matrix(0.6534 -0.757 0.6147 0.5306 -137.2675 627.9258)" gradientUnits="userSpaceOnUse">
	<stop  offset="0" style="stop-color:#F9ED32"/>
	<stop  offset="0.6" style="stop-color:#EE2A7B"/>
	<stop  offset="0.9" style="stop-color:#002AFF"/>
</radialGradient>
<circle class="st0" cx="512" cy="512" r="512"/>
<circle class="st1" cx="512" cy="512" r="512"/>
<g>
	<path class="st2" d="M512,238.76c88.99,0,99.54,0.34,134.68,1.94c32.5,1.48,50.14,6.91,61.89,11.48
		c15.56,6.05,26.66,13.27,38.32,24.93c11.66,11.66,18.89,22.77,24.93,38.32c4.56,11.74,9.99,29.39,11.48,61.89
		c1.6,35.15,1.94,45.69,1.94,134.68s-0.34,99.54-1.94,134.68c-1.48,32.5-6.91,50.14-11.48,61.89
		c-6.05,15.56-13.27,26.66-24.93,38.32c-11.66,11.66-22.77,18.89-38.32,24.93c-11.74,4.56-29.39,9.99-61.89,11.48
		c-35.14,1.6-45.68,1.94-134.68,1.94s-99.54-0.34-134.68-1.94c-32.5-1.48-50.14-6.91-61.89-11.48
		c-15.56-6.05-26.66-13.27-38.32-24.93c-11.66-11.66-18.89-22.77-24.93-38.32c-4.56-11.74-9.99-29.39-11.48-61.89
		c-1.6-35.15-1.94-45.69-1.94-134.68s0.34-99.54,1.94-134.68c1.48-32.5,6.91-50.14,11.48-61.89c6.05-15.56,13.27-26.66,24.93-38.32
		c11.66-11.66,22.77-18.89,38.32-24.93c11.74-4.56,29.39-9.99,61.89-11.48C412.46,239.1,423.01,238.76,512,238.76 M512,178.7
		c-90.52,0-101.87,0.38-137.42,2.01c-35.48,1.62-59.7,7.25-80.91,15.49c-21.92,8.52-40.5,19.91-59.03,38.44
		c-18.53,18.53-29.93,37.12-38.44,59.03c-8.24,21.2-13.87,45.43-15.49,80.91c-1.62,35.55-2.01,46.9-2.01,137.42
		c0,90.52,0.38,101.87,2.01,137.42c1.62,35.48,7.25,59.7,15.49,80.91c8.52,21.92,19.91,40.5,38.44,59.03
		c18.53,18.53,37.12,29.93,59.03,38.44c21.2,8.24,45.43,13.87,80.91,15.49c35.55,1.62,46.9,2.01,137.42,2.01
		s101.87-0.38,137.42-2.01c35.48-1.62,59.7-7.25,80.91-15.49c21.92-8.52,40.5-19.91,59.03-38.44
		c18.53-18.53,29.93-37.12,38.44-59.03c8.24-21.2,13.87-45.43,15.49-80.91c1.62-35.55,2.01-46.9,2.01-137.42
		s-0.38-101.87-2.01-137.42c-1.62-35.48-7.25-59.7-15.49-80.91c-8.52-21.92-19.91-40.5-38.44-59.03
		c-18.53-18.53-37.12-29.93-59.03-38.44c-21.2-8.24-45.43-13.87-80.91-15.49C613.87,179.09,602.52,178.7,512,178.7L512,178.7z"/>
	<path class="st2" d="M512,340.85c-94.53,0-171.15,76.63-171.15,171.15S417.47,683.15,512,683.15S683.15,606.53,683.15,512
		S606.53,340.85,512,340.85z M512,623.1c-61.36,0-111.1-49.74-111.1-111.1S450.64,400.9,512,400.9S623.1,450.64,623.1,512
		S573.36,623.1,512,623.1z"/>
	<circle class="st2" cx="689.92" cy="334.08" r="40"/>
</g>
</svg>
