<?xml version="1.0" encoding="utf-8"?>
<!-- Generator: Adobe Illustrator 24.1.2, SVG Export Plug-In . SVG Version: 6.00 Build 0)  -->
<svg version="1.1" id="Calque_1" xmlns="http://www.w3.org/2000/svg" xmlns:xlink="http://www.w3.org/1999/xlink" x="0px" y="0px"
	 viewBox="0 0 24 24" style="enable-background:new 0 0 24 24;" xml:space="preserve">
<style type="text/css">
	.st0{opacity:0;fill:#FFFFFF;}
	.st1{clip-path:url(#SVGID_2_);fill:url(#SVGID_3_);}
	.st2{clip-path:url(#SVGID_5_);fill:url(#SVGID_6_);}
	.st3{clip-path:url(#SVGID_8_);fill:url(#SVGID_9_);}
</style>
<path class="st0" d="M21.4,0H2.7C1.2,0,0,1.2,0,2.7v18.5c0,1.5,1.2,2.7,2.7,2.8h18.6c1.5,0,2.7-1.2,2.7-2.7V2.7
	C24,1.2,22.8,0,21.4,0z"/>
<g>
	<g>
		<defs>
			<path id="SVGID_1_" d="M12,19.41h2.54c0-5.46-4.49-9.95-10.05-9.95V12C8.59,12,12,15.31,12,19.41z"/>
		</defs>
		<clipPath id="SVGID_2_">
			<use xlink:href="#SVGID_1_"  style="overflow:visible;"/>
		</clipPath>
		<linearGradient id="SVGID_3_" gradientUnits="userSpaceOnUse" x1="17.77" y1="1.9721" x2="6.2333" y2="21.9542">
			<stop  offset="2.549931e-07" style="stop-color:#4000AA"/>
			<stop  offset="1" style="stop-color:#E90013"/>
		</linearGradient>
		<path class="st1" d="M19.04,2.99H5.01c-1.12,0-2.02,0.9-2.02,2.02v13.87c0,1.12,0.9,2.02,2.02,2.1h13.95
			c1.12,0,2.02-0.9,2.02-2.02V5.01C20.99,3.89,20.09,2.99,19.04,2.99z"/>
	</g>
	<g>
		<defs>
			<path id="SVGID_4_" d="M16.88,19.41h2.54c0.1-8.19-6.63-14.92-14.92-14.92v2.54C11.41,7.03,16.88,12.58,16.88,19.41z"/>
		</defs>
		<clipPath id="SVGID_5_">
			<use xlink:href="#SVGID_4_"  style="overflow:visible;"/>
		</clipPath>
		<linearGradient id="SVGID_6_" gradientUnits="userSpaceOnUse" x1="17.77" y1="1.9721" x2="6.2333" y2="21.9542">
			<stop  offset="2.549931e-07" style="stop-color:#4000AA"/>
			<stop  offset="1" style="stop-color:#E90013"/>
		</linearGradient>
		<path class="st2" d="M19.04,2.99H5.01c-1.12,0-2.02,0.9-2.02,2.02v13.87c0,1.12,0.9,2.02,2.02,2.1h13.95
			c1.12,0,2.02-0.9,2.02-2.02V5.01C20.99,3.89,20.09,2.99,19.04,2.99z"/>
	</g>
	<g>
		<defs>
			<path id="SVGID_7_" d="M6.44,15.7c-1.07,0-1.85,0.88-1.85,1.85c0,0.98,0.88,1.85,1.85,1.85s1.85-0.88,1.85-1.85
				C8.29,16.48,7.42,15.7,6.44,15.7z"/>
		</defs>
		<clipPath id="SVGID_8_">
			<use xlink:href="#SVGID_7_"  style="overflow:visible;"/>
		</clipPath>
		<linearGradient id="SVGID_9_" gradientUnits="userSpaceOnUse" x1="17.77" y1="1.9721" x2="6.2333" y2="21.9542">
			<stop  offset="2.549931e-07" style="stop-color:#4000AA"/>
			<stop  offset="1" style="stop-color:#E90013"/>
		</linearGradient>
		<path class="st3" d="M19.04,2.99H5.01c-1.12,0-2.02,0.9-2.02,2.02v13.87c0,1.12,0.9,2.02,2.02,2.1h13.95
			c1.12,0,2.02-0.9,2.02-2.02V5.01C20.99,3.89,20.09,2.99,19.04,2.99z"/>
	</g>
</g>
<rect y="2.13" class="st0" width="24" height="19.75"/>
</svg>
