<?xml version="1.0" encoding="utf-8"?>
<!-- Generator: Adobe Illustrator 22.0.1, SVG Export Plug-In . SVG Version: 6.00 Build 0)  -->
<svg version="1.1" id="Calque_1" xmlns="http://www.w3.org/2000/svg" xmlns:xlink="http://www.w3.org/1999/xlink" x="0px" y="0px"
	 viewBox="0 0 24 24" style="enable-background:new 0 0 24 24;" xml:space="preserve">
<style type="text/css">
	.st0{fill:#FFFFFF;}
</style>
<path class="st0" d="M21.4,0H2.7C1.2,0,0,1.2,0,2.7v18.5c0,1.5,1.2,2.7,2.7,2.8h18.6c1.5,0,2.7-1.2,2.7-2.7V2.7
	C24,1.2,22.8,0,21.4,0z"/>
<path d="M3.1,0.5H21c1.3,0,2.5,1.1,2.5,2.6v17.8c0,1.4-1.2,2.6-2.6,2.6H3.1c-1.4-0.1-2.6-1.2-2.6-2.7V3.1C0.5,1.6,1.7,0.5,3.1,0.5
	 M6.3,15.8c-1.1,0-1.9,0.9-1.9,1.9c0,1,0.9,1.9,1.9,1.9s1.9-0.9,1.9-1.9C8.2,16.6,7.3,15.8,6.3,15.8 M4.3,9.4V12
	c4.2,0,7.7,3.4,7.7,7.6h2.6C14.6,14,10,9.4,4.3,9.4 M4.3,4.3v2.6c7.1,0,12.7,5.7,12.7,12.7h2.6C19.7,11.2,12.8,4.3,4.3,4.3z"/>
</svg>
