<?xml version="1.0" encoding="utf-8"?>
<!-- Generator: Adobe Illustrator 20.1.0, SVG Export Plug-In . SVG Version: 6.00 Build 0)  -->
<svg version="1.1" id="Calque_1" xmlns="http://www.w3.org/2000/svg" xmlns:xlink="http://www.w3.org/1999/xlink" x="0px" y="0px"
	 viewBox="0 0 24 24" style="enable-background:new 0 0 24 24;" xml:space="preserve">
<path d="M2.7,0h18.7C22.8,0,24,1.2,24,2.7v18.7c0,1.5-1.2,2.7-2.7,2.7H2.7C1.2,24,0,22.8,0,21.3V2.7C0,1.2,1.2,0,2.7,0 M6,16
	c-1.1,0-2,0.9-2,2c0,1.1,0.9,2,2,2s2-0.9,2-2C8,16.9,7.1,16,6,16 M4,9.3V12c4.4,0,8,3.6,8,8h2.7C14.7,14.1,9.9,9.3,4,9.3 M4,4v2.7
	c7.4,0,13.3,6,13.3,13.3H20C20,11.2,12.8,4,4,4z"/>
</svg>
