<?xml version="1.0" encoding="utf-8"?>
<!-- Generator: Adobe Illustrator 20.1.0, SVG Export Plug-In . SVG Version: 6.00 Build 0)  -->
<svg version="1.1" id="Calque_1" xmlns="http://www.w3.org/2000/svg" xmlns:xlink="http://www.w3.org/1999/xlink" x="0px" y="0px"
	 viewBox="0 0 93 53" style="enable-background:new 0 0 93 53;" xml:space="preserve">
<path d="M1.1,24.2c-0.2,0-0.3,0.1-0.4,0.4L0,29.7l0.7,5.1c0,0.2,0.2,0.4,0.4,0.4c0.2,0,0.3-0.1,0.4-0.4l0,0v0c0,0,0,0,0,0l0.8-5.1
	l-0.8-5.2C1.4,24.3,1.2,24.2,1.1,24.2z M4.9,21.3c0-0.2-0.2-0.4-0.4-0.4c-0.2,0-0.4,0.2-0.4,0.4c0,0-0.9,8.4-0.9,8.4l0.9,8.2
	c0,0.2,0.2,0.4,0.4,0.4c0.2,0,0.4-0.2,0.4-0.4l1-8.2L4.9,21.3z M19.3,13.6c-0.4,0-0.7,0.3-0.7,0.7l-0.7,15.4l0.7,9.9
	c0,0.4,0.3,0.7,0.7,0.7c0.4,0,0.7-0.3,0.7-0.7v0l0.8-9.9L20,14.3C20,13.9,19.7,13.6,19.3,13.6z M11.8,19c-0.3,0-0.5,0.2-0.5,0.5
	l-0.8,10.2l0.8,9.8c0,0.3,0.3,0.5,0.5,0.5c0.3,0,0.5-0.2,0.5-0.5l0.9-9.8l-0.9-10.2C12.3,19.2,12.1,19,11.8,19z M26.9,40.3
	c0.5,0,0.8-0.4,0.9-0.9l0.7-9.8L27.7,9.2c0-0.5-0.4-0.9-0.9-0.9c-0.5,0-0.8,0.4-0.9,0.9c0,0-0.6,20.5-0.6,20.5l0.6,9.8
	C26,39.9,26.4,40.3,26.9,40.3z M42.4,40.4c0.6,0,1.2-0.5,1.2-1.2v0v0l0.5-9.5L43.5,6.1c0-0.6-0.5-1.2-1.2-1.2
	c-0.6,0-1.2,0.5-1.2,1.2l-0.4,23.6c0,0,0.4,9.5,0.4,9.5C41.2,39.8,41.7,40.4,42.4,40.4z M34.6,40.3c0.6,0,1-0.4,1-1v0l0.6-9.6
	L35.6,9.1c0-0.6-0.5-1-1-1c-0.6,0-1,0.4-1,1L33,29.7l0.5,9.6C33.5,39.9,34,40.3,34.6,40.3z M15.5,40.2c0.3,0,0.6-0.3,0.6-0.6
	l0.9-9.9l-0.9-9.4c0-0.3-0.3-0.6-0.6-0.6c-0.3,0-0.6,0.3-0.6,0.6l-0.8,9.4l0.8,9.9C14.9,40,15.2,40.2,15.5,40.2z M8.1,39.7
	c0.2,0,0.4-0.2,0.5-0.5l1-9.5l-1-9.9c0-0.3-0.2-0.5-0.5-0.5c-0.2,0-0.4,0.2-0.5,0.5c0,0-0.9,9.9-0.9,9.9l0.9,9.5
	C7.7,39.5,7.9,39.7,8.1,39.7z M38.4,8.7c-0.6,0-1.1,0.5-1.1,1.1l-0.5,19.9l0.5,9.6c0,0.6,0.5,1.1,1.1,1.1c0.6,0,1.1-0.5,1.1-1.1v0
	l0.6-9.6L39.5,9.8C39.5,9.2,39,8.7,38.4,8.7z M23.1,40.3c0.4,0,0.8-0.3,0.8-0.8l0.8-9.9l-0.8-18.9c0-0.4-0.4-0.8-0.8-0.8
	c-0.4,0-0.8,0.3-0.8,0.8c0,0-0.7,18.9-0.7,18.9l0.7,9.9C22.3,40,22.6,40.3,23.1,40.3z M31.6,39.4L31.6,39.4l0.7-9.7L31.6,8.5
	c0-0.5-0.4-0.9-0.9-0.9c-0.5,0-0.9,0.4-0.9,0.9l-0.6,21.1l0.6,9.7c0,0.5,0.4,0.9,0.9,0.9C31.2,40.3,31.6,39.9,31.6,39.4L31.6,39.4z
	 M81.5,17.5c-1.6,0-3.1,0.3-4.4,0.9C76.2,8.1,67.6,0,57,0c-2.6,0-5.1,0.5-7.3,1.4c-0.9,0.3-1.1,0.7-1.1,1.3V39
	c0,0.7,0.6,1.3,1.2,1.4c0,0,31.5,0,31.7,0c6.3,0,11.4-5.1,11.4-11.4S87.9,17.5,81.5,17.5z M46.3,2.7c-0.7,0-1.3,0.6-1.3,1.3
	l-0.5,25.8l0.5,9.4c0,0.7,0.6,1.2,1.3,1.2c0.7,0,1.2-0.6,1.3-1.3v0l0.6-9.4L47.5,3.9C47.5,3.2,47,2.7,46.3,2.7z M9.2,47.7
	c-1.4-0.3-1.7-0.5-1.7-1c0-0.4,0.3-0.8,1.2-0.8c0.8,0,1.4,0.3,1.9,0.9l1.2-1.2c-0.8-0.8-1.8-1.3-3.1-1.3c-1.7,0-3,1-3,2.5
	c0,1.7,1.1,2.2,2.7,2.5c1.6,0.4,1.9,0.6,1.9,1.2c0,0.6-0.5,0.9-1.5,0.9c-0.8,0-1.6-0.3-2.2-1l-1.2,1.1c0.6,1,1.9,1.5,3.3,1.5
	c2.3,0,3.4-1.1,3.4-2.7C12.1,48.4,10.6,48,9.2,47.7z M17.1,44.2c-2.3,0-3.7,1.8-3.7,4.4s1.4,4.4,3.7,4.4s3.7-1.8,3.7-4.4
	S19.4,44.2,17.1,44.2z M17.1,51.3c-1.4,0-2-1.2-2-2.7c0-1.5,0.6-2.7,2-2.7c1.4,0,2,1.2,2,2.7C19,50.1,18.5,51.3,17.1,51.3z
	 M27.7,49.1c0,1.4-0.7,2.2-1.8,2.2c-1.1,0-1.7-0.9-1.7-2.2v-4.8h-1.7v4.8c0,2.5,1.4,3.9,3.5,3.9c2.2,0,3.5-1.4,3.5-3.9v-4.8h-1.7
	C27.7,44.3,27.7,49.1,27.7,49.1z M36.8,47.9c0,0.5,0,1.5,0,1.9c-0.1-0.2-0.4-0.6-0.6-1l-3-4.5h-1.6v8.5h1.7v-3.8c0-0.5,0-1.5,0-1.9
	c0.1,0.2,0.4,0.6,0.6,1l3.1,4.7h1.5v-8.5h-1.7C36.8,44.3,36.8,47.9,36.8,47.9z M43.3,44.3h-2.7v8.5h2.5c2.2,0,4.4-1.3,4.4-4.3
	C47.5,45.5,45.7,44.3,43.3,44.3z M43.2,51.2h-0.8V46h0.9c1.8,0,2.5,0.9,2.5,2.6C45.8,50.2,45,51.2,43.2,51.2z M52.8,45.9
	c0.8,0,1.3,0.3,1.6,0.9l1.6-0.7c-0.5-1.1-1.5-1.9-3.1-1.9c-2.2,0-3.8,1.8-3.8,4.4c0,2.7,1.5,4.4,3.7,4.4c1.5,0,2.6-0.7,3.2-1.9
	l-1.4-0.9c-0.5,0.8-0.9,1.1-1.7,1.1c-1.3,0-2-1.2-2-2.7C50.8,47,51.5,45.9,52.8,45.9z M59.2,44.3h-1.7v8.5h5.1v-1.7h-3.4V44.3z
	 M67.1,44.2c-2.3,0-3.7,1.8-3.7,4.4s1.4,4.4,3.7,4.4c2.3,0,3.7-1.8,3.7-4.4S69.4,44.2,67.1,44.2z M67.1,51.3c-1.4,0-2-1.2-2-2.7
	c0-1.5,0.6-2.7,2-2.7c1.4,0,1.9,1.2,1.9,2.7C69,50.1,68.5,51.3,67.1,51.3z M77.7,49.1c0,1.4-0.7,2.2-1.8,2.2c-1.1,0-1.7-0.9-1.7-2.2
	v-4.8h-1.7v4.8c0,2.5,1.4,3.9,3.5,3.9c2.2,0,3.5-1.4,3.5-3.9v-4.8h-1.7V49.1z M84.2,44.3h-2.7v8.5h2.5c2.2,0,4.4-1.3,4.4-4.3
	C88.4,45.5,86.6,44.3,84.2,44.3z M84.1,51.2h-0.8V46h0.9c1.8,0,2.5,0.9,2.5,2.6C86.7,50.2,85.9,51.2,84.1,51.2z"/>
</svg>
