<?xml version="1.0" encoding="utf-8"?>
<!-- Generator: Adobe Illustrator 20.1.0, SVG Export Plug-In . SVG Version: 6.00 Build 0)  -->
<svg version="1.1" id="Calque_1" xmlns="http://www.w3.org/2000/svg" xmlns:xlink="http://www.w3.org/1999/xlink" x="0px" y="0px"
	 viewBox="0 0 24 24" style="enable-background:new 0 0 24 24;" xml:space="preserve">
<path d="M21.3,0.1H2.7C1.2,0.1,0,1.3,0,2.8v18.7c0,1.5,1.2,2.7,2.7,2.7h18.7c1.5,0,2.7-1.2,2.7-2.7V2.8C24,1.3,22.8,0.1,21.3,0.1z
	 M2.8,16.1C2.3,15.6,2,15,2,14.4c0-0.7,0.3-1.3,0.8-1.7V16.1z M4.5,16.6H4.3c-0.2,0-0.5,0-0.6-0.1v-4.3c0.2-0.1,0.4-0.1,0.6-0.1
	c0.1,0,0.1,0,0.2,0V16.6z M6.1,16.6H5.3v-4.2c0.1,0,0.1,0.1,0.2,0.1C5.6,12,5.8,11.4,6.1,11V16.6z M7.8,16.6H7v-6.4
	C7.2,10,7.5,9.9,7.8,9.8V16.6z M9.5,16.6H8.7v-7c0.1,0,0.2,0,0.3,0c0.2,0,0.4,0,0.5,0V16.6z M11.2,16.6H9.9V9.8
	c0.3,0.1,0.6,0.2,0.9,0.4c0.1-0.2,0.2-0.4,0.4-0.5V16.6z M19.6,16.6h-8V9.2c0.8-0.7,1.8-1.1,2.8-1.1c2.2,0,4,1.7,4.3,3.8
	c0.3-0.1,0.6-0.2,0.9-0.2c1.4,0,2.4,1.1,2.4,2.4C22,15.4,21.2,16.5,19.6,16.6z"/>
</svg>
