<?xml version="1.0" encoding="utf-8"?>
<!-- Generator: Adobe Illustrator 22.0.1, SVG Export Plug-In . SVG Version: 6.00 Build 0)  -->
<svg version="1.1" id="Calque_1" xmlns="http://www.w3.org/2000/svg" xmlns:xlink="http://www.w3.org/1999/xlink" x="0px" y="0px"
	 viewBox="0 0 24 24" style="enable-background:new 0 0 24 24;" xml:space="preserve">
<style type="text/css">
	.st0{fill:#FFFFFF;}
</style>
<path class="st0" d="M21.2,0H2.7C1.2,0,0,1.2,0,2.7v18.6C0,22.8,1.2,24,2.7,24h18.6c1.5,0,2.7-1.2,2.7-2.7V2.7
	C23.9,1.2,22.7,0,21.2,0z"/>
<path d="M20.8,0.5H3.1c-1.4,0-2.6,1.1-2.6,2.6v17.8c0,1.4,1.1,2.6,2.6,2.6h17.8c1.4,0,2.6-1.1,2.6-2.6V3.1
	C23.4,1.6,22.3,0.5,20.8,0.5z M3.2,15.8c-0.5-0.5-0.8-1-0.8-1.6c0-0.7,0.3-1.2,0.8-1.6V15.8z M4.8,16.2H4.6c-0.2,0-0.5,0-0.6-0.1V12
	C4.2,12,4.4,12,4.6,12c0.1,0,0.1,0,0.2,0V16.2z M6.3,16.2H5.6v-4c0.1,0,0.1,0.1,0.2,0.1c0.1-0.5,0.3-1,0.6-1.4V16.2z M7.9,16.2H7.2
	v-6.1c0.2-0.2,0.5-0.3,0.8-0.4V16.2z M9.6,16.2H8.8V9.6c0.1,0,0.2,0,0.3,0c0.2,0,0.4,0,0.5,0V16.2z M11.2,16.2H9.9V9.8
	c0.3,0.1,0.6,0.2,0.9,0.4c0.1-0.2,0.2-0.4,0.4-0.5C11.2,9.7,11.2,16.2,11.2,16.2z M19.2,16.2h-7.6V9.2c0.8-0.7,1.7-1,2.7-1
	c2.1,0,3.8,1.6,4.1,3.6c0.3-0.1,0.6-0.2,0.9-0.2c1.3,0,2.3,1,2.3,2.3C21.5,15.1,20.7,16.2,19.2,16.2z"/>
</svg>
