<?xml version="1.0" encoding="utf-8"?>
<!-- Generator: Adobe Illustrator 22.0.1, SVG Export Plug-In . SVG Version: 6.00 Build 0)  -->
<svg version="1.1" id="Calque_1" xmlns="http://www.w3.org/2000/svg" xmlns:xlink="http://www.w3.org/1999/xlink" x="0px" y="0px"
	 viewBox="0 0 24 24" style="enable-background:new 0 0 24 24;" xml:space="preserve">
<style type="text/css">
	.st0{fill:#FFFFFF;}
</style>
<path class="st0" d="M21.4,0H2.7C1.2,0,0,1.2,0,2.7v18.5c0,1.5,1.2,2.7,2.7,2.8h18.6c1.5,0,2.7-1.2,2.7-2.7V2.7
	C24,1.2,22.8,0,21.4,0z"/>
<path d="M3.1,0.5H21c1.3,0,2.5,1.1,2.5,2.6v17.8c0,1.4-1.2,2.6-2.6,2.6H3.1c-1.4-0.1-2.6-1.2-2.6-2.7V3.1C0.5,1.6,1.7,0.5,3.1,0.5
	 M19.3,8.5c0.6-0.5,1.3-1.1,1.6-1.8c-0.5,0.3-1.1,0.5-1.8,0.5c0.7-0.5,1.2-1,1.4-1.9c-0.7,0.4-1.3,0.7-2.2,0.9
	c-2-2.4-6.7-0.5-5.8,3.1C9.1,9.2,7.1,7.7,5.4,5.7c-1,1.5-0.1,3.9,1.1,4.6c-0.6,0-1.1-0.2-1.4-0.4c0.1,2,1.1,2.9,2.7,3.4
	c-0.5,0.1-1,0.1-1.4,0c0.5,1.3,1.4,2.2,3.2,2.4c-1.2,1-3.4,1.6-5.1,1.3c1.4,1,3.2,1.6,5.5,1.5C15.5,18.4,19.2,14.4,19.3,8.5z"/>
</svg>
