<?xml version="1.0" encoding="utf-8"?>
<!-- Generator: Adobe Illustrator 20.1.0, SVG Export Plug-In . SVG Version: 6.00 Build 0)  -->
<svg version="1.1" id="Calque_1" xmlns="http://www.w3.org/2000/svg" xmlns:xlink="http://www.w3.org/1999/xlink" x="0px" y="0px"
	 viewBox="0 0 24 24" style="enable-background:new 0 0 24 24;" xml:space="preserve">
<path d="M2.7,0h18.7C22.8,0,24,1.2,24,2.7v18.7c0,1.5-1.2,2.7-2.7,2.7H2.7C1.2,24,0,22.8,0,21.3V2.7C0,1.2,1.2,0,2.7,0 M19.6,8.4
	c0.6-0.5,1.4-1.2,1.7-1.9c-0.5,0.3-1.2,0.5-1.9,0.5c0.7-0.5,1.2-1.1,1.5-2c-0.7,0.4-1.4,0.7-2.3,0.9c-2.1-2.5-7-0.5-6.1,3.3
	C9,9.1,6.9,7.5,5.1,5.5c-1,1.6-0.1,4.1,1.1,4.8c-0.6,0-1.1-0.2-1.5-0.4c0.1,2.1,1.2,3,2.8,3.6c-0.5,0.1-1,0.1-1.5,0
	c0.5,1.4,1.5,2.3,3.3,2.5C8,17,5.8,17.7,4,17.4c1.5,1,3.3,1.7,5.7,1.6C15.6,18.8,19.5,14.6,19.6,8.4z"/>
</svg>
