<?xml version="1.0" encoding="utf-8"?>
<!-- Generator: Adobe Illustrator 22.0.1, SVG Export Plug-In . SVG Version: 6.00 Build 0)  -->
<svg version="1.1" id="Calque_1" xmlns="http://www.w3.org/2000/svg" xmlns:xlink="http://www.w3.org/1999/xlink" x="0px" y="0px"
	 viewBox="0 0 24 24" style="enable-background:new 0 0 24 24;" xml:space="preserve">
<style type="text/css">
	.st0{fill:#FFFFFF;}
</style>
<path class="st0" d="M21.4,0H2.7C1.2,0,0,1.2,0,2.7v18.5c0,1.5,1.2,2.7,2.7,2.8h18.6c1.5,0,2.7-1.2,2.7-2.7V2.7
	C24,1.2,22.8,0,21.4,0z"/>
<g>
	<polygon points="10.4,15 15.3,12 10.4,8.9 	"/>
	<path d="M21,0.5H3.1c-1.4,0-2.6,1.1-2.6,2.6v17.8c0,1.4,1.1,2.6,2.6,2.7h17.8c1.4,0,2.6-1.1,2.6-2.6V3.1C23.5,1.6,22.3,0.5,21,0.5z
		 M18.5,17c-0.5,0.1-3.4,0.3-6.5,0.3S6,17.2,5.5,17c-1.2-0.3-1.6-2.7-1.6-5.1s0.4-4.8,1.6-5.1C6,6.7,9,6.6,12,6.6s6,0.1,6.5,0.3
		c1.2,0.4,1.6,2.7,1.6,5.1S19.8,16.7,18.5,17z"/>
</g>
</svg>
