<?xml version="1.0" encoding="utf-8"?>
<!-- Generator: Adobe Illustrator 20.1.0, SVG Export Plug-In . SVG Version: 6.00 Build 0)  -->
<svg version="1.1" id="Calque_1" xmlns="http://www.w3.org/2000/svg" xmlns:xlink="http://www.w3.org/1999/xlink" x="0px" y="0px"
	 viewBox="0 0 24 24" style="enable-background:new 0 0 24 24;" xml:space="preserve">
<g>
	<polygon points="10.3,15.2 15.4,12 10.3,8.8 	"/>
	<path d="M21.4,0H2.7C1.2,0,0,1.2,0,2.7v18.6c0,1.5,1.2,2.7,2.7,2.8h18.6c1.5,0,2.7-1.2,2.7-2.7V2.7C24,1.2,22.8,0,21.4,0z
		 M18.8,17.3c-0.5,0.1-3.6,0.3-6.8,0.3s-6.3-0.1-6.8-0.3C3.9,17,3.5,14.5,3.5,12c0-2.5,0.4-5,1.7-5.3C5.7,6.5,8.9,6.4,12,6.4
		s6.3,0.1,6.8,0.3c1.3,0.4,1.7,2.8,1.7,5.3C20.5,14.5,20.1,17,18.8,17.3z"/>
</g>
</svg>
