<svg id="Calque_1" data-name="Calque 1" xmlns="http://www.w3.org/2000/svg" viewBox="0 0 1516.98 362.5"><defs><style>.cls-1,.cls-3{fill:none;}.cls-1,.cls-2,.cls-3{stroke:#272727;}.cls-1,.cls-2{stroke-linejoin:round;}.cls-1{stroke-width:4px;}.cls-2,.cls-4{fill:#272727;}.cls-2,.cls-3{stroke-width:8px;}.cls-3{stroke-linecap:round;stroke-miterlimit:10;}</style></defs><title>anciennes-nouvelles-logo-lg-dark</title><path class="cls-1" d="M1270.93,69.05c32.15-15.19,73.41-9.82,116.64,0v209.7q-65.08-17.47-116.64,0Z" transform="translate(-12.01 -12.28)"/><polyline class="cls-1" points="1375.55 283.03 1375.55 266.47 1375.55 73.33"/><line class="cls-1" x1="1258.92" y1="56.77" x2="1254.06" y2="66.63"/><line class="cls-1" x1="1258.92" y1="266.47" x2="1250.77" y2="283.03"/><path class="cls-1" d="M1283.46,88.8q43.18-13.4,91.57,0" transform="translate(-12.01 -12.28)"/><path class="cls-1" d="M1283.46,111.76q43.18-13.4,91.57,0" transform="translate(-12.01 -12.28)"/><path class="cls-1" d="M1283.46,134.72q43.18-13.4,91.57,0" transform="translate(-12.01 -12.28)"/><path class="cls-1" d="M1283.46,157.68q43.18-13.4,91.57,0" transform="translate(-12.01 -12.28)"/><path class="cls-1" d="M1283.46,180.64q43.18-13.4,91.57,0" transform="translate(-12.01 -12.28)"/><path class="cls-1" d="M1283.46,203.6q43.18-13.4,91.57,0" transform="translate(-12.01 -12.28)"/><path class="cls-1" d="M1283.46,226.56q43.18-13.4,91.57,0" transform="translate(-12.01 -12.28)"/><path class="cls-1" d="M1283.46,249.52q43.18-13.4,91.57,0" transform="translate(-12.01 -12.28)"/><path class="cls-2" d="M1525,84V308.57c-45.81-8.34-74.89-14.84-120.52-.73-1.51,6.42-4.92,11.48-16.91,11.48s-15.39-5.06-16.9-11.48c-45.63-14.11-74.71-7.61-120.52.73V84s5.1-5.12,15.93-5.12l-3.29,6.7v209.7q55.16-17.48,124.78,0,69.63-17.48,124.79,0V85.61l-3.29-6.7C1519.88,78.91,1525,84,1525,84Z" transform="translate(-12.01 -12.28)"/><path class="cls-1" d="M1504.2,69.05c-32.15-15.19-73.41-9.82-116.64,0v209.7q65.08-17.47,116.64,0Z" transform="translate(-12.01 -12.28)"/><polyline class="cls-1" points="1375.55 283.03 1375.55 266.47 1375.55 73.33"/><line class="cls-1" x1="1497.05" y1="66.63" x2="1492.19" y2="56.77"/><line class="cls-1" x1="1492.19" y1="266.47" x2="1500.34" y2="283.03"/><path class="cls-1" d="M1491.67,88.8q-43.18-13.4-91.57,0" transform="translate(-12.01 -12.28)"/><path class="cls-1" d="M1491.67,111.76q-43.18-13.4-91.57,0" transform="translate(-12.01 -12.28)"/><path class="cls-1" d="M1491.67,134.72q-43.18-13.4-91.57,0" transform="translate(-12.01 -12.28)"/><path class="cls-1" d="M1491.67,157.68q-43.18-13.4-91.57,0" transform="translate(-12.01 -12.28)"/><path class="cls-1" d="M1491.67,180.64q-43.18-13.4-91.57,0" transform="translate(-12.01 -12.28)"/><path class="cls-1" d="M1491.67,203.6q-43.18-13.4-91.57,0" transform="translate(-12.01 -12.28)"/><path class="cls-1" d="M1491.67,226.56q-43.18-13.4-91.57,0" transform="translate(-12.01 -12.28)"/><path class="cls-1" d="M1491.67,249.52q-43.18-13.4-91.57,0" transform="translate(-12.01 -12.28)"/><line class="cls-3" x1="1375.55" y1="59.89" x2="1375.55" y2="293.31"/><circle class="cls-4" cx="1139.26" cy="180.13" r="37.59"/><path class="cls-4" d="M523,220.67v88.5l-6,6-6-6v-103c-16.5,0-33-.46-33-.46V315.12l33,30h12l33-30V205.67s-16.5.46-33,.46Z" transform="translate(-12.01 -12.28)"/><path class="cls-4" d="M425,220.67v83.46s0,11-6,11-6-11-6-11v-98c-16.5,0-33-.46-33-.46V315.12c0,18.86,16.5,30,33,30h12c16.5,0,33-15,33-30V205.67s-16.5.46-33,.46Z" transform="translate(-12.01 -12.28)"/><path class="cls-4" d="M327,205.89H315c-16.5,0-33,15-33,30v79c0,18.86,16.5,30,33,30h12c16.5,0,33-15,33-30v-79C360,220.89,343.51,205.89,327,205.89Zm0,52v46s0,11-6,11-6-11-6-11v-57s0-11,6-11,6,11,6,11Z" transform="translate(-12.01 -12.28)"/><polygon class="cls-4" points="678.5 193.84 645 193.84 645 332.84 706 332.84 706 302.84 678.5 302.84 678.5 193.84"/><polygon class="cls-4" points="759.5 193.84 726 193.84 726 332.84 787 332.84 787 302.84 759.5 302.84 759.5 193.84"/><path class="cls-4" d="M977.85,374.78h10.92c31.81,0,63.63-28.92,63.63-57.84V294.85c0-29.57-17.05-44.63-31.81-53.89l-54.95-34.8V185.83s0-21.21,11.57-21.21,11.57,21.21,11.57,21.21l63.63,41.54V164.62c0-28.92-31.81-57.84-63.63-57.84H965.64c-31.81,0-63.63,28.92-63.63,57.84v22.09c0,29.57,17.05,44.63,31.81,53.89l54.95,34.8v20.33s0,21.21-11.57,21.21-11.57-21.21-11.57-21.21L902,254.19v62.75c0,28.92,31.81,57.84,63.63,57.84h12.21Z" transform="translate(-12.01 -12.28)"/><polygon class="cls-4" points="625 193.61 564 193.61 564 332.61 625 332.61 625 302.61 597.5 302.61 597.5 280.61 625 280.61 625 245.61 597.5 245.61 597.5 223.61 625 223.61 625 193.61"/><polygon class="cls-4" points="868 193.61 807 193.61 807 332.61 868 332.61 868 302.61 840.5 302.61 840.5 280.61 868 280.61 868 245.61 840.5 245.61 840.5 223.61 868 223.61 868 193.61"/><path class="cls-4" d="M184,344.9v-139h45c16.5,0,33,15,33,30v109H229v-98s0-11-12-11v109Z" transform="translate(-12.01 -12.28)"/><path class="cls-4" d="M830.34,178.28H836c16.5,0,33-15,33-30V136.83c0-15.33-8.85-23.15-16.5-28l-28.5-18V80.28s0-11,6-11,6,11,6,11l33,21.54V69.28c0-15-16.5-30-33-30H824c-16.5,0-33,15-33,30V80.74c0,15.33,8.85,23.15,16.5,28l28.5,18v10.54s0,11-6,11-6-11-6-11l-33-21.54v32.54c0,15,16.5,30,33,30h6.33Z" transform="translate(-12.01 -12.28)"/><polygon class="cls-4" points="759 27 698 27 698 166 759 166 759 136 731.5 136 731.5 114 759 114 759 79 731.5 79 731.5 57 759 57 759 27"/><path class="cls-4" d="M514,178.28v-139h45c16.5,0,33,15,33,30v109H559v-98s0-11-12-11v109Z" transform="translate(-12.01 -12.28)"/><path class="cls-4" d="M184,178.28v-139h45c16.5,0,33,15,33,30v109H229v-98s0-11-12-11v109Z" transform="translate(-12.01 -12.28)"/><path class="cls-4" d="M612,178.28v-139h45c16.5,0,33,15,33,30v109H657v-98s0-11-12-11v109Z" transform="translate(-12.01 -12.28)"/><polygon class="cls-4" points="482 27 421 27 421 166 482 166 482 136 454.5 136 454.5 114 482 114 482 79 454.5 79 454.5 57 482 57 482 27"/><rect class="cls-4" x="368" y="27" width="33" height="139"/><path class="cls-4" d="M360,126.28H327v11s0,11-6,11-6-11-6-11v-57s0-11,6-11,6,11,6,11v11h33v-22c0-15-16.5-30-33-30H315c-16.5,0-33,15-33,30v79c0,18.86,16.5,30,33,30h12c16.5,0,33-15,33-30Z" transform="translate(-12.01 -12.28)"/><path class="cls-4" d="M104,12.28H72c-30,0-60,27-60,57v211H72v-69h32v69h60v-211C164,39.28,134,12.28,104,12.28Zm0,136H72v-57s0-22,16-22,16,22,16,22Z" transform="translate(-12.01 -12.28)"/></svg>