<svg id="Calque_1" data-name="Calque 1" xmlns="http://www.w3.org/2000/svg" viewBox="0 0 868.39 899.82"><defs><style>.cls-1,.cls-3,.cls-4{fill:none;}.cls-1,.cls-2,.cls-3,.cls-4{stroke:#272727;stroke-linejoin:round;}.cls-1{stroke-width:6px;}.cls-2,.cls-5{fill:#272727;}.cls-2{stroke-width:8px;}.cls-3{stroke-width:6.13px;}.cls-4{stroke-linecap:round;stroke-width:10px;}</style></defs><title>anciennes-nouvelles-logo-dark</title><path class="cls-1" d="M308,306.48c52.64-24.88,120.19-16.08,191,0V649.8q-106.55-28.61-191,0Z" transform="translate(-65 -50)"/><polyline class="cls-1" points="434 626.91 434 599.8 434 283.59"/><line class="cls-1" x1="243.04" y1="256.48" x2="235.09" y2="272.62"/><line class="cls-1" x1="243.04" y1="599.8" x2="229.69" y2="626.91"/><path class="cls-1" d="M328.56,338.81q70.69-21.94,149.92,0" transform="translate(-65 -50)"/><path class="cls-1" d="M328.56,376.4q70.69-21.94,149.92,0" transform="translate(-65 -50)"/><path class="cls-1" d="M328.56,414q70.69-21.94,149.92,0" transform="translate(-65 -50)"/><path class="cls-1" d="M328.56,451.58q70.69-21.94,149.92,0" transform="translate(-65 -50)"/><path class="cls-1" d="M328.56,489.17q70.69-21.94,149.92,0" transform="translate(-65 -50)"/><path class="cls-1" d="M328.56,526.76q70.69-21.94,149.92,0" transform="translate(-65 -50)"/><path class="cls-1" d="M328.56,564.35q70.69-21.94,149.92,0" transform="translate(-65 -50)"/><path class="cls-1" d="M328.56,601.94q70.69-21.94,149.92,0" transform="translate(-65 -50)"/><path class="cls-2" d="M724,331V698.62c-75-13.66-122.62-24.29-197.33-1.2-2.47,10.52-8,18.8-27.67,18.8s-25.2-8.28-27.67-18.8C396.62,674.33,349,685,274,698.62V331s8.36-8.38,26.09-8.38l-5.4,11V676.91Q385,648.3,499,676.91q114-28.61,204.31,0V333.59l-5.4-11C715.64,322.62,724,331,724,331Z" transform="translate(-65 -50)"/><path class="cls-1" d="M690,306.48c-52.64-24.88-120.19-16.08-191,0V649.8q106.55-28.61,191,0Z" transform="translate(-65 -50)"/><polyline class="cls-1" points="434 626.91 434 599.8 434 283.59"/><line class="cls-1" x1="632.91" y1="272.62" x2="624.96" y2="256.48"/><line class="cls-1" x1="624.96" y1="599.8" x2="638.31" y2="626.91"/><path class="cls-1" d="M669.44,338.81q-70.69-21.94-149.92,0" transform="translate(-65 -50)"/><path class="cls-1" d="M669.44,376.4q-70.69-21.94-149.92,0" transform="translate(-65 -50)"/><path class="cls-1" d="M669.44,414q-70.69-21.94-149.92,0" transform="translate(-65 -50)"/><path class="cls-1" d="M669.44,451.58q-70.69-21.94-149.92,0" transform="translate(-65 -50)"/><path class="cls-1" d="M669.44,489.17q-70.69-21.94-149.92,0" transform="translate(-65 -50)"/><path class="cls-3" d="M669.44,526.76q-70.69-21.94-149.92,0" transform="translate(-65 -50)"/><path class="cls-3" d="M669.44,564.35q-70.69-21.94-149.92,0" transform="translate(-65 -50)"/><path class="cls-3" d="M669.44,601.94q-70.69-21.94-149.92,0" transform="translate(-65 -50)"/><line class="cls-4" x1="434" y1="261.59" x2="434" y2="643.74"/><circle class="cls-5" cx="62.59" cy="490.25" r="37.59"/><circle class="cls-5" cx="805.41" cy="415.07" r="37.59"/><path class="cls-5" d="M404,795.71v88.5l-6,6-6-6v-103c-16.5,0-33-.46-33-.46V890.16l33,30h12l33-30V780.71s-16.5.46-33,.46Z" transform="translate(-65 -50)"/><path class="cls-5" d="M306,795.71v83.46s0,11-6,11-6-11-6-11v-98c-16.5,0-33-.46-33-.46V890.16c0,18.86,16.5,30,33,30h12c16.5,0,33-15,33-30V780.71s-16.5.46-33,.46Z" transform="translate(-65 -50)"/><path class="cls-5" d="M208,780.94H196c-16.5,0-33,15-33,30v79c0,18.86,16.5,30,33,30h12c16.5,0,33-15,33-30v-79C241,795.94,224.5,780.94,208,780.94Zm0,52v46s0,11-6,11-6-11-6-11v-57s0-11,6-11,6,11,6,11Z" transform="translate(-65 -50)"/><polygon class="cls-5" points="506.5 731.16 473 731.16 473 870.16 534 870.16 534 840.16 506.5 840.16 506.5 731.16"/><polygon class="cls-5" points="587.5 731.16 554 731.16 554 870.16 615 870.16 615 840.16 587.5 840.16 587.5 731.16"/><path class="cls-5" d="M858.84,949.82h10.92c31.81,0,63.63-28.92,63.63-57.84V869.89c0-29.57-17.05-44.63-31.81-53.89l-54.95-34.8V760.87s0-21.21,11.57-21.21,11.57,21.21,11.57,21.21l63.63,41.54V739.66c0-28.92-31.81-57.84-63.63-57.84H846.63c-31.81,0-63.63,28.92-63.63,57.84v22.09c0,29.57,17.05,44.63,31.81,53.89l54.95,34.8v20.33s0,21.21-11.57,21.21-11.57-21.21-11.57-21.21L783,829.23V892c0,28.92,31.81,57.84,63.63,57.84h12.21Z" transform="translate(-65 -50)"/><polygon class="cls-5" points="453 730.93 392 730.93 392 869.93 453 869.93 453 839.93 425.5 839.93 425.5 817.93 453 817.93 453 782.93 425.5 782.93 425.5 760.93 453 760.93 453 730.93"/><polygon class="cls-5" points="696 730.93 635 730.93 635 869.93 696 869.93 696 839.93 668.5 839.93 668.5 817.93 696 817.93 696 782.93 668.5 782.93 668.5 760.93 696 760.93 696 730.93"/><path class="cls-5" d="M65,919.94v-139h45c16.5,0,33,15,33,30v109H110v-98s0-11-12-11v109Z" transform="translate(-65 -50)"/><path class="cls-5" d="M883.33,216H889c16.5,0,33-15,33-30V174.54c0-15.33-8.85-23.15-16.5-28l-28.5-18V118s0-11,6-11,6,11,6,11l33,21.54V107c0-15-16.5-30-33-30H877c-16.5,0-33,15-33,30v11.46c0,15.33,8.85,23.15,16.5,28l28.5,18V175s0,11-6,11-6-11-6-11l-33-21.54V186c0,15,16.5,30,33,30h6.33Z" transform="translate(-65 -50)"/><polygon class="cls-5" points="759 27 698 27 698 166 759 166 759 136 731.5 136 731.5 114 759 114 759 79 731.5 79 731.5 57 759 57 759 27"/><path class="cls-5" d="M567,216V77h45c16.5,0,33,15,33,30V216H612V118s0-11-12-11V216Z" transform="translate(-65 -50)"/><path class="cls-5" d="M237,216V77h45c16.5,0,33,15,33,30V216H282V118s0-11-12-11V216Z" transform="translate(-65 -50)"/><path class="cls-5" d="M665,216V77h45c16.5,0,33,15,33,30V216H710V118s0-11-12-11V216Z" transform="translate(-65 -50)"/><polygon class="cls-5" points="482 27 421 27 421 166 482 166 482 136 454.5 136 454.5 114 482 114 482 79 454.5 79 454.5 57 482 57 482 27"/><rect class="cls-5" x="368" y="27" width="33" height="139"/><path class="cls-5" d="M413,164H380v11s0,11-6,11-6-11-6-11V118s0-11,6-11,6,11,6,11v11h33V107c0-15-16.5-30-33-30H368c-16.5,0-33,15-33,30v79c0,18.86,16.5,30,33,30h12c16.5,0,33-15,33-30Z" transform="translate(-65 -50)"/><path class="cls-5" d="M157,50H125c-30,0-60,27-60,57V318h60V249h32v69h60V107C217,77,187,50,157,50Zm0,136H125V129s0-22,16-22,16,22,16,22Z" transform="translate(-65 -50)"/></svg>