<?xml version="1.0" encoding="utf-8"?>
<!-- Generator: Adobe Illustrator 20.1.0, SVG Export Plug-In . SVG Version: 6.00 Build 0)  -->
<svg version="1.1" id="Calque_1" xmlns="http://www.w3.org/2000/svg" xmlns:xlink="http://www.w3.org/1999/xlink" x="0px" y="0px"
	 viewBox="0 0 100 100" style="enable-background:new 0 0 100 100;" xml:space="preserve">
<style type="text/css">
	.st0{opacity:0;fill:#272727;}
	.st1{fill:#272727;}
</style>
<rect class="st0" width="100" height="100"/>
<g>
	<path class="st1" d="M18.9,18.3c0,0.3,0.4,0.4,0.1,0.7c0.1,0.6-0.1,1.1,0,1.7c0.2,1,0,1.9-0.4,2.7c-0.1,0.3-0.3,0.5-0.3,0.9
		c0,0.3-0.2,0.5-0.3,0.8c-0.3,0.4-0.5,0.7-0.6,1.2c0,0.1-0.1,0.3-0.2,0.5c-0.6,0.6-0.9,1.4-1.4,2.1c-0.8,1.2-2.7,1.8-4.1,1.3
		c-0.6-0.2-1.1-0.6-1.5-1.1c-0.8-1.2-1.3-2.5-1.6-3.9c-0.4-2-0.4-4-0.2-6.1c0.1-1.1,0.4-2.2,0.8-3.3c0.9-2.8,2-5.5,3.2-8.2
		c0.9-1.9,2-3.6,3.4-5.2c0.3-0.3,0.6-0.6,0.8-0.8c0.9-0.9,2.9-0.9,3.8-0.2c0.3,0.2,0.6,0.4,0.8,0.6c0.8,0.6,1.2,1.3,1.2,2.2
		c-0.1,1.9-0.5,3.7-1.2,5.5c-0.2,0.5-0.4,1-0.5,1.5c-0.2,0.8-0.8,1.4-1.4,1.9c-0.1,0.1-0.3,0.3-0.6,0.1c-0.2-0.1-0.3-0.3-0.2-0.6
		c0.2-0.3,0.2-0.7,0.2-1.1c0.1-1,0.4-2,0.8-2.9c0.5-1.2,0.6-2.5,0.4-3.7c-0.1-0.4,0-0.8,0-1.2c0-0.1-0.1-0.1-0.1-0.1
		c-0.1,0-0.2,0-0.2,0c-0.6,0.7-1.2,1.4-1.4,2.2c-0.2,0.8-0.6,1.6-1,2.3c-1.1,2.2-2.2,4.4-3.1,6.6c-0.4,1-0.7,2.1-1,3.1
		c-0.4,1.3-0.8,2.6-1,3.9c-0.2,1.6-0.2,3.2,0.1,4.8c0,0.1,0,0.1,0.1,0.2c0.1,0.2,0.3,0.3,0.5,0.2c0.3-0.1,0.6-0.4,0.9-0.6
		c1.9-1.6,3.3-3.6,4.1-5.9C18.1,19.6,18.6,19,18.9,18.3z"/>
	<path class="st1" d="M27.7,2.7C27.6,3.8,27.5,4.9,27,6c-0.1,0.3-0.2,0.6-0.2,0.8c0,0.6-0.3,1-0.5,1.5l-0.2,0.4
		c0,0.1-0.1,0.1-0.1,0.1c-0.2-0.1-0.4,0-0.6,0c-0.3-0.1-0.5-0.2-0.6-0.4c-0.2-0.8-0.3-1.5-0.3-2.2c0-0.7,0.1-1.5,0.3-2.1
		c0.1-0.6,0.2-1.1,0.3-1.7c0-0.2,0-0.5,0.1-0.8c0.6-0.3,1.1-0.2,1.6,0.2c0.3,0.2,0.6,0.3,0.7,0.6C27.6,2.4,27.7,2.5,27.7,2.7z"/>
	<path class="st1" d="M30.1,22.1c0-1,0.2-1.9,0.3-2.8l0.3-1.5c0.1-0.3,0.1-0.5,0.2-0.7c0.2-0.5,0.4-1.1,0.3-1.7
		c0-0.2,0.1-0.4,0.1-0.6c0.4-1.7,0.9-3.3,1.4-4.9c0.1-0.5,0.3-0.9,0.4-1.4c0.2-0.6,0.5-1.3,0.7-1.9c0.1-0.2,0.2-0.3,0.5-0.3
		c0.1,0,0.3-0.1,0.4-0.1c0.6-0.2,1.2-0.3,1.7,0.2c0.1,0.1,0.3,0.1,0.5,0c0.1-0.1,0.2-0.1,0.3-0.1c1.9-1,4-1.6,6-2.5
		c0.8-0.3,1.6-0.5,2.4-0.8c0.4-0.1,0.9-0.3,1.3-0.4c0.2-0.1,0.5-0.1,0.7-0.1c0.2,0,0.4,0.3,0.3,0.5c-0.2,0.3-0.1,0.7-0.3,1
		c-0.2,0.3-0.4,0.5-0.5,0.8c-0.1,0.2-0.3,0.3-0.6,0.4c-0.3,0.1-0.6,0.3-0.8,0.6c-0.4,0.5-1,0.8-1.5,1c-0.6,0.2-1.1,0.5-1.6,0.8
		c-1.5,0.8-3,1.6-4.5,2.1c-0.2,0.1-0.3,0.2-0.5,0.2c-0.7,0-0.9,0.5-1.1,1c-0.3,1-0.6,1.9-0.9,2.8l-0.5,1.7c0,0.2,0.1,0.3,0.3,0.3
		l2.2-0.6c0.6-0.1,1.2-0.2,1.8-0.2c0.2,0,0.3,0.1,0.3,0.4c0,0.2-0.1,0.4,0,0.6c0,0.1,0,0.1,0,0.2c-0.4,0.3-0.5,0.8-1,1
		c-0.3,0.1-0.6,0.3-0.6,0.7c-0.1,0.2-0.2,0.3-0.4,0.4c-0.6,0.3-1.2,0.6-1.9,0.8c-0.4,0.1-0.8,0.1-1.2,0c-0.4-0.1-0.5-0.1-0.6,0.4
		c-0.3,1.1-0.5,2.3-0.7,3.4c-0.1,0.2,0,0.4,0,0.6c0,0.1,0.2,0.2,0.3,0.1c0.2-0.1,0.5-0.3,0.7-0.5c1.6-1.2,3.3-2.2,5.1-3
		c0.5-0.2,1-0.4,1.5-0.4c0.4,0,0.4,0.1,0.6,0.5c0.2,0.5-0.1,0.9-0.1,1.3c0,0.3-0.3,0.6-0.6,0.8c-0.3,0.3-0.7,0.6-0.8,1
		c-0.1,0.1-0.2,0.1-0.3,0.2c-1.3,0.9-2.7,1.8-4,2.7c-0.6,0.4-1.2,0.6-1.9,0.8c-0.2,0.1-0.3,0-0.5,0c-0.9-0.1-1.6-0.4-2.2-1
		c-0.8-0.8-1.2-1.8-1.2-3V22.1z"/>
	<path class="st1" d="M65.1,3.9c-0.6,0.3-1.2,0.5-1.8,0.7C63,4.8,62.7,5,62.4,5.3c-0.6,0.7-1.4,1-2.1,1.4c-0.2,0.1-0.5,0.1-0.7,0.3
		c-1.2,0.9-2.6,1.3-3.9,1.9l-2.1,1C53.2,10,53,10.2,53,10.7c0.1,1.8-0.3,3.6-0.7,5.3c0,0.2-0.1,0.4-0.1,0.6
		c-0.1,1.3-0.5,2.5-0.8,3.7c-0.4,1.4-0.7,2.8-1.1,4.2c-0.1,0.6-0.4,1-0.6,1.5c-0.3,0.6-0.6,1.3-1,1.9c-0.1,0.2-0.3,0.3-0.5,0.5
		c-0.4,0.3-0.9,0.1-1-0.4C47,27.8,47,27.6,47,27.3c0-0.7,0.1-1.4,0.2-2c0.2-1,0.3-2,0.4-3c0.2-1.4,0.6-2.8,1-4.1
		c0.5-1.7,1-3.4,1.5-5c0.1-0.5,0.3-1,0.2-1.5c-0.3,0-0.6,0.1-0.8,0.3c-0.7,0.4-1.4,0.9-2.1,1.3c-1.1,0.6-2.2,1-3.4,1.1
		c-0.8,0.1-1.5-0.2-2.1-0.6c0,0-0.1,0-0.1-0.1c-0.1-0.6-0.4-0.9-0.8-1.3C41,12.3,41,12.1,41.1,12c1.4-0.3,2.4-1.1,3.6-1.8l1.5-0.8
		c3.1-1.6,6.3-3,9.5-4.2c2.3-0.9,4.8-1.6,7.2-2.3c1-0.3,1.9-0.5,2.9-0.7c0.2,0,0.3,0,0.5,0c0,0,0.1,0.1,0.1,0.1c0,0.1,0,0.1-0.1,0.2
		c-0.1,0.1-0.1,0.1-0.2,0.2c-0.4,0.2-0.9,0.4-1.3,0.6c-0.3,0.1-0.3,0.2,0,0.4C65,3.8,65,3.9,65.1,3.9z"/>
	<path class="st1" d="M68.8,8.2c0,2.1-0.2,3.7-0.3,5.3c0,0.2-0.1,0.5-0.1,0.7c-0.1,2.1-0.4,4.3-0.7,6.4c-0.1,0.5-0.1,1-0.2,1.5
		c0,0.7-0.1,1.3-0.3,1.9c-0.1,0.3-0.1,0.5-0.1,0.8c0,0.4,0,0.7-0.3,1c-0.2,0.2-0.2,0.7-0.2,1c0.1,0.9-0.3,1.5-0.9,2.1
		c-0.1,0.1-0.1,0.2-0.2,0.2c-0.2,0.2-0.3,0.1-0.5,0c-0.7-0.6-1.2-1.2-1.3-2.1c-0.1-0.8-0.2-1.6-0.1-2.5c0.1-0.6,0.1-1.1,0.1-1.7
		c0-1.3,0.2-2.6,0.2-3.8c0-0.2-0.1-0.3-0.3-0.3c-0.9,0.3-1.8,0.1-2.7-0.1c-0.3-0.1-0.5-0.1-0.8-0.1c-0.5-0.1-0.5-0.1-0.7,0.3
		c-0.3,0.9-0.7,1.7-1,2.6c-0.6,1.4-1.1,2.9-1.7,4.3c-0.1,0.3-0.2,0.5-0.4,0.7c-0.3,0.7-1,1-1.7,1c-0.2,0-0.3,0-0.5-0.2
		c-0.4-0.5-0.8-1-1-1.6c0-0.1,0-0.1,0-0.2c0.6-0.9,0.7-1.9,1.1-2.9c0.5-1.3,1-2.7,1.5-4.1c0.2-0.6,0.3-1.2,0.8-1.7
		c0.2-0.3-0.3-0.8,0.2-1c0.4-0.2,0.5-0.6,0.6-0.9c0.4-0.9,0.8-1.8,1.2-2.7L60.5,8c0.7-1.6,1.5-3.1,2.1-4.7c0.1-0.3,0.3-0.7,0.3-1.1
		c0-0.4,0.2-0.7,0.7-0.8c0.4-0.1,0.9-0.2,1.2-0.6c0.1,0,0.1-0.1,0.2-0.1c0.8,0.2,1.7,0.3,2.2,1C68,2.9,68.5,4,68.6,5.3
		C68.7,6.4,68.8,7.6,68.8,8.2z M60.9,15.5c0.6,0.3,1.4,0.4,2,0.8c0.2,0.1,0.6,0.1,0.8,0c0.3,0,0.5-0.2,0.6-0.5
		c0-0.3,0.1-0.6,0.1-0.9c0-1.9,0.1-3.8,0.2-5.7c0.1-0.8,0-1.5,0-2.3c0-0.1-0.1-0.1-0.1-0.1c-0.1-0.1-0.2,0-0.2,0.1
		c-0.4,0.9-0.8,1.8-1.2,2.7c-0.2,0.4-0.4,0.9-0.5,1.4c-0.1,0.6-0.3,1-0.5,1.6l-0.9,2.1C61,14.9,60.9,15.2,60.9,15.5z"/>
	<path class="st1" d="M71.5,30.9c-0.6-0.8-0.9-1.6-1-2.5c0-0.1-0.1-0.3,0-0.4c0.2-1.7,0.1-3.5,0.1-5.2c0-1.6,0-3.2,0-4.9
		c0.1-2.5,0.1-5,0.4-7.5c0.2-1.3,0.3-2.7,0.5-4c0-0.3,0-0.7,0-1c0-0.8,0-1.6,0-2.4c0-0.3,0.1-0.5,0.3-0.7c0.1-0.1,0.2-0.1,0.3-0.1
		c0.8-0.2,1.7-0.5,2.6-0.1c0.8,0.4,1.3,1.1,1.3,2.3c0.1,1.5,0,3.1-0.2,4.6c-0.2,1.5-0.5,3-0.8,4.5c-0.3,1.7-0.5,3.5-0.7,5.2
		c-0.1,0.6-0.1,1.3-0.2,1.9c-0.1,1.3-0.3,2.7-0.5,4c-0.1,0.6-0.1,1.2-0.3,1.8c-0.1,0.2-0.1,0.6-0.2,0.6c-0.3,0.2-0.3,0.7-0.6,0.9
		c-0.2,0.2-0.4,0.4-0.4,0.8C72.2,29.5,71.9,30.2,71.5,30.9z"/>
	<path class="st1" d="M98.1,3.9c-0.6,0.3-1.2,0.5-1.8,0.7C96,4.8,95.6,5,95.4,5.3c-0.6,0.7-1.4,1-2.1,1.4c-0.2,0.1-0.5,0.1-0.7,0.3
		c-1.2,0.9-2.6,1.3-3.9,1.9l-2.1,1c-0.4,0.2-0.7,0.4-0.7,0.9c0.1,1.8-0.3,3.6-0.7,5.3c0,0.2-0.1,0.4-0.1,0.6
		c-0.1,1.3-0.5,2.5-0.8,3.7c-0.4,1.4-0.7,2.8-1.1,4.2c-0.1,0.6-0.4,1-0.6,1.5c-0.3,0.6-0.6,1.3-1,1.9c-0.1,0.2-0.3,0.3-0.5,0.5
		c-0.4,0.3-0.9,0.1-1-0.4C80,27.8,80,27.6,80,27.3c0-0.7,0.1-1.4,0.2-2c0.2-1,0.3-2,0.4-3c0.2-1.4,0.6-2.8,1-4.1
		c0.5-1.7,1-3.4,1.5-5c0.1-0.5,0.3-1,0.2-1.5c-0.3,0-0.6,0.1-0.8,0.3c-0.7,0.4-1.4,0.9-2.1,1.3c-1.1,0.6-2.2,1-3.4,1.1
		c-0.8,0.1-1.5-0.2-2.1-0.6c0,0-0.1,0-0.1-0.1c-0.1-0.6-0.4-0.9-0.8-1.3c-0.1-0.1-0.1-0.3,0.1-0.3c1.4-0.3,2.4-1.1,3.6-1.8l1.5-0.8
		c3.1-1.6,6.3-3,9.5-4.2c2.3-0.9,4.8-1.6,7.2-2.3c1-0.3,1.9-0.5,2.9-0.7c0.2,0,0.3,0,0.5,0c0,0,0.1,0.1,0.1,0.1c0,0.1,0,0.1-0.1,0.2
		c-0.1,0.1-0.1,0.1-0.2,0.2c-0.4,0.2-0.9,0.4-1.3,0.6c-0.3,0.1-0.3,0.2,0,0.4C98,3.8,98,3.9,98.1,3.9z"/>
	<path class="st1" d="M29.3,62h-1.5V44l-7.5,12.5H20L12.5,44v18H11V41.7h1.9l7.3,12l7.3-12h1.9V62z"/>
	<path class="st1" d="M35.9,41.7V62h-1.5V41.7H35.9z"/>
	<path class="st1" d="M52.6,60.6V62H41V41.7h11.5v1.5h-10v7.9h9.3v1.5h-9.3v8.1H52.6z"/>
	<path class="st1" d="M56.1,55.3V41.7h1.5v13.5c0,3.3,2.1,5.6,5.9,5.6c3.9,0,5.9-2.3,5.9-5.6V41.7H71v13.5c0,4.3-3,7.1-7.5,7.1
		C59.1,62.4,56.1,59.6,56.1,55.3z"/>
	<path class="st1" d="M87.1,62L81.3,53L75.4,62h-1.8l6.8-10.4L74,41.7h1.8l5.5,8.5l5.5-8.5h1.8l-6.4,9.9L88.9,62H87.1z"/>
	<path class="st1" d="M31,77.8c0,2.1-0.2,3.7-0.3,5.3c0,0.2-0.1,0.5-0.1,0.7c-0.1,2.1-0.4,4.3-0.7,6.4c-0.1,0.5-0.1,1-0.2,1.5
		c0,0.7-0.1,1.3-0.3,1.9c-0.1,0.3-0.1,0.5-0.1,0.8c0,0.4,0,0.7-0.3,1c-0.2,0.2-0.2,0.7-0.2,1c0.1,0.9-0.3,1.5-0.9,2.1
		c-0.1,0.1-0.1,0.2-0.2,0.2c-0.2,0.2-0.3,0.1-0.5,0c-0.7-0.6-1.2-1.2-1.3-2.1c-0.1-0.8-0.2-1.6-0.1-2.5c0.1-0.6,0.1-1.1,0.1-1.7
		c0-1.3,0.2-2.6,0.2-3.8c0-0.2-0.1-0.3-0.3-0.3c-0.9,0.3-1.8,0.1-2.7-0.1c-0.3-0.1-0.5-0.1-0.8-0.1c-0.5-0.1-0.5-0.1-0.7,0.3
		c-0.3,0.9-0.7,1.7-1,2.6c-0.6,1.4-1.1,2.9-1.7,4.3c-0.1,0.3-0.2,0.5-0.4,0.7c-0.3,0.7-1,1-1.7,1c-0.2,0-0.3,0-0.5-0.2
		c-0.4-0.5-0.8-1-1-1.6c0-0.1,0-0.1,0-0.2c0.6-0.9,0.7-1.9,1.1-2.9c0.5-1.3,1-2.7,1.5-4.1c0.2-0.6,0.3-1.2,0.8-1.7
		c0.2-0.3-0.3-0.8,0.2-1c0.4-0.2,0.5-0.6,0.6-0.9c0.4-0.9,0.8-1.8,1.2-2.7l1.9-4.4c0.7-1.6,1.5-3.1,2.1-4.7c0.1-0.3,0.3-0.7,0.3-1.1
		c0-0.4,0.2-0.7,0.7-0.8c0.4-0.1,0.9-0.2,1.2-0.6c0.1,0,0.1-0.1,0.2-0.1c0.8,0.2,1.7,0.3,2.2,1c0.8,1.1,1.3,2.2,1.4,3.5
		C30.9,76,31.1,77.2,31,77.8z M23.1,85.1c0.6,0.3,1.4,0.4,2,0.8c0.2,0.1,0.6,0.1,0.8,0c0.3,0,0.5-0.2,0.6-0.5c0-0.3,0.1-0.6,0.1-0.9
		c0-1.9,0.1-3.8,0.2-5.7c0.1-0.8,0-1.5,0-2.3c0-0.1-0.1-0.1-0.1-0.1c-0.1-0.1-0.2,0-0.2,0.1c-0.4,0.9-0.8,1.8-1.2,2.7
		c-0.2,0.4-0.4,0.9-0.5,1.4c-0.1,0.6-0.3,1-0.5,1.6l-0.9,2.1C23.2,84.5,23.1,84.8,23.1,85.1z"/>
	<path class="st1" d="M46.3,71.9c-0.3,0.4-0.3,0.9-0.8,1.2c-0.4,0.3-0.7,0.7-0.5,1.3c0.1,0.1,0,0.3-0.1,0.4
		c-0.1,0.1-0.2,0.1-0.3,0.1c-0.1,0-0.3,0.1-0.2,0.2c0,0.4-0.2,0.8-0.3,1.2c-0.1,0.1-0.1,0.3,0,0.4h0c-0.1,0.2-0.1,0.4-0.3,0.6
		c-0.5,0.8-1,1.6-1.3,2.5c-0.5,1.2-1,2.3-1.5,3.4c-0.6,1.7-1.3,3.3-2,5c-0.7,1.7-1.3,3.4-1.9,5c-0.1,0.4-0.3,0.7-0.4,1.1
		c-0.2,0.5-0.5,1-0.6,1.6c-0.1,0.6-0.4,1-1,1.3c-0.4,0.2-0.7,0.2-1,0c-0.4-0.3-0.8-0.6-1-0.9c-0.4-0.5-0.6-1.1-0.3-1.6
		c0.5-1.2,0.4-2.5,0.4-3.8c0-1.6-0.2-3.2-0.2-4.8c0-1.4,0-2.8,0.1-4.3c0.1-1.6,0.1-3.1,0.1-4.7c0-0.6,0-1.3,0-1.9
		c0-0.3,0.1-0.6,0.1-0.9c0.1-0.6,0.2-0.6,0.7-0.3c0.2,0.1,0.5,0.2,0.7,0.3c0.9,0.6,1.5,1.4,1.7,2.4c0.1,0.6,0.2,1.2,0.2,1.9
		c0,1.6,0,3.1-0.3,4.7c-0.1,0.5,0.1,0.9,0,1.5c0.4-0.3,0.8-0.5,1-0.9c0.5-1,1-1.9,1.5-2.8c0.3-0.6,0.7-1.2,1.1-1.8
		c0.2-0.3,0.3-0.6,0.5-0.8c0.4-0.8,1-1.5,1.5-2.3c0.1-0.3,0.4-0.4,0.7-0.4c0.1-0.3,0.3-0.4,0.5-0.4c-0.1,0-0.1,0.1,0,0.1
		c0.1,0,0.2-0.1,0.3-0.2c0.7-0.9,1.5-1.7,2.2-2.5C45.8,72.4,46,72.1,46.3,71.9z M42.6,75.6c-0.1,0.1-0.2,0.3-0.2,0.4
		c0,0,0,0.1,0.1,0.1h0.1C42.8,76,42.9,75.8,42.6,75.6z M43.1,75.2C43.1,75.2,43.1,75.2,43.1,75.2L43.1,75.2z M44.2,76.3L44.2,76.3
		L44.2,76.3z"/>
	<path class="st1" d="M54.4,77.8c0,2.1-0.2,3.7-0.3,5.3c0,0.2-0.1,0.5-0.1,0.7c-0.1,2.1-0.4,4.3-0.7,6.4c-0.1,0.5-0.1,1-0.2,1.5
		c0,0.7-0.1,1.3-0.3,1.9c-0.1,0.3-0.1,0.5-0.1,0.8c0,0.4,0,0.7-0.3,1c-0.2,0.2-0.2,0.7-0.2,1c0.1,0.9-0.3,1.5-0.9,2.1
		c-0.1,0.1-0.1,0.2-0.2,0.2c-0.2,0.2-0.3,0.1-0.5,0c-0.7-0.6-1.2-1.2-1.3-2.1c-0.1-0.8-0.2-1.6-0.1-2.5c0.1-0.6,0.1-1.1,0.1-1.7
		c0-1.3,0.2-2.6,0.2-3.8c0-0.2-0.1-0.3-0.3-0.3c-0.9,0.3-1.8,0.1-2.7-0.1c-0.3-0.1-0.5-0.1-0.8-0.1c-0.5-0.1-0.5-0.1-0.7,0.3
		c-0.3,0.9-0.7,1.7-1,2.6c-0.6,1.4-1.1,2.9-1.7,4.3c-0.1,0.3-0.2,0.5-0.4,0.7c-0.3,0.7-1,1-1.7,1c-0.2,0-0.3,0-0.5-0.2
		c-0.4-0.5-0.8-1-1-1.6c0-0.1,0-0.1,0-0.2c0.6-0.9,0.7-1.9,1.1-2.9c0.5-1.3,1-2.7,1.5-4.1c0.2-0.6,0.3-1.2,0.8-1.7
		c0.2-0.3-0.3-0.8,0.2-1c0.4-0.2,0.5-0.6,0.6-0.9c0.4-0.9,0.8-1.8,1.2-2.7l1.9-4.4c0.7-1.6,1.5-3.1,2.1-4.7c0.1-0.3,0.3-0.7,0.3-1.1
		c0-0.4,0.2-0.7,0.7-0.8c0.4-0.1,0.9-0.2,1.2-0.6c0.1,0,0.1-0.1,0.2-0.1c0.8,0.2,1.7,0.3,2.2,1c0.8,1.1,1.3,2.2,1.4,3.5
		C54.3,76,54.5,77.2,54.4,77.8z M46.5,85.1c0.6,0.3,1.4,0.4,2,0.8c0.2,0.1,0.6,0.1,0.8,0c0.3,0,0.5-0.2,0.6-0.5
		c0-0.3,0.1-0.6,0.1-0.9c0-1.9,0.1-3.8,0.2-5.7c0.1-0.8,0-1.5,0-2.3c0-0.1-0.1-0.1-0.1-0.1c-0.1-0.1-0.2,0-0.2,0.1
		c-0.4,0.9-0.8,1.8-1.2,2.7c-0.2,0.4-0.4,0.9-0.5,1.4c-0.1,0.6-0.3,1-0.5,1.6l-0.9,2.1C46.6,84.5,46.5,84.8,46.5,85.1z"/>
	<path class="st1" d="M73.8,75.1c-0.3,0.2-0.5,0.5-0.5,0.9c0,0.5-0.2,0.9-0.4,1.3c-0.6,1-1.1,2.1-1.7,3.1c-0.6,1.1-1,2.2-1.5,3.3
		c-0.1,0.1-0.1,0.3-0.1,0.4c0.1,0.8-0.3,1.3-0.5,2c-0.3,0.8-0.7,1.5-0.9,2.3c-0.3,1.3-0.9,2.6-1.1,4c0,0.2-0.1,0.5-0.2,0.7
		c-0.1,0.4-0.1,0.8,0.2,1.1c0.1,0.1,0.1,0.3,0.2,0.4c0.1,0.3,0,0.6-0.2,0.8c-0.3,0.3-0.6,0.4-1,0.5C65.6,96,65.3,96,65,95.8
		c-0.3-0.2-0.6-0.2-0.9-0.3c-0.5-0.2-0.9-0.5-1.1-1c-0.4-1-0.7-2.1-0.8-3.2c-0.3-1.6-0.5-3.2-0.8-4.8c-0.1-0.5-0.3-0.9-0.4-1.4
		c0-0.1-0.1-0.1-0.2-0.1c0,0-0.1,0.1-0.1,0.1c-0.2,1.2-0.4,2.3-0.6,3.5c-0.1,1.1-0.3,2.2-0.7,3.3c-0.1,0.3-0.2,0.7-0.3,1.1
		c0,0.1,0,0.3-0.1,0.4c-0.6,0.8-0.8,1.7-1.2,2.6c-0.2,0.5-0.3,1.1-0.5,1.6c-0.1,0.2-0.2,0.3-0.4,0.4c-0.1,0.1-0.2,0.1-0.3,0
		c-0.3-0.3-0.6-0.6-0.7-1c-0.2-0.8-0.4-1.5-0.4-2.3c-0.1-2-0.1-4,0.2-5.9c0.3-1.9,0.4-3.9,0.6-5.8l0.2-1.2c0.1-0.6,0.1-1.3,0.2-1.9
		c0.1-1,0.3-1.9,0.5-2.9c0.1-0.6,0.4-0.9,1-0.9c0.6,0,1.2-0.1,1.7,0c0.5,0.2,0.9,0.4,1.2,1c0.2,0.4,0.4,0.8,0.8,1
		c0.5,0.4,0.8,1,1,1.6c0.7,1.6,1.4,3.2,2,4.9c0.3,0.7,0.5,1.5,0.5,2.3c0,0.3,0,0.7,0.3,1c0.5-1,1.3-1.8,1.9-2.7
		c0.1-0.2,0.2-0.4,0.3-0.6c0.9-2.4,2.3-4.5,3.4-6.8c0-0.1,0.1-0.2,0.2-0.3c0.6-0.6,1.1-1.3,1.5-2.1C73.2,75,73.5,75,73.8,75.1z"/>
	<path class="st1" d="M92.7,73.5c-0.6,0.3-1.2,0.5-1.8,0.7c-0.3,0.1-0.7,0.3-0.9,0.6c-0.6,0.7-1.4,1-2.1,1.4
		c-0.2,0.1-0.5,0.1-0.7,0.3c-1.2,0.9-2.6,1.3-3.9,1.9l-2.1,1c-0.4,0.2-0.7,0.4-0.7,0.9c0.1,1.8-0.3,3.6-0.7,5.3
		c0,0.2-0.1,0.4-0.1,0.6c-0.1,1.3-0.5,2.5-0.8,3.7c-0.4,1.4-0.7,2.8-1.1,4.2c-0.1,0.6-0.4,1-0.6,1.5c-0.3,0.6-0.6,1.3-1,1.9
		c-0.1,0.2-0.3,0.3-0.5,0.5c-0.4,0.3-0.9,0.1-1-0.4c-0.1-0.2-0.1-0.5-0.1-0.7c0-0.7,0.1-1.4,0.2-2c0.2-1,0.3-2,0.4-3
		c0.2-1.4,0.6-2.8,1-4.1c0.5-1.7,1-3.4,1.5-5c0.1-0.5,0.3-1,0.2-1.5c-0.3,0-0.6,0.1-0.8,0.3c-0.7,0.4-1.4,0.9-2.1,1.3
		c-1.1,0.6-2.2,1-3.4,1.1c-0.8,0.1-1.5-0.2-2.1-0.6c0,0-0.1,0-0.1-0.1c-0.1-0.6-0.4-0.9-0.8-1.3c-0.1-0.1-0.1-0.3,0.1-0.3
		c1.4-0.3,2.4-1.1,3.6-1.8l1.5-0.8c3.1-1.6,6.3-3,9.5-4.2c2.3-0.9,4.8-1.6,7.2-2.3c1-0.3,1.9-0.5,2.9-0.7c0.2,0,0.3,0,0.5,0
		c0,0,0.1,0.1,0.1,0.1c0,0.1,0,0.1-0.1,0.2c-0.1,0.1-0.1,0.1-0.2,0.2c-0.4,0.2-0.9,0.4-1.3,0.6c-0.3,0.1-0.3,0.2,0,0.4
		C92.6,73.4,92.6,73.5,92.7,73.5z"/>
</g>
</svg>
