<?xml version="1.0" encoding="utf-8"?>
<!-- Generator: Adobe Illustrator 20.1.0, SVG Export Plug-In . SVG Version: 6.00 Build 0)  -->
<svg version="1.1" id="Calque_1" xmlns="http://www.w3.org/2000/svg" xmlns:xlink="http://www.w3.org/1999/xlink" x="0px" y="0px"
	 viewBox="0 0 100 100" style="enable-background:new 0 0 100 100;" xml:space="preserve">
<style type="text/css">
	.st0{fill:none;}
</style>
<g id="Cétait_Mieux_Avant_Logo">
	<g>
		<rect class="st0" width="100" height="100"/>
	</g>
	<g>
		<path d="M26.5,76.7c0,2.1-0.2,3.7-0.3,5.3c0,0.2-0.1,0.5-0.1,0.7c-0.1,2.1-0.4,4.3-0.7,6.4c-0.1,0.5-0.1,1-0.2,1.5
			c0,0.7-0.1,1.3-0.3,1.9c-0.1,0.3-0.1,0.5-0.1,0.8c0,0.4,0,0.7-0.3,1c-0.2,0.2-0.2,0.7-0.2,1c0.1,0.9-0.3,1.5-0.9,2.1
			c-0.1,0.1-0.1,0.2-0.2,0.2c-0.2,0.2-0.3,0.1-0.5,0c-0.7-0.6-1.2-1.2-1.3-2.1c-0.1-0.8-0.2-1.6-0.1-2.5c0.1-0.6,0.1-1.1,0.1-1.7
			c0-1.3,0.2-2.6,0.2-3.8c0-0.2-0.1-0.3-0.3-0.3c-0.9,0.3-1.8,0.1-2.7-0.1C18.3,87,18.1,87,17.8,87c-0.5-0.1-0.5-0.1-0.7,0.3
			c-0.3,0.9-0.7,1.7-1,2.6c-0.6,1.4-1.1,2.9-1.7,4.3c-0.1,0.3-0.2,0.5-0.4,0.7c-0.3,0.7-1,1-1.7,1c-0.2,0-0.3,0-0.5-0.2
			c-0.4-0.5-0.8-1-1-1.6c0-0.1,0-0.1,0-0.2c0.6-0.9,0.7-1.9,1.1-2.9c0.5-1.3,1-2.7,1.5-4.1c0.2-0.6,0.3-1.2,0.8-1.7
			c0.2-0.3-0.3-0.8,0.2-1c0.4-0.2,0.5-0.6,0.6-0.9c0.4-0.9,0.8-1.8,1.2-2.7l1.9-4.4c0.7-1.6,1.5-3.1,2.1-4.7
			c0.1-0.3,0.3-0.7,0.3-1.1s0.2-0.7,0.7-0.8c0.4-0.1,0.9-0.2,1.2-0.6c0.1,0,0.1-0.1,0.2-0.1c0.8,0.2,1.7,0.3,2.2,1
			c0.8,1.1,1.3,2.2,1.4,3.5C26.4,75,26.6,76.1,26.5,76.7z M18.6,84.1c0.6,0.3,1.4,0.4,2,0.8c0.2,0.1,0.6,0.1,0.8,0
			c0.3,0,0.5-0.2,0.6-0.5c0-0.3,0.1-0.6,0.1-0.9c0-1.9,0.1-3.8,0.2-5.7c0.1-0.8,0-1.5,0-2.3c0-0.1-0.1-0.1-0.1-0.1
			c-0.1-0.1-0.2,0-0.2,0.1c-0.4,0.9-0.8,1.8-1.2,2.7c-0.2,0.4-0.4,0.9-0.5,1.4c-0.1,0.6-0.3,1-0.5,1.6l-0.9,2.1
			C18.7,83.5,18.6,83.7,18.6,84.1z"/>
		<path d="M43.4,70.9c-0.3,0.4-0.3,0.9-0.8,1.2c-0.4,0.3-0.7,0.7-0.5,1.3c0.1,0.1,0,0.3-0.1,0.4s-0.2,0.1-0.3,0.1s-0.3,0.1-0.2,0.2
			c0,0.4-0.2,0.8-0.3,1.2c-0.1,0.1-0.1,0.3,0,0.4l0,0c-0.1,0.2-0.1,0.4-0.3,0.6c-0.5,0.8-1,1.6-1.3,2.5c-0.5,1.2-1,2.3-1.5,3.4
			c-0.6,1.7-1.3,3.3-2,5s-1.3,3.4-1.9,5c-0.1,0.4-0.3,0.7-0.4,1.1c-0.2,0.5-0.5,1-0.6,1.6s-0.4,1-1,1.3c-0.4,0.2-0.7,0.2-1,0
			c-0.4-0.3-0.8-0.6-1-0.9c-0.4-0.5-0.6-1.1-0.3-1.6c0.5-1.2,0.4-2.5,0.4-3.8c0-1.6-0.2-3.2-0.2-4.8c0-1.4,0-2.8,0.1-4.3
			c0.1-1.6,0.1-3.1,0.1-4.7c0-0.6,0-1.3,0-1.9c0-0.3,0.1-0.6,0.1-0.9c0.1-0.6,0.2-0.6,0.7-0.3c0.2,0.1,0.5,0.2,0.7,0.3
			c0.9,0.6,1.5,1.4,1.7,2.4c0.1,0.6,0.2,1.2,0.2,1.9c0,1.6,0,3.1-0.3,4.7c-0.1,0.5,0.1,0.9,0,1.5c0.4-0.3,0.8-0.5,1-0.9
			c0.5-1,1-1.9,1.5-2.8c0.3-0.6,0.7-1.2,1.1-1.8c0.2-0.3,0.3-0.6,0.5-0.8c0.4-0.8,1-1.5,1.5-2.3c0.1-0.3,0.4-0.4,0.7-0.4
			c0.1-0.3,0.3-0.4,0.5-0.4c-0.1,0-0.1,0.1,0,0.1s0.2-0.1,0.3-0.2c0.7-0.9,1.5-1.7,2.2-2.5C42.8,71.3,43.1,71.1,43.4,70.9z
			 M39.7,74.6c-0.1,0.1-0.2,0.3-0.2,0.4c0,0,0,0.1,0.1,0.1h0.1C39.9,75,39.9,74.8,39.7,74.6z M40.1,74.2
			C40.1,74.1,40.1,74.1,40.1,74.2L40.1,74.2z M41.2,75.3L41.2,75.3L41.2,75.3z"/>
		<path d="M53,76.7c0,2.1-0.2,3.7-0.3,5.3c0,0.2-0.1,0.5-0.1,0.7c-0.1,2.1-0.4,4.3-0.7,6.4c-0.1,0.5-0.1,1-0.2,1.5
			c0,0.7-0.1,1.3-0.3,1.9c-0.1,0.3-0.1,0.5-0.1,0.8c0,0.4,0,0.7-0.3,1c-0.2,0.2-0.2,0.7-0.2,1c0.1,0.9-0.3,1.5-0.9,2.1
			c-0.1,0.1-0.1,0.2-0.2,0.2c-0.2,0.2-0.3,0.1-0.5,0c-0.7-0.6-1.2-1.2-1.3-2.1c-0.1-0.8-0.2-1.6-0.1-2.5c0.1-0.6,0.1-1.1,0.1-1.7
			c0-1.3,0.2-2.6,0.2-3.8c0-0.2-0.1-0.3-0.3-0.3c-0.9,0.3-1.8,0.1-2.7-0.1C44.8,87,44.6,87,44.3,87c-0.5-0.1-0.5-0.1-0.7,0.3
			c-0.3,0.9-0.7,1.7-1,2.6c-0.6,1.4-1.1,2.9-1.7,4.3c-0.1,0.3-0.2,0.5-0.4,0.7c-0.3,0.7-1,1-1.7,1c-0.2,0-0.3,0-0.5-0.2
			c-0.4-0.5-0.8-1-1-1.6c0-0.1,0-0.1,0-0.2C37.9,93,38,92,38.4,91c0.5-1.3,1-2.7,1.5-4.1c0.2-0.6,0.3-1.2,0.8-1.7
			c0.2-0.3-0.3-0.8,0.2-1c0.4-0.2,0.5-0.6,0.6-0.9c0.4-0.9,0.8-1.8,1.2-2.7l1.9-4.4c0.7-1.6,1.5-3.1,2.1-4.7
			c0.1-0.3,0.3-0.7,0.3-1.1s0.2-0.7,0.7-0.8c0.4-0.1,0.9-0.2,1.2-0.6c0.1,0,0.1-0.1,0.2-0.1c0.8,0.2,1.7,0.3,2.2,1
			c0.8,1.1,1.3,2.2,1.4,3.5C52.9,75,53,76.1,53,76.7z M45.1,84.1c0.6,0.3,1.4,0.4,2,0.8c0.2,0.1,0.6,0.1,0.8,0
			c0.3,0,0.5-0.2,0.6-0.5c0-0.3,0.1-0.6,0.1-0.9c0-1.9,0.1-3.8,0.2-5.7c0.1-0.8,0-1.5,0-2.3c0-0.1-0.1-0.1-0.1-0.1
			c-0.1-0.1-0.2,0-0.2,0.1c-0.4,0.9-0.8,1.8-1.2,2.7c-0.2,0.4-0.4,0.9-0.5,1.4c-0.1,0.6-0.3,1-0.5,1.6l-0.9,2.1
			C45.2,83.5,45.1,83.7,45.1,84.1z"/>
		<path d="M73.9,74.1c-0.3,0.2-0.5,0.5-0.5,0.9c0,0.5-0.2,0.9-0.4,1.3c-0.6,1-1.1,2.1-1.7,3.1c-0.6,1.1-1,2.2-1.5,3.3
			c-0.1,0.1-0.1,0.3-0.1,0.4c0.1,0.8-0.3,1.3-0.5,2c-0.3,0.8-0.7,1.5-0.9,2.3c-0.3,1.3-0.9,2.6-1.1,4c0,0.2-0.1,0.5-0.2,0.7
			c-0.1,0.4-0.1,0.8,0.2,1.1c0.1,0.1,0.1,0.3,0.2,0.4c0.1,0.3,0,0.6-0.2,0.8c-0.3,0.3-0.6,0.4-1,0.5s-0.7,0.1-1.1-0.1
			c-0.3-0.2-0.6-0.2-0.9-0.3c-0.5-0.2-0.9-0.5-1.1-1c-0.4-1-0.7-2.1-0.8-3.2c-0.3-1.6-0.5-3.2-0.8-4.8c-0.1-0.5-0.3-0.9-0.4-1.4
			c0-0.1-0.1-0.1-0.2-0.1l-0.1,0.1c-0.2,1.2-0.4,2.3-0.6,3.5c-0.1,1.1-0.3,2.2-0.7,3.3c-0.1,0.3-0.2,0.7-0.3,1.1
			c0,0.1,0,0.3-0.1,0.4c-0.6,0.8-0.8,1.7-1.2,2.6c-0.2,0.5-0.3,1.1-0.5,1.6c-0.1,0.2-0.2,0.3-0.4,0.4c-0.1,0.1-0.2,0.1-0.3,0
			c-0.3-0.3-0.6-0.6-0.7-1c-0.2-0.8-0.4-1.5-0.4-2.3c-0.1-2-0.1-4,0.2-5.9s0.4-3.9,0.6-5.8l0.2-1.2c0.1-0.6,0.1-1.3,0.2-1.9
			c0.1-1,0.3-1.9,0.5-2.9c0.1-0.6,0.4-0.9,1-0.9s1.2-0.1,1.7,0c0.5,0.2,0.9,0.4,1.2,1c0.2,0.4,0.4,0.8,0.8,1c0.5,0.4,0.8,1,1,1.6
			c0.7,1.6,1.4,3.2,2,4.9c0.3,0.7,0.5,1.5,0.5,2.3c0,0.3,0,0.7,0.3,1c0.5-1,1.3-1.8,1.9-2.7c0.1-0.2,0.2-0.4,0.3-0.6
			c0.9-2.4,2.3-4.5,3.4-6.8c0-0.1,0.1-0.2,0.2-0.3c0.6-0.6,1.1-1.3,1.5-2.1C73.3,73.9,73.6,74,73.9,74.1z"/>
		<path d="M94.4,72.5c-0.6,0.3-1.2,0.5-1.8,0.7c-0.3,0.1-0.7,0.3-0.9,0.6c-0.6,0.7-1.4,1-2.1,1.4c-0.2,0.1-0.5,0.1-0.7,0.3
			c-1.2,0.9-2.6,1.3-3.9,1.9l-2.1,1c-0.4,0.2-0.7,0.4-0.7,0.9c0.1,1.8-0.3,3.6-0.7,5.3c0,0.2-0.1,0.4-0.1,0.6
			c-0.1,1.3-0.5,2.5-0.8,3.7c-0.4,1.4-0.7,2.8-1.1,4.2c-0.1,0.6-0.4,1-0.6,1.5c-0.3,0.6-0.6,1.3-1,1.9c-0.1,0.2-0.3,0.3-0.5,0.5
			c-0.4,0.3-0.9,0.1-1-0.4c-0.1-0.2-0.1-0.5-0.1-0.7c0-0.7,0.1-1.4,0.2-2c0.2-1,0.3-2,0.4-3c0.2-1.4,0.6-2.8,1-4.1
			c0.5-1.7,1-3.4,1.5-5c0.1-0.5,0.3-1,0.2-1.5c-0.3,0-0.6,0.1-0.8,0.3c-0.7,0.4-1.4,0.9-2.1,1.3c-1.1,0.6-2.2,1-3.4,1.1
			c-0.8,0.1-1.5-0.2-2.1-0.6c0,0-0.1,0-0.1-0.1c-0.1-0.6-0.4-0.9-0.8-1.3c-0.1-0.1-0.1-0.3,0.1-0.3c1.4-0.3,2.4-1.1,3.6-1.8l1.5-0.8
			c3.1-1.6,6.3-3,9.5-4.2c2.3-0.9,4.8-1.6,7.2-2.3c1-0.3,1.9-0.5,2.9-0.7c0.2,0,0.3,0,0.5,0l0.1,0.1c0,0.1,0,0.1-0.1,0.2
			s-0.1,0.1-0.2,0.2c-0.4,0.2-0.9,0.4-1.3,0.6c-0.3,0.1-0.3,0.2,0,0.4C94.2,72.4,94.3,72.4,94.4,72.5z"/>
	</g>
	<g>
		<path d="M17.8,19.5c0,0.3,0.4,0.4,0.1,0.7c0.1,0.6-0.1,1.1,0,1.7c0.2,1,0,1.9-0.4,2.7c-0.1,0.3-0.3,0.5-0.3,0.9
			c0,0.3-0.2,0.5-0.3,0.8c-0.3,0.4-0.5,0.7-0.6,1.2c0,0.1-0.1,0.3-0.2,0.5c-0.6,0.6-0.9,1.4-1.4,2.1c-0.8,1.2-2.7,1.8-4.1,1.3
			c-0.6-0.2-1.1-0.6-1.5-1.1c-0.8-1.2-1.3-2.5-1.6-3.9c-0.4-2-0.4-4-0.2-6.1c0-1.1,0.3-2.2,0.7-3.3c0.9-2.8,2-5.5,3.2-8.2
			c0.9-1.9,2-3.6,3.4-5.2c0.3-0.3,0.6-0.6,0.8-0.8c0.9-0.9,2.9-0.9,3.8-0.2C19.5,2.8,19.8,3,20,3.2c0.8,0.6,1.2,1.3,1.2,2.2
			c-0.1,1.9-0.5,3.7-1.2,5.5c-0.2,0.5-0.4,1-0.5,1.5c-0.2,0.8-0.8,1.4-1.4,1.9c-0.1,0.1-0.3,0.3-0.6,0.1c-0.2-0.1-0.3-0.3-0.2-0.6
			c0.2-0.3,0.2-0.7,0.2-1.1c0.1-1,0.4-2,0.8-2.9c0.5-1.2,0.6-2.5,0.4-3.7c-0.1-0.4,0-0.8,0-1.2c0-0.1-0.1-0.1-0.1-0.1
			c-0.1,0-0.2,0-0.2,0C17.8,5.4,17.2,6.1,17,7c-0.2,0.8-0.6,1.6-1,2.3c-1.1,2.2-2.2,4.4-3.1,6.6c-0.4,1-0.7,2.1-1,3.1
			c-0.4,1.3-0.8,2.6-1,3.9c-0.2,1.6-0.2,3.2,0.1,4.8c0,0.1,0,0.1,0.1,0.2c0.1,0.2,0.3,0.3,0.5,0.2c0.3-0.1,0.6-0.4,0.9-0.6
			c1.9-1.6,3.3-3.6,4.1-5.9C17,20.9,17.4,20.3,17.8,19.5z"/>
		<path d="M25.6,3.9c0,1.1-0.2,2.2-0.6,3.3c-0.1,0.3-0.2,0.6-0.2,0.8c0,0.6-0.3,1-0.5,1.5l-0.2,0.4C24.1,10,24,10,24,10
			c-0.2-0.1-0.4,0-0.6,0c-0.3-0.1-0.5-0.2-0.6-0.4c-0.2-0.8-0.3-1.5-0.3-2.2s0.1-1.5,0.3-2.1c0.1-0.6,0.2-1.1,0.3-1.7
			c0-0.2,0-0.5,0.1-0.8c0.6-0.3,1.1-0.2,1.6,0.2c0.3,0.2,0.6,0.3,0.7,0.6C25.6,3.6,25.6,3.8,25.6,3.9z"/>
		<path d="M27.2,23.4c0-1,0.2-1.9,0.3-2.8l0.3-1.5c0.1-0.3,0.1-0.5,0.2-0.7c0.2-0.5,0.4-1.1,0.3-1.7c0-0.2,0.1-0.4,0.1-0.6
			c0.4-1.7,0.9-3.3,1.4-4.9c0.1-0.5,0.3-0.9,0.4-1.4C30.4,9,30.7,8.4,31,7.7c0.1-0.2,0.2-0.3,0.5-0.3c0.1,0,0.3-0.1,0.4-0.1
			c0.6-0.2,1.2-0.3,1.7,0.2c0.1,0.1,0.3,0.1,0.5,0c0.1-0.1,0.2-0.1,0.3-0.1c1.9-1,4-1.6,6-2.5c0.8-0.3,1.6-0.5,2.4-0.8
			c0.4-0.1,0.9-0.3,1.3-0.4c0.2-0.1,0.5-0.1,0.7-0.1s0.4,0.3,0.3,0.5c-0.2,0.3-0.1,0.7-0.3,1s-0.4,0.5-0.5,0.8
			c0,0.1-0.3,0.2-0.5,0.3c-0.3,0.1-0.6,0.3-0.8,0.6c-0.4,0.5-1,0.8-1.5,1c-0.6,0.2-1.1,0.5-1.6,0.8c-1.5,0.8-3,1.6-4.5,2.1
			c-0.2,0.1-0.3,0.2-0.5,0.2c-0.7,0-0.9,0.5-1.1,1c-0.3,1-0.6,1.9-0.9,2.8l-0.5,1.7c0,0.2,0.1,0.3,0.3,0.3l2.2-0.6
			c0.6-0.1,1.2-0.2,1.8-0.2c0.2,0,0.3,0.1,0.3,0.4c0,0.2-0.1,0.4,0,0.6c0,0.1,0,0.1,0,0.2c-0.4,0.3-0.5,0.8-1,1
			c-0.3,0.1-0.6,0.3-0.6,0.7c-0.1,0.2-0.2,0.3-0.4,0.4c-0.6,0.3-1.2,0.6-1.9,0.8c-0.4,0.1-0.8,0.1-1.2,0c-0.4-0.1-0.5-0.1-0.6,0.4
			c-0.3,1.1-0.5,2.3-0.7,3.4c-0.1,0.2,0,0.4,0,0.6c0,0.1,0.2,0.2,0.3,0.1c0.2-0.1,0.5-0.3,0.7-0.5c1.6-1.2,3.3-2.2,5.1-3
			c0.5-0.2,1-0.4,1.5-0.4c0.4,0,0.4,0.1,0.6,0.5c0.2,0.5-0.1,0.9-0.1,1.3c0,0.3-0.3,0.6-0.6,0.8c-0.3,0.3-0.7,0.6-0.8,1
			c-0.1,0.1-0.2,0.1-0.3,0.2c-1.3,0.9-2.7,1.8-4,2.7c-0.6,0.4-1.2,0.6-1.9,0.8c-0.2,0.1-0.3,0-0.5,0c-0.9-0.1-1.6-0.4-2.2-1
			c-0.8-0.8-1.2-1.8-1.2-3C27.2,23.9,27.2,23.4,27.2,23.4z"/>
		<path d="M63,5.2c-0.6,0.3-1.2,0.5-1.8,0.7c-0.3,0.1-0.7,0.3-0.9,0.6c-0.6,0.7-1.4,1-2.1,1.4C58,8,57.7,8,57.5,8.2
			c-1.2,0.9-2.6,1.3-3.9,1.9l-2.1,1c-0.4,0.2-0.7,0.4-0.7,0.9c0.1,1.8-0.3,3.6-0.7,5.3c0,0.2-0.1,0.4-0.1,0.6
			c-0.1,1.3-0.5,2.5-0.8,3.7c-0.4,1.4-0.7,2.8-1.1,4.2c-0.1,0.6-0.4,1-0.6,1.5c-0.3,0.6-0.6,1.3-1,1.9c-0.1,0.2-0.3,0.3-0.5,0.5
			c-0.4,0.3-0.9,0.1-1-0.4c-0.1-0.2-0.1-0.5-0.1-0.7c0-0.7,0.1-1.4,0.2-2c0.2-1,0.3-2,0.4-3c0.2-1.4,0.6-2.8,1-4.1
			c0.5-1.7,1-3.4,1.5-5c0.1-0.5,0.3-1,0.2-1.5c-0.3,0-0.6,0.1-0.8,0.3c-0.7,0.4-1.4,0.9-2.1,1.3c-1.1,0.6-2.2,1-3.4,1.1
			c-0.8,0.1-1.5-0.2-2.1-0.6c0,0-0.1,0-0.1-0.1c-0.1-0.6-0.4-0.9-0.8-1.3c-0.1-0.1-0.1-0.3,0.1-0.3c1.4-0.3,2.4-1.1,3.6-1.8l1.5-0.8
			c3.1-1.6,6.3-3,9.5-4.2c2.3-0.9,4.8-1.6,7.2-2.3c1-0.3,1.9-0.5,2.9-0.7c0.2,0,0.3,0,0.5,0l0.1,0.1c0,0.1,0,0.1-0.1,0.2
			C64.1,4,64.1,4,64,4.1c-0.4,0.2-0.9,0.4-1.3,0.6c-0.3,0.1-0.3,0.2,0,0.4C62.9,5.1,62.9,5.1,63,5.2z"/>
		<path d="M67.5,9.4c0,2.1-0.2,3.7-0.3,5.3c0,0.2-0.1,0.5-0.1,0.7c-0.1,2.1-0.4,4.3-0.7,6.4c-0.1,0.5-0.1,1-0.2,1.5
			c0,0.7-0.1,1.3-0.3,1.9c-0.1,0.3-0.1,0.5-0.1,0.8c0,0.4,0,0.7-0.3,1c-0.2,0.2-0.2,0.7-0.2,1c0.1,0.9-0.3,1.5-0.9,2.1
			c-0.1,0.1-0.1,0.2-0.2,0.2c-0.2,0.2-0.3,0.1-0.5,0c-0.7-0.6-1.2-1.2-1.3-2.1c-0.1-0.8-0.2-1.6-0.1-2.5c0.1-0.6,0.1-1.1,0.1-1.7
			c0-1.3,0.2-2.6,0.2-3.8c0-0.2-0.1-0.3-0.3-0.3c-0.9,0.3-1.8,0.1-2.7-0.1c-0.3-0.1-0.5-0.1-0.8-0.1c-0.5-0.1-0.5-0.1-0.7,0.3
			c-0.3,0.9-0.7,1.7-1,2.6c-0.6,1.4-1.1,2.9-1.7,4.3c-0.1,0.3-0.2,0.5-0.4,0.7c-0.3,0.7-1,1-1.7,1c-0.2,0-0.3,0-0.5-0.2
			c-0.4-0.5-0.8-1-1-1.6c0-0.1,0-0.1,0-0.2c0.6-0.9,0.7-1.9,1.1-2.9c0.5-1.3,1-2.7,1.5-4.1c0.2-0.6,0.3-1.2,0.8-1.7
			c0.2-0.3-0.3-0.8,0.2-1c0.4-0.2,0.5-0.6,0.6-0.9c0.4-0.9,0.8-1.8,1.2-2.7l1.9-4.4c0.7-1.6,1.5-3.1,2.1-4.7
			c0.1-0.3,0.3-0.7,0.3-1.1s0.2-0.7,0.7-0.8c0.4-0.1,0.9-0.2,1.2-0.6c0.1,0,0.1-0.1,0.2-0.1c0.8,0.2,1.7,0.3,2.2,1
			c0.8,1.1,1.3,2.2,1.4,3.5C67.4,7.7,67.6,8.8,67.5,9.4z M59.6,16.7c0.6,0.3,1.4,0.4,2,0.8c0.2,0.1,0.6,0.1,0.8,0
			c0.3,0,0.5-0.2,0.6-0.5c0-0.3,0.1-0.6,0.1-0.9c0-1.9,0.1-3.8,0.2-5.7c0.1-0.8,0-1.5,0-2.3C63.3,8,63.2,8,63.2,8
			C63.1,7.9,63,8,63,8.1c-0.6,0.9-1,1.9-1.4,2.8c-0.2,0.4-0.4,0.9-0.5,1.4c-0.1,0.6-0.3,1-0.5,1.6L59.7,16
			C59.7,16.1,59.6,16.4,59.6,16.7z"/>
		<path d="M71.1,32.2c-0.6-0.8-0.9-1.6-1-2.5c0-0.1-0.1-0.3,0-0.4c0.2-1.7,0.1-3.5,0.1-5.2c0-1.6,0-3.2,0-4.9c0.1-2.5,0.1-5,0.4-7.5
			c0.2-1.3,0.3-2.7,0.5-4c0-0.3,0-0.7,0-1c0-0.8,0-1.6,0-2.4c0-0.3,0.1-0.5,0.3-0.7c0.1-0.1,0.2-0.1,0.3-0.1
			c0.8-0.2,1.7-0.5,2.6-0.1c0.8,0.4,1.3,1.1,1.3,2.3c0.1,1.5,0,3.1-0.2,4.6s-0.5,3-0.8,4.5c-0.3,1.7-0.5,3.5-0.7,5.2
			c-0.1,0.6-0.1,1.3-0.2,1.9c-0.1,1.3-0.3,2.7-0.5,4c-0.1,0.6-0.1,1.2-0.3,1.8c-0.1,0.2-0.1,0.6-0.2,0.6c-0.3,0.2-0.3,0.7-0.6,0.9
			c-0.2,0.2-0.4,0.4-0.4,0.8C71.7,30.7,71.4,31.4,71.1,32.2z"/>
		<path d="M98.4,5.2c-0.6,0.3-1.2,0.5-1.8,0.7C96.3,6,96,6.2,95.7,6.5c-0.6,0.7-1.4,1-2.1,1.4C93.4,8,93.1,8,92.9,8.2
			C91.7,9,90.3,9.5,89,10.1L87,11c-0.4,0.2-0.7,0.4-0.7,0.9c0.1,1.8-0.3,3.6-0.7,5.3c0,0.2-0.1,0.4-0.1,0.6
			c-0.1,1.3-0.5,2.5-0.8,3.7c-0.4,1.4-0.7,2.8-1.1,4.2c-0.1,0.6-0.4,1-0.6,1.5c-0.3,0.6-0.6,1.3-1,1.9c-0.1,0.2-0.3,0.3-0.5,0.5
			c-0.4,0.3-0.9,0.1-1-0.4c-0.1-0.2-0.1-0.5-0.1-0.7c0-0.7,0.1-1.4,0.2-2c0.2-1,0.3-2,0.4-3c0.2-1.4,0.6-2.8,1-4.1
			c0.5-1.7,1-3.4,1.5-5c0.1-0.5,0.3-1,0.2-1.5c-0.3,0-0.6,0.1-0.8,0.3c-0.7,0.4-1.4,0.9-2.1,1.3c-1.1,0.6-2.2,1-3.4,1.1
			c-0.8,0.1-1.5-0.2-2.1-0.6c0,0-0.1,0-0.1-0.1c-0.1-0.6-0.4-0.9-0.8-1.3c-0.1-0.1-0.1-0.3,0.1-0.3c1.4-0.3,2.4-1.1,3.6-1.8l1.5-0.8
			c3.1-1.6,6.3-3,9.5-4.2c2.3-0.9,4.8-1.6,7.2-2.3c1-0.3,1.9-0.5,2.9-0.7c0.2,0,0.3,0,0.5,0l0.1,0.1c0,0.1,0,0.1-0.1,0.2
			c-0.1,0.1-0.1,0.1-0.2,0.2c-0.4,0.2-0.9,0.4-1.3,0.6c-0.3,0.1-0.3,0.2,0,0.4C98.3,5.1,98.4,5.1,98.4,5.2z"/>
	</g>
	<g>
		<path d="M30.3,61.2h-1.5v-18l-7.5,12.5H21l-7.5-12.5v18H12V40.9h1.9l7.3,12l7.3-12h1.9v20.3H30.3z"/>
		<path d="M36.9,40.9v20.3h-1.5V40.9H36.9z"/>
		<path d="M53.6,59.8v1.5H42V40.9h11.5v1.5h-10v7.9h9.3v1.5h-9.3v8.1h10.1V59.8z"/>
		<path d="M57.1,54.4V40.9h1.5v13.5c0,3.3,2.1,5.6,5.9,5.6c3.9,0,5.9-2.3,5.9-5.6V40.9H72v13.5c0,4.3-3,7.1-7.5,7.1
			C60.1,61.5,57.1,58.7,57.1,54.4z"/>
		<path d="M88.1,61.2l-5.9-9.1l-5.9,9.1h-1.8l6.8-10.4L75,40.9h1.8l5.5,8.5l5.5-8.5h1.8l-6.4,9.9L90,61.2
			C90,61.2,88.1,61.2,88.1,61.2z"/>
	</g>
</g>
</svg>
