<?xml version="1.0" encoding="utf-8"?>
<!-- Generator: Adobe Illustrator 20.1.0, SVG Export Plug-In . SVG Version: 6.00 Build 0)  -->
<svg version="1.1" id="Calque_1" xmlns="http://www.w3.org/2000/svg" xmlns:xlink="http://www.w3.org/1999/xlink" x="0px" y="0px"
	 viewBox="0 0 270 33" style="enable-background:new 0 0 270 33;" xml:space="preserve">
<style type="text/css">
	.st0{fill:none;}
</style>
<g id="Long">
	<g>
		<rect class="st0" width="270" height="33"/>
	</g>
	<g>
		<path d="M200.5,9c0,2.1-0.2,3.7-0.3,5.3c0,0.2-0.1,0.5-0.1,0.7c-0.1,2.1-0.4,4.3-0.7,6.4c-0.1,0.5-0.1,1-0.2,1.5
			c0,0.7-0.1,1.3-0.3,1.9c-0.1,0.3-0.1,0.5-0.1,0.8c0,0.4,0,0.7-0.3,1c-0.2,0.2-0.2,0.7-0.2,1c0.1,0.9-0.3,1.5-0.9,2.1
			c-0.1,0.1-0.1,0.2-0.2,0.2c-0.2,0.2-0.3,0.1-0.5,0c-0.7-0.6-1.2-1.2-1.3-2.1c-0.1-0.8-0.2-1.6-0.1-2.5c0.1-0.6,0.1-1.1,0.1-1.7
			c0-1.3,0.2-2.6,0.2-3.8c0-0.2-0.1-0.3-0.3-0.3c-0.9,0.3-1.8,0.1-2.7-0.1c-0.3-0.1-0.5-0.1-0.8-0.1c-0.5-0.1-0.5-0.1-0.7,0.3
			c-0.3,0.9-0.7,1.7-1,2.6c-0.6,1.4-1.1,2.9-1.7,4.3c-0.1,0.3-0.2,0.5-0.4,0.7c-0.3,0.7-1,1-1.7,1c-0.2,0-0.3,0-0.5-0.2
			c-0.4-0.5-0.8-1-1-1.6c0-0.1,0-0.1,0-0.2c0.6-0.9,0.7-1.9,1.1-2.9c0.5-1.3,1-2.7,1.5-4.1c0.2-0.6,0.3-1.2,0.8-1.7
			c0.2-0.3-0.3-0.8,0.2-1c0.4-0.2,0.5-0.6,0.6-0.9c0.4-0.9,0.8-1.8,1.2-2.7l1.9-4.4c0.7-1.6,1.5-3.1,2.1-4.7
			c0.1-0.3,0.3-0.7,0.3-1.1s0.2-0.7,0.7-0.8c0.4-0.1,0.9-0.2,1.2-0.6c0.1,0,0.1-0.1,0.2-0.1c0.8,0.2,1.7,0.3,2.2,1
			c0.8,1.1,1.3,2.2,1.4,3.5C200.3,7.2,200.5,8.4,200.5,9z M192.5,16.3c0.6,0.3,1.4,0.4,2,0.8c0.2,0.1,0.6,0.1,0.8,0
			c0.3,0,0.5-0.2,0.6-0.5c0-0.3,0.1-0.6,0.1-0.9c0-1.9,0.1-3.8,0.2-5.7c0.1-0.8,0-1.5,0-2.3c0-0.1-0.1-0.1-0.1-0.1
			c-0.1-0.1-0.2,0-0.2,0.1c-0.4,0.9-0.8,1.8-1.2,2.7c-0.2,0.4-0.4,0.9-0.5,1.4c-0.1,0.6-0.3,1-0.5,1.6l-0.9,2.1
			C192.6,15.7,192.5,16,192.5,16.3z"/>
		<path d="M217.3,3.1C217,3.6,217,4,216.5,4.4c-0.4,0.3-0.7,0.7-0.5,1.3c0.1,0.1,0,0.3-0.1,0.4s-0.2,0.1-0.3,0.1s-0.3,0.1-0.2,0.2
			c0,0.4-0.2,0.8-0.3,1.2c-0.1,0.1-0.1,0.3,0,0.4l0,0c-0.1,0.2-0.1,0.4-0.3,0.6c-0.5,0.8-1,1.6-1.3,2.5c-0.5,1.2-1,2.3-1.5,3.4
			c-0.6,1.7-1.3,3.3-2,5s-1.3,3.4-1.9,5c-0.1,0.4-0.3,0.7-0.4,1.1c-0.2,0.5-0.5,1-0.6,1.6s-0.4,1-1,1.3c-0.4,0.2-0.7,0.2-1,0
			c-0.4-0.3-0.8-0.6-1-0.9c-0.4-0.5-0.6-1.1-0.3-1.6c0.5-1.2,0.4-2.5,0.4-3.8c0-1.6-0.2-3.2-0.2-4.8c0-1.4,0-2.8,0.1-4.3
			c0.1-1.6,0.1-3.1,0.1-4.7c0-0.6,0-1.3,0-1.9c0-0.3,0.1-0.6,0.1-0.9c0.1-0.6,0.2-0.6,0.7-0.3c0.2,0.1,0.5,0.2,0.7,0.3
			c0.9,0.6,1.5,1.4,1.7,2.4c0.1,0.6,0.2,1.2,0.2,1.9c0,1.6,0,3.1-0.3,4.7c-0.1,0.5,0.1,0.9,0,1.5c0.4-0.3,0.8-0.5,1-0.9
			c0.5-1,1-1.9,1.5-2.8c0.3-0.6,0.7-1.2,1.1-1.8c0.2-0.3,0.3-0.6,0.5-0.8c0.4-0.8,1-1.5,1.5-2.3c0.1-0.3,0.4-0.4,0.7-0.4
			c0.1-0.3,0.3-0.4,0.5-0.4c-0.1,0-0.1,0.1,0,0.1s0.2-0.1,0.3-0.2c0.7-0.9,1.5-1.7,2.2-2.5C216.7,3.6,217,3.3,217.3,3.1z M213.6,6.8
			c-0.1,0.1-0.2,0.3-0.2,0.4c0,0,0,0.1,0.1,0.1h0.1C213.8,7.2,213.8,7,213.6,6.8z M214.1,6.4L214.1,6.4L214.1,6.4z M215.1,7.5
			L215.1,7.5L215.1,7.5z"/>
		<path d="M226.9,9c0,2.1-0.2,3.7-0.3,5.3c0,0.2-0.1,0.5-0.1,0.7c-0.1,2.1-0.4,4.3-0.7,6.4c-0.1,0.5-0.1,1-0.2,1.5
			c0,0.7-0.1,1.3-0.3,1.9c-0.1,0.3-0.1,0.5-0.1,0.8c0,0.4,0,0.7-0.3,1c-0.2,0.2-0.2,0.7-0.2,1c0.1,0.9-0.3,1.5-0.9,2.1
			c-0.1,0.1-0.1,0.2-0.2,0.2c-0.2,0.2-0.3,0.1-0.5,0c-0.7-0.6-1.2-1.2-1.3-2.1c-0.1-0.8-0.2-1.6-0.1-2.5c0.1-0.6,0.1-1.1,0.1-1.7
			c0-1.3,0.2-2.6,0.2-3.8c0-0.2-0.1-0.3-0.3-0.3c-0.9,0.3-1.8,0.1-2.7-0.1c-0.3-0.1-0.5-0.1-0.8-0.1c-0.5-0.1-0.5-0.1-0.7,0.3
			c-0.3,0.9-0.7,1.7-1,2.6c-0.6,1.4-1.1,2.9-1.7,4.3c-0.1,0.3-0.2,0.5-0.4,0.7c-0.3,0.7-1,1-1.7,1c-0.2,0-0.3,0-0.5-0.2
			c-0.4-0.5-0.8-1-1-1.6c0-0.1,0-0.1,0-0.2c0.6-0.9,0.7-1.9,1.1-2.9c0.5-1.3,1-2.7,1.5-4.1c0.2-0.6,0.3-1.2,0.8-1.7
			c0.2-0.3-0.3-0.8,0.2-1c0.4-0.2,0.5-0.6,0.6-0.9c0.4-0.9,0.8-1.8,1.2-2.7l1.9-4.4c0.7-1.6,1.5-3.1,2.1-4.7
			c0.1-0.3,0.3-0.7,0.3-1.1s0.2-0.7,0.7-0.8c0.4-0.1,0.9-0.2,1.2-0.6c0.1,0,0.1-0.1,0.2-0.1c0.8,0.2,1.7,0.3,2.2,1
			c0.8,1.1,1.3,2.2,1.4,3.5C226.8,7.2,227,8.4,226.9,9z M219,16.3c0.6,0.3,1.4,0.4,2,0.8c0.2,0.1,0.6,0.1,0.8,0
			c0.3,0,0.5-0.2,0.6-0.5c0-0.3,0.1-0.6,0.1-0.9c0-1.9,0.1-3.8,0.2-5.7c0.1-0.8,0-1.5,0-2.3c0-0.1-0.1-0.1-0.1-0.1
			c-0.1-0.1-0.2,0-0.2,0.1c-0.4,0.9-0.8,1.8-1.2,2.7c-0.2,0.4-0.4,0.9-0.5,1.4c-0.1,0.6-0.3,1-0.5,1.6l-0.9,2.1
			C219.1,15.7,219,16,219,16.3z"/>
		<path d="M247.9,6.4c-0.3,0.2-0.5,0.5-0.5,0.9c0,0.5-0.2,0.9-0.4,1.3c-0.6,1-1.1,2.1-1.7,3.1c-0.6,1.1-1,2.2-1.5,3.3
			c-0.1,0.1-0.1,0.3-0.1,0.4c0.1,0.8-0.3,1.3-0.5,2c-0.3,0.8-0.7,1.5-0.9,2.3c-0.3,1.3-0.9,2.6-1.1,4c0,0.2-0.1,0.5-0.2,0.7
			c-0.1,0.4-0.1,0.8,0.2,1.1c0.1,0.1,0.1,0.3,0.2,0.4c0.1,0.3,0,0.6-0.2,0.8c-0.3,0.3-0.6,0.4-1,0.5s-0.7,0.1-1.1-0.1
			c-0.3-0.2-0.6-0.2-0.9-0.3c-0.5-0.2-0.9-0.5-1.1-1c-0.4-1-0.7-2.1-0.8-3.2c-0.3-1.6-0.5-3.2-0.8-4.8c-0.1-0.5-0.3-0.9-0.4-1.4
			c0-0.1-0.1-0.1-0.2-0.1l-0.1,0.1c-0.2,1.2-0.4,2.3-0.6,3.5c-0.1,1.1-0.3,2.2-0.7,3.3c-0.1,0.3-0.2,0.7-0.3,1.1
			c0,0.1,0,0.3-0.1,0.4c-0.6,0.8-0.8,1.7-1.2,2.6c-0.2,0.5-0.3,1.1-0.5,1.6c-0.1,0.2-0.2,0.3-0.4,0.4c-0.1,0.1-0.2,0.1-0.3,0
			c-0.3-0.3-0.6-0.6-0.7-1c-0.2-0.8-0.4-1.5-0.4-2.3c-0.1-2-0.1-4,0.2-5.9s0.4-3.9,0.6-5.8l0.2-1.2c0.1-0.6,0.1-1.3,0.2-1.9
			c0.1-1,0.3-1.9,0.5-2.9c0.1-0.6,0.4-0.9,1-0.9s1.2-0.1,1.7,0c0.5,0.2,0.9,0.4,1.2,1c0.2,0.4,0.4,0.8,0.8,1c0.5,0.4,0.8,1,1,1.6
			c0.7,1.6,1.4,3.2,2,4.9c0.3,0.7,0.5,1.5,0.5,2.3c0,0.3,0,0.7,0.3,1c0.5-1,1.3-1.8,1.9-2.7c0.1-0.2,0.2-0.4,0.3-0.6
			c0.9-2.4,2.3-4.5,3.4-6.8c0-0.1,0.1-0.2,0.2-0.3c0.6-0.6,1.1-1.3,1.5-2.1C247.2,6.2,247.5,6.2,247.9,6.4z"/>
		<path d="M268.3,4.7c-0.6,0.3-1.2,0.5-1.8,0.7c-0.3,0.1-0.7,0.3-0.9,0.6c-0.6,0.7-1.4,1-2.1,1.4c-0.2,0.1-0.5,0.1-0.7,0.3
			c-1.2,0.9-2.6,1.3-3.9,1.9l-2.1,1c-0.4,0.2-0.7,0.4-0.7,0.9c0.1,1.8-0.3,3.6-0.7,5.3c0,0.2-0.1,0.4-0.1,0.6
			c-0.1,1.3-0.5,2.5-0.8,3.7c-0.4,1.4-0.7,2.8-1.1,4.2c-0.1,0.6-0.4,1-0.6,1.5c-0.3,0.6-0.6,1.3-1,1.9c-0.1,0.2-0.3,0.3-0.5,0.5
			c-0.4,0.3-0.9,0.1-1-0.4c-0.1-0.2-0.1-0.5-0.1-0.7c0-0.7,0.1-1.4,0.2-2c0.2-1,0.3-2,0.4-3c0.2-1.4,0.6-2.8,1-4.1
			c0.5-1.7,1-3.4,1.5-5c0.1-0.5,0.3-1,0.2-1.5c-0.3,0-0.6,0.1-0.8,0.3c-0.7,0.4-1.4,0.9-2.1,1.3c-1.1,0.6-2.2,1-3.4,1.1
			c-0.8,0.1-1.5-0.2-2.1-0.6c0,0-0.1,0-0.1-0.1c-0.1-0.6-0.4-0.9-0.8-1.3c-0.1-0.1-0.1-0.3,0.1-0.3c1.4-0.3,2.4-1.1,3.6-1.8l1.5-0.8
			c3.1-1.6,6.3-3,9.5-4.2c2.3-0.9,4.8-1.6,7.2-2.3c1-0.3,1.9-0.5,2.9-0.7c0.2,0,0.3,0,0.5,0l0.1,0.1c0,0.1,0,0.1-0.1,0.2
			c-0.1,0.1-0.1,0.1-0.2,0.2c-0.4,0.2-0.9,0.4-1.3,0.6c-0.3,0.1-0.3,0.2,0,0.4C268.1,4.7,268.2,4.7,268.3,4.7z"/>
	</g>
	<g>
		<path d="M115.8,26.5h-1.5v-18L106.8,21h-0.3L99,8.5v18h-1.5V6.2h1.9l7.3,12l7.3-12h1.9v20.3H115.8z"/>
		<path d="M122.4,6.2v20.3h-1.5V6.2H122.4z"/>
		<path d="M139.1,25.1v1.5h-11.7V6.2H139v1.5h-10v7.9h9.3V17H129v8.1H139.1z"/>
		<path d="M142.6,19.8V6.2h1.5v13.5c0,3.3,2.1,5.6,5.9,5.6c3.9,0,5.9-2.3,5.9-5.6V6.2h1.5v13.5c0,4.3-3,7.1-7.5,7.1
			C145.6,26.9,142.6,24.1,142.6,19.8z"/>
		<path d="M173.6,26.5l-5.9-9.1l-5.9,9.1H160l6.8-10.4l-6.4-9.9h1.8l5.5,8.5l5.5-8.5h1.8l-6.4,9.9l6.8,10.4H173.6z"/>
	</g>
	<g>
		<path d="M13.2,19.5c0,0.3,0.4,0.4,0.1,0.7c0.1,0.6-0.1,1.1,0,1.7c0.2,1,0,1.9-0.4,2.7c-0.1,0.3-0.3,0.5-0.3,0.9
			c0,0.3-0.2,0.5-0.3,0.8c-0.3,0.4-0.5,0.7-0.6,1.2c0,0.1-0.1,0.3-0.2,0.5c-0.6,0.6-0.9,1.4-1.4,2.1c-0.8,1.2-2.7,1.8-4.1,1.3
			c-0.6-0.2-1.1-0.6-1.5-1.1c-0.8-1.2-1.3-2.5-1.6-3.9c-0.4-2-0.4-4-0.2-6.1c0-1.1,0.3-2.2,0.7-3.3c0.9-2.8,2-5.5,3.2-8.2
			C7.5,7,8.7,5.2,10,3.6c0.3-0.3,0.6-0.6,0.8-0.8c0.9-0.9,2.9-0.9,3.8-0.2c0.3,0.2,0.6,0.4,0.8,0.6c0.8,0.6,1.2,1.3,1.2,2.2
			c-0.1,1.9-0.5,3.7-1.2,5.5c-0.2,0.5-0.4,1-0.5,1.5c-0.2,0.8-0.8,1.4-1.4,1.9c-0.1,0.1-0.3,0.3-0.6,0.1c-0.2-0.1-0.3-0.3-0.2-0.6
			c0.2-0.3,0.2-0.7,0.2-1.1c0.1-1,0.4-2,0.8-2.9c0.5-1.2,0.6-2.5,0.4-3.7c-0.1-0.4,0-0.8,0-1.2c0-0.1-0.1-0.1-0.1-0.1
			c-0.1,0-0.2,0-0.2,0c-0.6,0.7-1.2,1.4-1.4,2.2s-0.6,1.6-1,2.3c-1.1,2.2-2.2,4.4-3.1,6.6c-0.4,1-0.7,2.1-1,3.1
			c-0.4,1.3-0.8,2.6-1,3.9c-0.2,1.6-0.2,3.2,0.1,4.8c0,0.1,0,0.1,0.1,0.2c0.1,0.2,0.3,0.3,0.5,0.2c0.4-0.1,0.7-0.3,1-0.6
			c1.9-1.6,3.3-3.6,4.1-5.9C12.4,20.9,12.8,20.3,13.2,19.5z"/>
		<path d="M21,3.9c0,1.1-0.2,2.2-0.6,3.3c-0.1,0.3-0.2,0.6-0.2,0.8c0,0.6-0.3,1-0.5,1.5l-0.2,0.4c0,0.1-0.1,0.1-0.1,0.1
			c-0.2-0.1-0.4,0-0.6,0c-0.3-0.1-0.5-0.2-0.6-0.4C18.1,8.8,18,8,18,7.3s0.1-1.5,0.3-2.1c0.1-0.6,0.2-1.1,0.3-1.7
			c0-0.2,0-0.5,0.1-0.8c0.6-0.3,1.1-0.2,1.6,0.2c0.3,0.2,0.6,0.3,0.7,0.6C21,3.6,21,3.8,21,3.9z"/>
		<path d="M22.6,23.4c0-1,0.2-1.9,0.3-2.8l0.3-1.5c0.1-0.3,0.1-0.5,0.2-0.7c0.2-0.5,0.4-1.1,0.3-1.7c0-0.2,0.1-0.4,0.1-0.6
			c0.4-1.7,0.9-3.3,1.4-4.9c0.1-0.5,0.3-0.9,0.4-1.4c0.2-0.6,0.5-1.3,0.7-1.9c0.1-0.2,0.2-0.3,0.5-0.3c0.1,0,0.3-0.1,0.4-0.1
			c0.7-0.4,1.3-0.5,1.8,0c0.1,0.1,0.3,0.1,0.5,0c0.1-0.1,0.2-0.1,0.3-0.1c1.9-1,4-1.6,6-2.5c0.8-0.3,1.6-0.5,2.4-0.8
			c0.4-0.1,0.9-0.3,1.3-0.4c0.2-0.1,0.5-0.1,0.7-0.1s0.4,0.3,0.3,0.5c-0.2,0.3-0.1,0.7-0.3,1s-0.4,0.5-0.5,0.8
			c-0.1,0.2-0.3,0.3-0.6,0.4s-0.6,0.3-0.8,0.6c-0.4,0.5-1,0.8-1.5,1c-0.6,0.2-1.1,0.5-1.6,0.8c-1.5,0.8-3,1.6-4.5,2.1
			c-0.2,0.1-0.3,0.2-0.5,0.2c-0.7,0-0.9,0.5-1.1,1c-0.3,1-0.6,1.9-0.9,2.8l-0.5,1.7c0,0.2,0.1,0.3,0.3,0.3l2.2-0.6
			c0.6-0.1,1.2-0.2,1.8-0.2c0.2,0,0.3,0.1,0.3,0.4c0,0.2-0.1,0.4,0,0.6c0,0.1,0,0.1,0,0.2c-0.4,0.3-0.5,0.8-1,1
			c-0.3,0.1-0.6,0.3-0.6,0.7c-0.1,0.2-0.2,0.3-0.4,0.4c-0.6,0.3-1.2,0.6-1.9,0.8c-0.4,0.1-0.8,0.1-1.2,0c-0.4-0.1-0.5-0.1-0.6,0.4
			c-0.3,1.1-0.5,2.3-0.7,3.4c-0.1,0.2,0,0.4,0,0.6c0,0.1,0.2,0.2,0.3,0.1c0.2-0.1,0.5-0.3,0.7-0.5c1.6-1.2,3.3-2.2,5.1-3
			c0.5-0.2,1-0.4,1.5-0.4c0.4,0,0.4,0.1,0.6,0.5c0.2,0.5-0.1,0.9-0.1,1.3c0,0.3-0.3,0.6-0.6,0.8c-0.3,0.3-0.7,0.6-0.8,1
			c-0.1,0.1-0.2,0.1-0.3,0.2c-1.3,0.9-2.7,1.8-4,2.7c-0.6,0.4-1.2,0.6-1.9,0.8c-0.2,0.1-0.3,0-0.5,0c-0.9-0.1-1.6-0.4-2.2-1
			c-0.8-0.8-1.2-1.8-1.2-3L22.6,23.4L22.6,23.4z"/>
		<path d="M58.4,5.2c-0.6,0.3-1.2,0.5-1.8,0.7C56.3,6,56,6.2,55.7,6.5c-0.6,0.7-1.4,1-2.1,1.4C53.4,8,53.1,8,52.9,8.2
			C51.7,9,50.3,9.5,49,10.1L47,11c-0.4,0.2-0.7,0.4-0.7,0.9c0.1,1.8-0.3,3.6-0.7,5.3c0,0.2-0.1,0.4-0.1,0.6
			c-0.1,1.3-0.5,2.5-0.8,3.7c-0.4,1.4-0.7,2.8-1.1,4.2c-0.1,0.6-0.4,1-0.6,1.5c-0.3,0.6-0.6,1.3-1,1.9c-0.1,0.2-0.3,0.3-0.5,0.5
			c-0.4,0.3-0.9,0.1-1-0.4c-0.1-0.2-0.1-0.5-0.1-0.7c0-0.7,0.1-1.4,0.2-2c0.2-1,0.3-2,0.4-3c0.2-1.4,0.6-2.8,1-4.1
			c0.5-1.7,1-3.4,1.5-5c0.1-0.5,0.3-1,0.2-1.5c-0.3,0-0.6,0.1-0.8,0.3c-0.7,0.4-1.4,0.9-2.1,1.3c-1.1,0.6-2.2,1-3.4,1.1
			c-0.8,0.1-1.5-0.2-2.1-0.6c0,0-0.1,0-0.1-0.1c-0.1-0.6-0.4-0.9-0.8-1.3c-0.1-0.1-0.1-0.3,0.1-0.3c1.4-0.3,2.4-1.1,3.6-1.8l1.5-0.8
			c3.1-1.6,6.3-3,9.5-4.2c2.3-0.9,4.8-1.6,7.2-2.3c1-0.3,1.9-0.5,2.9-0.7c0.2,0,0.3,0,0.5,0l0.1,0.1c0,0.1,0,0.1-0.1,0.2
			c-0.1,0.1-0.1,0.1-0.2,0.2c-0.4,0.2-0.9,0.4-1.3,0.6C58,4.7,58,4.8,58.2,5C58.3,5.1,58.4,5.1,58.4,5.2z"/>
		<path d="M62.9,9.4c0,2.1-0.2,3.7-0.3,5.3c0,0.2-0.1,0.5-0.1,0.7c-0.1,2.1-0.4,4.3-0.7,6.4c-0.1,0.5-0.1,1-0.2,1.5
			c0,0.7-0.1,1.3-0.3,1.9c-0.1,0.3-0.1,0.5-0.1,0.8c0,0.4,0,0.7-0.3,1c-0.2,0.2-0.2,0.7-0.2,1c0.1,0.9-0.3,1.5-0.9,2.1
			c-0.1,0.1-0.1,0.2-0.2,0.2c-0.2,0.2-0.3,0.1-0.5,0c-0.7-0.6-1.2-1.2-1.3-2.1c-0.1-0.8-0.2-1.6-0.1-2.5c0.1-0.6,0.1-1.1,0.1-1.7
			c0-1.3,0.2-2.6,0.2-3.8c0-0.2-0.1-0.3-0.3-0.3c-0.9,0.3-1.8,0.1-2.7-0.1c-0.3-0.1-0.5-0.1-0.8-0.1c-0.5-0.1-0.5-0.1-0.7,0.3
			c-0.3,0.9-0.7,1.7-1,2.6c-0.6,1.4-1.1,2.9-1.7,4.3c-0.1,0.3-0.2,0.5-0.4,0.7c-0.3,0.7-1,1-1.7,1c-0.2,0-0.3,0-0.5-0.2
			c-0.4-0.5-0.8-1-1-1.6c0-0.1,0-0.1,0-0.2c0.6-0.9,0.7-1.9,1.1-2.9c0.5-1.3,1-2.7,1.5-4.1c0.2-0.6,0.3-1.2,0.8-1.7
			c0.2-0.3-0.3-0.8,0.2-1c0.4-0.2,0.5-0.6,0.6-0.9c0.4-0.9,0.8-1.8,1.2-2.7l1.9-4.4c0.7-1.6,1.5-3.1,2.1-4.7
			c0.1-0.3,0.3-0.7,0.3-1.1s0.2-0.7,0.7-0.8c0.4-0.1,0.9-0.2,1.2-0.6C58.9,2,59,1.9,59.1,2c0.8,0.2,1.7,0.3,2.2,1
			c0.8,1.1,1.3,2.2,1.4,3.5C62.8,7.7,63,8.8,62.9,9.4z M55,16.7c0.6,0.3,1.4,0.4,2,0.8c0.2,0.1,0.6,0.1,0.8,0c0.3,0,0.5-0.2,0.6-0.5
			c0-0.3,0.1-0.6,0.1-0.9c0-1.9,0.1-3.8,0.2-5.7c0.1-0.8,0-1.5,0-2.3C58.7,8,58.6,8,58.6,8c-0.1-0.1-0.2,0-0.2,0.1
			C58,9,57.6,9.9,57.2,10.8c-0.2,0.4-0.4,0.9-0.5,1.4c-0.1,0.6-0.3,1-0.5,1.6l-0.9,2.1C55.1,16.1,55,16.4,55,16.7z"/>
		<path d="M66.5,32.2c-0.6-0.8-0.9-1.6-1-2.5c0-0.1-0.1-0.3,0-0.4c0.2-1.7,0.1-3.5,0.1-5.2c0-1.6,0-3.2,0-4.9c0.1-2.5,0.1-5,0.4-7.5
			c0.2-1.3,0.3-2.7,0.5-4c0-0.3,0-0.7,0-1c0-0.8,0-1.6,0-2.4c0-0.3,0.1-0.5,0.3-0.7c0.1-0.1,0.2-0.1,0.3-0.1
			c0.8-0.2,1.7-0.5,2.6-0.1C70.5,3.8,71,4.5,71,5.7c0.1,1.5,0,3.1-0.2,4.6s-0.5,3-0.8,4.5c-0.3,1.7-0.5,3.5-0.7,5.2
			c-0.1,0.6-0.1,1.3-0.2,1.9c-0.1,1.3-0.3,2.7-0.5,4c-0.1,0.6-0.1,1.2-0.3,1.8c-0.1,0.2-0.1,0.6-0.2,0.6c-0.3,0.2-0.3,0.7-0.6,0.9
			c-0.2,0.2-0.4,0.4-0.4,0.8C67.1,30.7,66.8,31.4,66.5,32.2z"/>
		<path d="M93.9,5.2c-0.6,0.3-1.2,0.5-1.8,0.7c-0.3,0.1-0.7,0.3-0.9,0.6c-0.6,0.7-1.4,1-2.1,1.4C88.9,8,88.6,8,88.4,8.2
			c-1.2,0.9-2.6,1.3-3.9,1.9l-2.1,1c-0.4,0.2-0.7,0.4-0.7,0.9c0.1,1.8-0.3,3.6-0.7,5.3c0,0.2-0.1,0.4-0.1,0.6
			c-0.1,1.3-0.5,2.5-0.8,3.7c-0.4,1.4-0.7,2.8-1.1,4.2c-0.1,0.6-0.4,1-0.6,1.5c-0.3,0.6-0.6,1.3-1,1.9c-0.1,0.2-0.3,0.3-0.5,0.5
			c-0.4,0.3-0.9,0.1-1-0.4c-0.1-0.2-0.1-0.5-0.1-0.7c0-0.7,0.1-1.4,0.2-2c0.2-1,0.3-2,0.4-3c0.2-1.4,0.6-2.8,1-4.1
			c0.5-1.7,1-3.4,1.5-5c0.1-0.5,0.3-1,0.2-1.5c-0.3,0-0.6,0.1-0.8,0.3c-0.7,0.4-1.4,0.9-2.1,1.3c-1.1,0.6-2.2,1-3.4,1.1
			c-0.8,0.1-1.5-0.2-2.1-0.6c0,0-0.1,0-0.1-0.1c-0.1-0.6-0.4-0.9-0.8-1.3c-0.1-0.1-0.1-0.3,0.1-0.3c1.4-0.3,2.4-1.1,3.6-1.8l1.5-0.8
			c3.1-1.6,6.3-3,9.5-4.2c2.3-0.9,4.8-1.6,7.2-2.3c1-0.3,1.9-0.5,2.9-0.7c0.2,0,0.3,0,0.5,0l0.1,0.1c0,0.1,0,0.1-0.1,0.2
			c0,0-0.1,0-0.2,0.1c-0.4,0.2-0.9,0.4-1.3,0.6c-0.3,0.1-0.3,0.2,0,0.4C93.7,5.1,93.8,5.1,93.9,5.2z"/>
	</g>
</g>
</svg>
