<?xml version="1.0" encoding="utf-8"?>
<!-- Generator: Adobe Illustrator 20.1.0, SVG Export Plug-In . SVG Version: 6.00 Build 0)  -->
<svg version="1.1" id="Calque_1" xmlns="http://www.w3.org/2000/svg" xmlns:xlink="http://www.w3.org/1999/xlink" x="0px" y="0px"
	 viewBox="0 0 263.7 31.7" style="enable-background:new 0 0 263.7 31.7;" xml:space="preserve">
<style type="text/css">
	.st0{opacity:0;}
	.st1{fill:#272727;}
</style>
<g class="st0">
	<rect class="st1" width="263.7" height="31.7"/>
</g>
<g>
	<path class="st1" d="M12.4,18.3c0,0.3,0.4,0.4,0.1,0.7c0.1,0.6-0.1,1.1,0,1.7c0.2,1,0,1.9-0.4,2.7c-0.1,0.3-0.3,0.5-0.3,0.9
		c0,0.3-0.2,0.5-0.3,0.8c-0.3,0.4-0.5,0.7-0.6,1.2c0,0.1-0.1,0.3-0.2,0.5c-0.6,0.6-0.9,1.4-1.4,2.1c-0.8,1.2-2.7,1.8-4.1,1.3
		C4.5,29.9,4,29.5,3.6,29c-0.8-1.2-1.3-2.5-1.6-3.9c-0.4-2-0.4-4-0.2-6.1c0.1-1.1,0.4-2.2,0.8-3.3c0.9-2.8,2-5.5,3.2-8.2
		c0.9-1.9,2-3.6,3.4-5.2C9.5,2.1,9.8,1.8,10,1.5c0.9-0.9,2.9-0.9,3.8-0.2c0.3,0.2,0.6,0.4,0.8,0.6c0.8,0.6,1.2,1.3,1.2,2.2
		c-0.1,1.9-0.5,3.7-1.2,5.5c-0.2,0.5-0.4,1-0.5,1.5c-0.2,0.8-0.8,1.4-1.4,1.9c-0.1,0.1-0.3,0.3-0.6,0.1c-0.2-0.1-0.3-0.3-0.2-0.6
		c0.2-0.3,0.2-0.7,0.2-1.1c0.1-1,0.4-2,0.8-2.9c0.5-1.2,0.6-2.5,0.4-3.7c-0.1-0.4,0-0.8,0-1.2c0-0.1-0.1-0.1-0.1-0.1
		c-0.1,0-0.2,0-0.2,0c-0.6,0.7-1.2,1.4-1.4,2.2c-0.2,0.8-0.6,1.6-1,2.3c-1.1,2.2-2.2,4.4-3.1,6.6c-0.4,1-0.7,2.1-1,3.1
		c-0.4,1.3-0.8,2.6-1,3.9c-0.2,1.6-0.2,3.2,0.1,4.8c0,0.1,0,0.1,0.1,0.2c0.1,0.2,0.3,0.3,0.5,0.2c0.3-0.1,0.6-0.4,0.9-0.6
		c1.9-1.6,3.3-3.6,4.1-5.9C11.6,19.6,12,19,12.4,18.3z"/>
	<path class="st1" d="M21.1,2.7c-0.1,1.1-0.2,2.2-0.6,3.2c-0.1,0.3-0.2,0.6-0.2,0.8c0,0.6-0.3,1-0.5,1.5l-0.2,0.4
		c0,0.1-0.1,0.1-0.1,0.1c-0.2-0.1-0.4,0-0.6,0c-0.3-0.1-0.5-0.2-0.6-0.4C18.2,7.5,18,6.8,18.1,6c0-0.7,0.1-1.5,0.3-2.1
		c0.1-0.6,0.2-1.1,0.3-1.7c0-0.2,0-0.5,0.1-0.8c0.6-0.3,1.1-0.2,1.6,0.2C20.6,1.9,20.9,2,21,2.3C21.1,2.4,21.1,2.5,21.1,2.7z"/>
	<path class="st1" d="M23.6,22.1c0-1,0.2-1.9,0.3-2.8l0.3-1.5c0.1-0.3,0.1-0.5,0.2-0.7c0.2-0.5,0.4-1.1,0.3-1.7
		c0-0.2,0.1-0.4,0.1-0.6c0.4-1.7,0.9-3.3,1.4-4.9c0.1-0.5,0.3-0.9,0.4-1.4c0.2-0.6,0.5-1.3,0.7-1.9c0.1-0.2,0.2-0.3,0.5-0.3
		c0.1,0,0.3-0.1,0.4-0.1c0.6-0.2,1.2-0.3,1.7,0.2c0.1,0.1,0.3,0.1,0.5,0c0.1-0.1,0.2-0.1,0.3-0.1c1.9-1,4-1.6,6-2.5
		c0.8-0.3,1.6-0.5,2.4-0.8c0.4-0.1,0.9-0.3,1.3-0.4c0.2-0.1,0.5-0.1,0.7-0.1c0.2,0,0.4,0.3,0.3,0.5c-0.2,0.3-0.1,0.7-0.3,1
		c-0.2,0.3-0.4,0.5-0.5,0.8c-0.1,0.2-0.3,0.3-0.6,0.4c-0.3,0.1-0.6,0.3-0.8,0.6c-0.4,0.5-1,0.8-1.5,1c-0.6,0.2-1.1,0.5-1.6,0.8
		c-1.5,0.8-3,1.6-4.5,2.1c-0.2,0.1-0.3,0.2-0.5,0.2c-0.7,0-0.9,0.5-1.1,1c-0.3,1-0.6,1.9-0.9,2.8l-0.5,1.7c0,0.2,0.1,0.3,0.3,0.3
		l2.2-0.6c0.6-0.1,1.2-0.2,1.8-0.2c0.2,0,0.3,0.1,0.3,0.4c0,0.2-0.1,0.4,0,0.6c0,0.1,0,0.1,0,0.2c-0.4,0.3-0.5,0.8-1,1
		c-0.3,0.1-0.6,0.3-0.6,0.7c-0.1,0.2-0.2,0.3-0.4,0.4c-0.6,0.3-1.2,0.6-1.9,0.8c-0.4,0.1-0.8,0.1-1.2,0c-0.4-0.1-0.5-0.1-0.6,0.4
		c-0.3,1.1-0.5,2.3-0.7,3.4c-0.1,0.2,0,0.4,0,0.6c0,0.1,0.2,0.2,0.3,0.1c0.2-0.1,0.5-0.3,0.7-0.5c1.6-1.2,3.3-2.2,5.1-3
		c0.5-0.2,1-0.4,1.5-0.4c0.4,0,0.4,0.1,0.6,0.5c0.2,0.5-0.1,0.9-0.1,1.3c0,0.3-0.3,0.6-0.6,0.8c-0.3,0.3-0.7,0.6-0.8,1
		c-0.1,0.1-0.2,0.1-0.3,0.2c-1.3,0.9-2.7,1.8-4,2.7c-0.6,0.4-1.2,0.6-1.9,0.8c-0.2,0.1-0.3,0-0.5,0c-0.9-0.1-1.6-0.4-2.2-1
		c-0.8-0.8-1.2-1.8-1.2-3V22.1z"/>
	<path class="st1" d="M58.6,3.9c-0.6,0.3-1.2,0.5-1.8,0.7c-0.3,0.1-0.7,0.3-0.9,0.6c-0.6,0.7-1.4,1-2.1,1.4
		c-0.2,0.1-0.5,0.1-0.7,0.3c-1.2,0.9-2.6,1.3-3.9,1.9l-2.1,1c-0.4,0.2-0.7,0.4-0.7,0.9c0.1,1.8-0.3,3.6-0.7,5.3
		c0,0.2-0.1,0.4-0.1,0.6c-0.1,1.3-0.5,2.5-0.8,3.7c-0.4,1.4-0.7,2.8-1.1,4.2c-0.1,0.6-0.4,1-0.6,1.5c-0.3,0.6-0.6,1.3-1,1.9
		c-0.1,0.2-0.3,0.3-0.5,0.5c-0.4,0.3-0.9,0.1-1-0.4c-0.1-0.2-0.1-0.5-0.1-0.7c0-0.7,0.1-1.4,0.2-2c0.2-1,0.3-2,0.4-3
		c0.2-1.4,0.6-2.8,1-4.1c0.5-1.7,1-3.4,1.5-5c0.1-0.5,0.3-1,0.2-1.5c-0.3,0-0.6,0.1-0.8,0.3c-0.7,0.4-1.4,0.9-2.1,1.3
		c-1.1,0.6-2.2,1-3.4,1.1c-0.8,0.1-1.5-0.2-2.1-0.6c0,0-0.1,0-0.1-0.1c-0.1-0.6-0.4-0.9-0.8-1.3c-0.1-0.1-0.1-0.3,0.1-0.3
		c1.4-0.3,2.4-1.1,3.6-1.8l1.5-0.8c3.1-1.6,6.3-3,9.5-4.2c2.3-0.9,4.8-1.6,7.2-2.3c1-0.3,1.9-0.5,2.9-0.7c0.2,0,0.3,0,0.5,0
		c0,0,0.1,0.1,0.1,0.1c0,0.1,0,0.1-0.1,0.2c-0.1,0.1-0.1,0.1-0.2,0.2c-0.4,0.2-0.9,0.4-1.3,0.6c-0.3,0.1-0.3,0.2,0,0.4
		C58.4,3.8,58.5,3.9,58.6,3.9z"/>
	<path class="st1" d="M62.3,8.2c0,2.1-0.2,3.7-0.3,5.3c0,0.2-0.1,0.5-0.1,0.7c-0.1,2.1-0.4,4.3-0.7,6.4c-0.1,0.5-0.1,1-0.2,1.5
		c0,0.7-0.1,1.3-0.3,1.9c-0.1,0.3-0.1,0.5-0.1,0.8c0,0.4,0,0.7-0.3,1c-0.2,0.2-0.2,0.7-0.2,1c0.1,0.9-0.3,1.5-0.9,2.1
		C59.1,29,59,29.1,59,29.2c-0.2,0.2-0.3,0.1-0.5,0c-0.7-0.6-1.2-1.2-1.3-2.1c-0.1-0.8-0.2-1.6-0.1-2.5c0.1-0.6,0.1-1.1,0.1-1.7
		c0-1.3,0.2-2.6,0.2-3.8c0-0.2-0.1-0.3-0.3-0.3c-0.9,0.3-1.8,0.1-2.7-0.1c-0.3-0.1-0.5-0.1-0.8-0.1c-0.5-0.1-0.5-0.1-0.7,0.3
		c-0.3,0.9-0.7,1.7-1,2.6c-0.6,1.4-1.1,2.9-1.7,4.3c-0.1,0.3-0.2,0.5-0.4,0.7c-0.3,0.7-1,1-1.7,1c-0.2,0-0.3,0-0.5-0.2
		c-0.4-0.5-0.8-1-1-1.6c0-0.1,0-0.1,0-0.2c0.6-0.9,0.7-1.9,1.1-2.9c0.5-1.3,1-2.7,1.5-4.1c0.2-0.6,0.3-1.2,0.8-1.7
		c0.2-0.3-0.3-0.8,0.2-1c0.4-0.2,0.5-0.6,0.6-0.9c0.4-0.9,0.8-1.8,1.2-2.7L54,8c0.7-1.6,1.5-3.1,2.1-4.7c0.1-0.3,0.3-0.7,0.3-1.1
		c0-0.4,0.2-0.7,0.7-0.8c0.4-0.1,0.9-0.2,1.2-0.6c0.1,0,0.1-0.1,0.2-0.1c0.8,0.2,1.7,0.3,2.2,1C61.4,2.9,61.9,4,62,5.3
		C62.1,6.4,62.3,7.6,62.3,8.2z M54.3,15.5c0.6,0.3,1.4,0.4,2,0.8c0.2,0.1,0.6,0.1,0.8,0c0.3,0,0.5-0.2,0.6-0.5
		c0-0.3,0.1-0.6,0.1-0.9c0-1.9,0.1-3.8,0.2-5.7c0.1-0.8,0-1.5,0-2.3c0-0.1-0.1-0.1-0.1-0.1c-0.1-0.1-0.2,0-0.2,0.1
		c-0.4,0.9-0.8,1.8-1.2,2.7c-0.2,0.4-0.4,0.9-0.5,1.4c-0.1,0.6-0.3,1-0.5,1.6l-0.9,2.1C54.4,14.9,54.3,15.2,54.3,15.5z"/>
	<path class="st1" d="M65,30.9c-0.6-0.8-0.9-1.6-1-2.5c0-0.1-0.1-0.3,0-0.4c0.2-1.7,0.1-3.5,0.1-5.2c0-1.6,0-3.2,0-4.9
		c0.1-2.5,0.1-5,0.4-7.5c0.2-1.3,0.3-2.7,0.5-4c0-0.3,0-0.7,0-1c0-0.8,0-1.6,0-2.4c0-0.3,0.1-0.5,0.3-0.7c0.1-0.1,0.2-0.1,0.3-0.1
		c0.8-0.2,1.7-0.5,2.6-0.1c0.8,0.4,1.3,1.1,1.3,2.3c0.1,1.5,0,3.1-0.2,4.6c-0.2,1.5-0.5,3-0.8,4.5c-0.3,1.7-0.5,3.5-0.7,5.2
		c-0.1,0.6-0.1,1.3-0.2,1.9c-0.1,1.3-0.3,2.7-0.5,4c-0.1,0.6-0.1,1.2-0.3,1.8c-0.1,0.2-0.1,0.6-0.2,0.6c-0.3,0.2-0.3,0.7-0.6,0.9
		c-0.2,0.2-0.4,0.4-0.4,0.8C65.6,29.5,65.3,30.2,65,30.9z"/>
	<path class="st1" d="M91.6,3.9c-0.6,0.3-1.2,0.5-1.8,0.7c-0.3,0.1-0.7,0.3-0.9,0.6c-0.6,0.7-1.4,1-2.1,1.4
		c-0.2,0.1-0.5,0.1-0.7,0.3c-1.2,0.9-2.6,1.3-3.9,1.9l-2.1,1c-0.4,0.2-0.7,0.4-0.7,0.9c0.1,1.8-0.3,3.6-0.7,5.3
		c0,0.2-0.1,0.4-0.1,0.6c-0.1,1.3-0.5,2.5-0.8,3.7c-0.4,1.4-0.7,2.8-1.1,4.2c-0.1,0.6-0.4,1-0.6,1.5c-0.3,0.6-0.6,1.3-1,1.9
		c-0.1,0.2-0.3,0.3-0.5,0.5c-0.4,0.3-0.9,0.1-1-0.4c-0.1-0.2-0.1-0.5-0.1-0.7c0-0.7,0.1-1.4,0.2-2c0.2-1,0.3-2,0.4-3
		c0.2-1.4,0.6-2.8,1-4.1c0.5-1.7,1-3.4,1.5-5c0.1-0.5,0.3-1,0.2-1.5c-0.3,0-0.6,0.1-0.8,0.3c-0.7,0.4-1.4,0.9-2.1,1.3
		c-1.1,0.6-2.2,1-3.4,1.1c-0.8,0.1-1.5-0.2-2.1-0.6c0,0-0.1,0-0.1-0.1c-0.1-0.6-0.4-0.9-0.8-1.3c-0.1-0.1-0.1-0.3,0.1-0.3
		c1.4-0.3,2.4-1.1,3.6-1.8l1.5-0.8c3.1-1.6,6.3-3,9.5-4.2c2.3-0.9,4.8-1.6,7.2-2.3c1-0.3,1.9-0.5,2.9-0.7c0.2,0,0.3,0,0.5,0
		c0,0,0.1,0.1,0.1,0.1c0,0.1,0,0.1-0.1,0.2c-0.1,0.1-0.1,0.1-0.2,0.2c-0.4,0.2-0.9,0.4-1.3,0.6c-0.3,0.1-0.3,0.2,0,0.4
		C91.4,3.8,91.5,3.9,91.6,3.9z"/>
	<path class="st1" d="M114.2,27.2h-1.5v-18l-7.5,12.5h-0.3L97.4,9.2v18h-1.5V6.9h1.9l7.3,12l7.3-12h1.9V27.2z"/>
	<path class="st1" d="M120.8,6.9v20.3h-1.5V6.9H120.8z"/>
	<path class="st1" d="M137.5,25.8v1.5h-11.7V6.9h11.5v1.5h-10v7.9h9.3v1.5h-9.3v8.1H137.5z"/>
	<path class="st1" d="M141,20.5V6.9h1.5v13.5c0,3.3,2.1,5.6,5.9,5.6c3.9,0,5.9-2.3,5.9-5.6V6.9h1.5v13.5c0,4.3-3,7.1-7.5,7.1
		C143.9,27.6,141,24.8,141,20.5z"/>
	<path class="st1" d="M172,27.2l-5.9-9.1l-5.9,9.1h-1.8l6.8-10.4l-6.4-9.9h1.8l5.5,8.5l5.5-8.5h1.8l-6.4,9.9l6.8,10.4H172z"/>
	<path class="st1" d="M199.5,8.2c0,2.1-0.2,3.7-0.3,5.3c0,0.2-0.1,0.5-0.1,0.7c-0.1,2.1-0.4,4.3-0.7,6.4c-0.1,0.5-0.1,1-0.2,1.5
		c0,0.7-0.1,1.3-0.3,1.9c-0.1,0.3-0.1,0.5-0.1,0.8c0,0.4,0,0.7-0.3,1c-0.2,0.2-0.2,0.7-0.2,1c0.1,0.9-0.3,1.5-0.9,2.1
		c-0.1,0.1-0.1,0.2-0.2,0.2c-0.2,0.2-0.3,0.1-0.5,0c-0.7-0.6-1.2-1.2-1.3-2.1c-0.1-0.8-0.2-1.6-0.1-2.5c0.1-0.6,0.1-1.1,0.1-1.7
		c0-1.3,0.2-2.6,0.2-3.8c0-0.2-0.1-0.3-0.3-0.3c-0.9,0.3-1.8,0.1-2.7-0.1c-0.3-0.1-0.5-0.1-0.8-0.1c-0.5-0.1-0.5-0.1-0.7,0.3
		c-0.3,0.9-0.7,1.7-1,2.6c-0.6,1.4-1.1,2.9-1.7,4.3c-0.1,0.3-0.2,0.5-0.4,0.7c-0.3,0.7-1,1-1.7,1c-0.2,0-0.3,0-0.5-0.2
		c-0.4-0.5-0.8-1-1-1.6c0-0.1,0-0.1,0-0.2c0.6-0.9,0.7-1.9,1.1-2.9c0.5-1.3,1-2.7,1.5-4.1c0.2-0.6,0.3-1.2,0.8-1.7
		c0.2-0.3-0.3-0.8,0.2-1c0.4-0.2,0.5-0.6,0.6-0.9c0.4-0.9,0.8-1.8,1.2-2.7l1.9-4.4c0.7-1.6,1.5-3.1,2.1-4.7c0.1-0.3,0.3-0.7,0.3-1.1
		c0-0.4,0.2-0.7,0.7-0.8c0.4-0.1,0.9-0.2,1.2-0.6c0.1,0,0.1-0.1,0.2-0.1c0.8,0.2,1.7,0.3,2.2,1c0.8,1.1,1.3,2.2,1.4,3.5
		C199.3,6.4,199.5,7.6,199.5,8.2z M191.5,15.5c0.6,0.3,1.4,0.4,2,0.8c0.2,0.1,0.6,0.1,0.8,0c0.3,0,0.5-0.2,0.6-0.5
		c0-0.3,0.1-0.6,0.1-0.9c0-1.9,0.1-3.8,0.2-5.7c0.1-0.8,0-1.5,0-2.3c0-0.1-0.1-0.1-0.1-0.1c-0.1-0.1-0.2,0-0.2,0.1
		c-0.4,0.9-0.8,1.8-1.2,2.7c-0.2,0.4-0.4,0.9-0.5,1.4c-0.1,0.6-0.3,1-0.5,1.6l-0.9,2.1C191.6,14.9,191.5,15.2,191.5,15.5z"/>
	<path class="st1" d="M214.8,2.3c-0.3,0.4-0.3,0.9-0.8,1.2c-0.4,0.3-0.7,0.7-0.5,1.3c0.1,0.1,0,0.3-0.1,0.4
		c-0.1,0.1-0.2,0.1-0.3,0.1c-0.1,0-0.3,0.1-0.2,0.2c0,0.4-0.2,0.8-0.3,1.2c-0.1,0.1-0.1,0.3,0,0.4h0c-0.1,0.2-0.1,0.4-0.3,0.6
		c-0.5,0.8-1,1.6-1.3,2.5c-0.5,1.2-1,2.3-1.5,3.4c-0.6,1.7-1.3,3.3-2,5c-0.7,1.7-1.3,3.4-1.9,5c-0.1,0.4-0.3,0.7-0.4,1.1
		c-0.2,0.5-0.5,1-0.6,1.6c-0.1,0.6-0.4,1-1,1.3c-0.4,0.2-0.7,0.2-1,0c-0.4-0.3-0.8-0.6-1-0.9c-0.4-0.5-0.6-1.1-0.3-1.6
		c0.5-1.2,0.4-2.5,0.4-3.8c0-1.6-0.2-3.2-0.2-4.8c0-1.4,0-2.8,0.1-4.3c0.1-1.6,0.1-3.1,0.1-4.7c0-0.6,0-1.3,0-1.9
		c0-0.3,0.1-0.6,0.1-0.9c0.1-0.6,0.2-0.6,0.7-0.3c0.2,0.1,0.5,0.2,0.7,0.3c0.9,0.6,1.5,1.4,1.7,2.4c0.1,0.6,0.2,1.2,0.2,1.9
		c0,1.6,0,3.1-0.3,4.7c-0.1,0.5,0.1,0.9,0,1.5c0.4-0.3,0.8-0.5,1-0.9c0.5-1,1-1.9,1.5-2.8c0.3-0.6,0.7-1.2,1.1-1.8
		c0.2-0.3,0.3-0.6,0.5-0.8c0.4-0.8,1-1.5,1.5-2.3c0.1-0.3,0.4-0.4,0.7-0.4c0.1-0.3,0.3-0.4,0.5-0.4c-0.1,0-0.1,0.1,0,0.1
		c0.1,0,0.2-0.1,0.3-0.2c0.7-0.9,1.5-1.7,2.2-2.5C214.2,2.8,214.5,2.5,214.8,2.3z M211.1,6c-0.1,0.1-0.2,0.3-0.2,0.4
		c0,0,0,0.1,0.1,0.1h0.1C211.3,6.4,211.3,6.2,211.1,6z M211.5,5.6C211.5,5.6,211.5,5.6,211.5,5.6L211.5,5.6z M212.6,6.7L212.6,6.7
		L212.6,6.7z"/>
	<path class="st1" d="M222.9,8.2c0,2.1-0.2,3.7-0.3,5.3c0,0.2-0.1,0.5-0.1,0.7c-0.1,2.1-0.4,4.3-0.7,6.4c-0.1,0.5-0.1,1-0.2,1.5
		c0,0.7-0.1,1.3-0.3,1.9c-0.1,0.3-0.1,0.5-0.1,0.8c0,0.4,0,0.7-0.3,1c-0.2,0.2-0.2,0.7-0.2,1c0.1,0.9-0.3,1.5-0.9,2.1
		c-0.1,0.1-0.1,0.2-0.2,0.2c-0.2,0.2-0.3,0.1-0.5,0c-0.7-0.6-1.2-1.2-1.3-2.1c-0.1-0.8-0.2-1.6-0.1-2.5c0.1-0.6,0.1-1.1,0.1-1.7
		c0-1.3,0.2-2.6,0.2-3.8c0-0.2-0.1-0.3-0.3-0.3c-0.9,0.3-1.8,0.1-2.7-0.1c-0.3-0.1-0.5-0.1-0.8-0.1c-0.5-0.1-0.5-0.1-0.7,0.3
		c-0.3,0.9-0.7,1.7-1,2.6c-0.6,1.4-1.1,2.9-1.7,4.3c-0.1,0.3-0.2,0.5-0.4,0.7c-0.3,0.7-1,1-1.7,1c-0.2,0-0.3,0-0.5-0.2
		c-0.4-0.5-0.8-1-1-1.6c0-0.1,0-0.1,0-0.2c0.6-0.9,0.7-1.9,1.1-2.9c0.5-1.3,1-2.7,1.5-4.1c0.2-0.6,0.3-1.2,0.8-1.7
		c0.2-0.3-0.3-0.8,0.2-1c0.4-0.2,0.5-0.6,0.6-0.9c0.4-0.9,0.8-1.8,1.2-2.7l1.9-4.4c0.7-1.6,1.5-3.1,2.1-4.7c0.1-0.3,0.3-0.7,0.3-1.1
		c0-0.4,0.2-0.7,0.7-0.8c0.4-0.1,0.9-0.2,1.2-0.6c0.1,0,0.1-0.1,0.2-0.1c0.8,0.2,1.7,0.3,2.2,1c0.8,1.1,1.3,2.2,1.4,3.5
		C222.7,6.4,222.9,7.6,222.9,8.2z M214.9,15.5c0.6,0.3,1.4,0.4,2,0.8c0.2,0.1,0.6,0.1,0.8,0c0.3,0,0.5-0.2,0.6-0.5
		c0-0.3,0.1-0.6,0.1-0.9c0-1.9,0.1-3.8,0.2-5.7c0.1-0.8,0-1.5,0-2.3c0-0.1-0.1-0.1-0.1-0.1c-0.1-0.1-0.2,0-0.2,0.1
		c-0.4,0.9-0.8,1.8-1.2,2.7c-0.2,0.4-0.4,0.9-0.5,1.4c-0.1,0.6-0.3,1-0.5,1.6l-0.9,2.1C215,14.9,214.9,15.2,214.9,15.5z"/>
	<path class="st1" d="M242.3,5.6c-0.3,0.2-0.5,0.5-0.5,0.9c0,0.5-0.2,0.9-0.4,1.3c-0.6,1-1.1,2.1-1.7,3.1c-0.6,1.1-1,2.2-1.5,3.3
		c-0.1,0.1-0.1,0.3-0.1,0.4c0.1,0.8-0.3,1.3-0.5,2c-0.3,0.8-0.7,1.5-0.9,2.3c-0.3,1.3-0.9,2.6-1.1,4c0,0.2-0.1,0.5-0.2,0.7
		c-0.1,0.4-0.1,0.8,0.2,1.1c0.1,0.1,0.1,0.3,0.2,0.4c0.1,0.3,0,0.6-0.2,0.8c-0.3,0.3-0.6,0.4-1,0.5c-0.4,0.1-0.7,0.1-1.1-0.1
		c-0.3-0.2-0.6-0.2-0.9-0.3c-0.5-0.2-0.9-0.5-1.1-1c-0.4-1-0.7-2.1-0.8-3.2c-0.3-1.6-0.5-3.2-0.8-4.8c-0.1-0.5-0.3-0.9-0.4-1.4
		c0-0.1-0.1-0.1-0.2-0.1c0,0-0.1,0.1-0.1,0.1c-0.2,1.2-0.4,2.3-0.6,3.5c-0.1,1.1-0.3,2.2-0.7,3.3c-0.1,0.3-0.2,0.7-0.3,1.1
		c0,0.1,0,0.3-0.1,0.4c-0.6,0.8-0.8,1.7-1.2,2.6c-0.2,0.5-0.3,1.1-0.5,1.6c-0.1,0.2-0.2,0.3-0.4,0.4c-0.1,0.1-0.2,0.1-0.3,0
		c-0.3-0.3-0.6-0.6-0.7-1c-0.2-0.8-0.4-1.5-0.4-2.3c-0.1-2-0.1-4,0.2-5.9c0.3-1.9,0.4-3.9,0.6-5.8L225,12c0.1-0.6,0.1-1.3,0.2-1.9
		c0.1-1,0.3-1.9,0.5-2.9c0.1-0.6,0.4-0.9,1-0.9c0.6,0,1.2-0.1,1.7,0c0.5,0.2,0.9,0.4,1.2,1c0.2,0.4,0.4,0.8,0.8,1
		c0.5,0.4,0.8,1,1,1.6c0.7,1.6,1.4,3.2,2,4.9c0.3,0.7,0.5,1.5,0.5,2.3c0,0.3,0,0.7,0.3,1c0.5-1,1.3-1.8,1.9-2.7
		c0.1-0.2,0.2-0.4,0.3-0.6c0.9-2.4,2.3-4.5,3.4-6.8c0-0.1,0.1-0.2,0.2-0.3c0.6-0.6,1.1-1.3,1.5-2.1C241.6,5.4,241.9,5.4,242.3,5.6z"
		/>
	<path class="st1" d="M261.1,3.9c-0.6,0.3-1.2,0.5-1.8,0.7c-0.3,0.1-0.7,0.3-0.9,0.6c-0.6,0.7-1.4,1-2.1,1.4
		c-0.2,0.1-0.5,0.1-0.7,0.3c-1.2,0.9-2.6,1.3-3.9,1.9l-2.1,1c-0.4,0.2-0.7,0.4-0.7,0.9c0.1,1.8-0.3,3.6-0.7,5.3
		c0,0.2-0.1,0.4-0.1,0.6c-0.1,1.3-0.5,2.5-0.8,3.7c-0.4,1.4-0.7,2.8-1.1,4.2c-0.1,0.6-0.4,1-0.6,1.5c-0.3,0.6-0.6,1.3-1,1.9
		c-0.1,0.2-0.3,0.3-0.5,0.5c-0.4,0.3-0.9,0.1-1-0.4c-0.1-0.2-0.1-0.5-0.1-0.7c0-0.7,0.1-1.4,0.2-2c0.2-1,0.3-2,0.4-3
		c0.2-1.4,0.6-2.8,1-4.1c0.5-1.7,1-3.4,1.5-5c0.1-0.5,0.3-1,0.2-1.5c-0.3,0-0.6,0.1-0.8,0.3c-0.7,0.4-1.4,0.9-2.1,1.3
		c-1.1,0.6-2.2,1-3.4,1.1c-0.8,0.1-1.5-0.2-2.1-0.6c0,0-0.1,0-0.1-0.1c-0.1-0.6-0.4-0.9-0.8-1.3c-0.1-0.1-0.1-0.3,0.1-0.3
		c1.4-0.3,2.4-1.1,3.6-1.8l1.5-0.8c3.1-1.6,6.3-3,9.5-4.2c2.3-0.9,4.8-1.6,7.2-2.3c1-0.3,1.9-0.5,2.9-0.7c0.2,0,0.3,0,0.5,0
		c0,0,0.1,0.1,0.1,0.1c0,0.1,0,0.1-0.1,0.2c-0.1,0.1-0.1,0.1-0.2,0.2c-0.4,0.2-0.9,0.4-1.3,0.6c-0.3,0.1-0.3,0.2,0,0.4
		C261,3.8,261.1,3.9,261.1,3.9z"/>
</g>
</svg>
