<svg id="Layer_1" data-name="Layer 1" xmlns="http://www.w3.org/2000/svg" viewBox="0 0 1000 1000"><defs><style>.cls-1{fill:#003c3c;}.cls-2{fill:#007878;}.cls-3,.cls-8,.cls-9{stroke:#000;}.cls-3,.cls-4{stroke-linejoin:round;stroke-width:3px;}.cls-4{fill:#fff;stroke:#fff;}.cls-5{fill:#db6423;}.cls-6{fill:#bc4e17;}.cls-7{fill:#e87a43;}.cls-8,.cls-9{fill:none;stroke-miterlimit:10;}.cls-8{stroke-width:8px;}.cls-9{stroke-width:6px;}</style></defs><g id="Mains"><path d="M646.45,487q-7.53-.4-15.16-.76a4,4,0,0,1-3.7-4.94L673.39,291,662.93,128.21a3.85,3.85,0,0,1,.25-1.67l21.19-56.13a4,4,0,0,1,3.74-2.59,3.92,3.92,0,0,1,1.26.21l183.7,61a4,4,0,0,1,2.7,3.23l7.87,55.12a3.94,3.94,0,0,1-.52,2.6l-16.28,27.49-18.3,29.35,14.32,2a4,4,0,0,1,3.35,3.16l6.9,33.58a4,4,0,0,1-3.92,4.8,3.94,3.94,0,0,1-1.12-.16l-24.15-7.06L697.59,241.41l3.77,52.64a4.21,4.21,0,0,1-.13,1.32L650.52,484a4,4,0,0,1-3.86,3Z"/><path d="M688.11,71.82l183.7,61,7.87,55.11-16.28,27.5-21.51,34.48,20.41,2.89,6.89,33.57L845,279.29,693.2,236l4.17,58.33L646.66,483q-7.54-.41-15.18-.77l45.94-190.89L666.92,128l21.19-56.14m0-8A8,8,0,0,0,680.63,69l-21.2,56.13a8.11,8.11,0,0,0-.5,3.34l10.43,162.14L623.7,480.33a8,8,0,0,0,7.4,9.86c5,.24,10.13.5,15.13.77h.43a8,8,0,0,0,7.73-5.92l50.7-188.64a8.16,8.16,0,0,0,.26-2.65L702,246.82,842.83,287l24.11,7a7.91,7.91,0,0,0,2.25.33,8,8,0,0,0,7.84-9.61l-6.9-33.58a8,8,0,0,0-6.71-6.32l-8.24-1.16,15-24.05a.86.86,0,0,0,.1-.16L886.56,192a8,8,0,0,0,1-5.21l-7.87-55.12a8,8,0,0,0-5.4-6.46l-183.7-61a7.87,7.87,0,0,0-2.52-.41Z"/><path d="M534.4,483.34c-5.73-.07-11.5-.12-17.28-.15a4,4,0,0,1-4-4.4l6.28-63,20.72-302.51a4,4,0,0,1,4-3.73h.11a4,4,0,0,1,3.89,3.93L551,279.89c0,.11,0,.21,0,.32L538.44,479.59a4,4,0,0,1-4,3.75Z"/><path d="M544.15,113.52,547,280,534.45,479.34q-8.61-.1-17.31-.15l6.28-63.1,20.73-302.57m0-8a8,8,0,0,0-8,7.45L515.45,415.42l-6.27,63a8,8,0,0,0,7.91,8.79c5.75,0,11.56.08,17.26.15h.1a8,8,0,0,0,8-7.49L555,280.46c0-.21,0-.42,0-.64l-2.83-166.44a8,8,0,0,0-7.79-7.86Z"/><path d="M604.39,485.06c-12.61-.48-25.51-.86-38.35-1.16a4,4,0,0,1-3.88-4.49L586.3,282l-2.71-82.57a4,4,0,0,1,2.84-4,4.16,4.16,0,0,1,1.15-.17,4,4,0,0,1,3.41,1.9l12.55,20.31,25.89-96.35a4,4,0,0,1,3.86-3l.42,0a4,4,0,0,1,3.57,3.78l8.36,164.56a3.77,3.77,0,0,1-.07.95l-37.1,194.28a4,4,0,0,1-3.93,3.25Z"/><path d="M633.29,122.22l8.35,164.56-37.1,194.28q-19-.71-38.41-1.16l24.18-197.7-2.72-82.88L605,227.5l28.29-105.28m0-8a8,8,0,0,0-7.72,5.93l-23.48,87.4-7.69-12.44a8,8,0,0,0-14.8,4.47l2.7,82.26-24.1,197.09a8,8,0,0,0,7.75,9c12.81.29,25.69.68,38.3,1.15h.3a8,8,0,0,0,7.85-6.5L649.5,288.28a7.54,7.54,0,0,0,.13-1.9l-8.35-164.56a8.06,8.06,0,0,0-8-7.6Z"/><path d="M398.1,485a4,4,0,0,1-3.93-3.27l-36.11-194.6a4,4,0,0,1-.07-.92l2.39-47.69a4,4,0,0,1,3.61-3.79l46.59-4.52a2.55,2.55,0,0,1,.39,0,4,4,0,0,1,4,4.13L413.4,282l23.91,197.4a4,4,0,0,1-.95,3.1,4,4,0,0,1-2.93,1.38c-11.77.28-23.61.63-35.18,1.05Z"/><path d="M411,234.14l-1.58,48.06,23.95,197.7q-17.82.42-35.23,1.05L362,286.35l2.38-47.68,46.6-4.53m0-8a6.62,6.62,0,0,0-.77,0l-46.6,4.52a8,8,0,0,0-7.22,7.57L354,286a8.19,8.19,0,0,0,.12,1.85l36.12,194.6A8,8,0,0,0,398.1,489h.3c11.57-.41,23.39-.76,35.12-1a8,8,0,0,0,7.76-9L417.41,281.85,419,234.4a8,8,0,0,0-8-8.26Z"/><path d="M366.1,208.09a4,4,0,0,1-4-4.19L364,166a4,4,0,0,1,3.46-3.77c15-2,30.28-3.72,45.56-5l.35,0a4,4,0,0,1,4,4.13l-1.26,38.15a4,4,0,0,1-3.67,3.86c-15.38,1.24-30.8,2.84-45.83,4.75A4.36,4.36,0,0,1,366.1,208.09Z"/><path d="M413.37,161.17l-1.25,38.15q-23.4,1.91-46,4.77L368,166.2q22.29-3,45.37-5m0-8-.69,0c-15.35,1.33-30.74,3-45.76,5.07A8,8,0,0,0,360,165.8l-1.9,37.9a8,8,0,0,0,8,8.39,8.55,8.55,0,0,0,1-.06c15-1.9,30.33-3.49,45.65-4.74a8,8,0,0,0,7.35-7.71l1.25-38.15a8,8,0,0,0-8-8.26Z"/><path d="M465.24,483.34a4,4,0,0,1-4-3.75L448.7,280.21c0-.08,0-.16,0-.24L448.51,138a4,4,0,0,1,3.67-4l.33,0a4,4,0,0,1,3.95,3.35L480,278.69a3.07,3.07,0,0,1,.05.53l6.35,199.84a4,4,0,0,1-4,4.13c-5.73,0-11.44.09-17.13.15Z"/><path d="M452.51,138l23.55,141.33,6.34,199.84c-5.75,0-11.46.09-17.16.15L452.69,280,452.51,138m0-8c-.23,0-.45,0-.67,0a8,8,0,0,0-7.34,8L444.69,280c0,.16,0,.33,0,.49l12.55,199.39a8,8,0,0,0,8,7.49h.1c5.67-.06,11.42-.12,17.11-.15a8,8,0,0,0,7.94-8.25l-6.34-199.85A7.6,7.6,0,0,0,484,278L460.4,136.71a8,8,0,0,0-7.88-6.69Z"/><path d="M353,487a4,4,0,0,1-3.86-3L298.47,295.37a3.92,3.92,0,0,1-.12-1.32L315.8,49.73A4,4,0,0,1,319.5,46h.29a4,4,0,0,1,3.91,3.16l16.75,77.23a3.4,3.4,0,0,1,.07.46l34.7,354.81a4,4,0,0,1-3.8,4.38q-9.15.43-18.16.91Z"/><path d="M319.79,50l16.75,77.24,34.7,354.81q-9.17.42-18.2.91l-50.7-188.64L319.79,50m0-8-.57,0a8,8,0,0,0-7.41,7.41L294.36,293.76a7.89,7.89,0,0,0,.25,2.65l50.71,188.64A8,8,0,0,0,353,491h.43c6-.32,12.09-.63,18.14-.91a8,8,0,0,0,7.59-8.77L344.5,126.47a9.27,9.27,0,0,0-.14-.92L327.61,48.32A8,8,0,0,0,319.79,42Z"/><path d="M220.79,498a4,4,0,0,1-3.55-2.15L135.3,338.76a4.11,4.11,0,0,1-.42-2.36L154.35,185a4,4,0,0,1,2.88-3.34,4.09,4.09,0,0,1,1.09-.15,4,4,0,0,1,3.11,1.49l41.13,50.92L265,141.19a4,4,0,0,1,7.3,2.59l-14.08,159L319.52,484a4,4,0,0,1-3.51,5.27c-33.18,2.3-65.06,5.24-94.75,8.75Z"/><path d="M268.3,143.42,254.14,303.3l61.6,182c-33.59,2.33-65.39,5.28-95,8.76L138.85,336.91,158.32,185.5l44.53,55.14,65.45-97.22m0-8a8,8,0,0,0-6.64,3.54l-59.4,88.22-37.72-46.71a8,8,0,0,0-6.22-3,8.13,8.13,0,0,0-2.18.3,8,8,0,0,0-5.76,6.68L130.92,335.89a8,8,0,0,0,.84,4.72l81.93,157.11a8,8,0,0,0,7.09,4.3c.32,0,.63,0,.94,0,29.63-3.5,61.44-6.43,94.57-8.73a8,8,0,0,0,7-10.54L262.26,302.33l14-158.2a8,8,0,0,0-8-8.71Z"/><g id="Mains_-_Shadows" data-name="Mains - Shadows"><g id="S"><path class="cls-1" d="M802.11,500.93a3.23,3.23,0,0,1-.53,0C754.7,494.66,702.51,490,646.45,487a4,4,0,0,1-3.65-5L693.5,293.3a4,4,0,0,1,3.86-3,3.47,3.47,0,0,1,.64.06c11.57,1.86,23.15,3.65,34.35,5.38,61,9.42,118.68,18.32,161.91,38.22a4,4,0,0,1,1.81,5.61L805.59,498.91A4,4,0,0,1,802.11,500.93Z"/><path d="M697.37,294.33c74.55,12,144.64,20,195.22,43.29L802.11,496.93c-46.19-6.14-98.67-10.91-155.45-14l50.71-188.64m0-8a8,8,0,0,0-7.72,5.93L638.93,480.89a8,8,0,0,0,7.3,10.07c56,3,108,7.68,154.83,13.9a7.41,7.41,0,0,0,1.05.07,8,8,0,0,0,7-4.05l90.47-159.31a8,8,0,0,0-3.61-11.21c-43.73-20.13-101.65-29.08-163-38.54-11.19-1.73-22.76-3.52-34.32-5.38a8,8,0,0,0-1.28-.11Z"/></g><g id="N"><g id="N_-_Left" data-name="N - Left"><path class="cls-1" d="M566,483.9c-10.47-.24-21.11-.43-31.64-.56a4,4,0,0,1-3.94-4.25L543,279.71a4,4,0,0,1,4-3.75h.14c14.51.51,29.14,1.27,43.46,2.25a4,4,0,0,1,2.81,1.44,4,4,0,0,1,.89,3L570.1,480.38a4,4,0,0,1-4,3.52Z"/><path d="M547,280q22,.77,43.33,2.24L566.13,479.9q-15.69-.36-31.68-.56L547,280m0-8a8,8,0,0,0-8,7.5L526.46,478.84a8,8,0,0,0,7.89,8.5c10.53.13,21.16.32,31.59.56h.19a8,8,0,0,0,7.94-7l24.18-197.7a8,8,0,0,0-7.39-8.95c-14.36-1-29-1.74-43.6-2.26Z"/></g><g id="N_-_Right" data-name="N - Right"><path class="cls-1" d="M631.29,486.2c-8.87-.43-17.92-.81-26.9-1.14a4,4,0,0,1-3.78-4.75L637.72,286a4,4,0,0,1,3.92-3.25,3.15,3.15,0,0,1,.44,0c12.06,1.33,24.13,2.86,35.9,4.54a4,4,0,0,1,3.33,4.89l-45.94,190.9a4,4,0,0,1-3.89,3.06Z"/><path d="M641.64,286.78q18.2,2,35.78,4.53L631.48,482.2q-13.34-.63-26.94-1.14l37.1-194.28m0-8a8,8,0,0,0-7.85,6.5L596.68,479.56a8,8,0,0,0,7.56,9.49c9,.34,18,.72,26.86,1.14h.38a8,8,0,0,0,7.78-6.13L685.2,293.18a8,8,0,0,0-6.65-9.79c-11.8-1.69-23.92-3.22-36-4.56a8.65,8.65,0,0,0-.88-.05Z"/></g></g><g id="I"><path class="cls-1" d="M482.4,483.19a4,4,0,0,1-4-3.87l-6.34-199.85a4,4,0,0,1,1.1-2.88,4,4,0,0,1,2.83-1.24c7.89-.14,15.91-.21,23.86-.21s15.81.07,23.64.2a4,4,0,0,1,2.83,1.24,4,4,0,0,1,1.1,2.89l-6.28,199.84a4,4,0,0,1-4,3.88h0q-8.6-.06-17.27-.05t-17.43.05Z"/><path d="M499.85,279.14q11.85,0,23.57.2l-6.28,199.85q-8.61-.06-17.29-.05t-17.45.05l-6.34-199.84q11.82-.21,23.79-.21m0-8c-8,0-16,.07-23.94.21a8,8,0,0,0-7.85,8.25l6.34,199.84a8,8,0,0,0,8,7.75h.05c5.76,0,11.61-.05,17.4-.05s11.53,0,17.24.05h0a8,8,0,0,0,8-7.75l6.28-199.85a8,8,0,0,0-7.86-8.25c-7.85-.13-15.83-.2-23.71-.2Z"/></g><g id="A"><g id="A_-_Left" data-name="A - Left"><path class="cls-1" d="M371.24,486.06a4,4,0,0,1-3.9-3.09l-45-191.31a4,4,0,0,1,.59-3.18,4.07,4.07,0,0,1,2.75-1.7c11.75-1.63,23.81-3.11,35.85-4.4l.43,0a4,4,0,0,1,3.93,3.28L402,480.22a4,4,0,0,1-3.79,4.73c-8.95.32-18,.69-26.83,1.1Z"/><path d="M362,286.35,398.11,481q-13.58.49-26.87,1.11l-45-191.31q17.57-2.44,35.73-4.4m0-8a8.11,8.11,0,0,0-.86,0c-12.09,1.3-24.19,2.78-36,4.42a8,8,0,0,0-6.68,9.76l45,191.31a8,8,0,0,0,7.79,6.17h.37c8.82-.41,17.83-.78,26.79-1.11a8,8,0,0,0,7.57-9.45L369.86,284.9a8,8,0,0,0-7.86-6.55Z"/></g><g id="A_-_Right" data-name="A - Right"><path class="cls-1" d="M433.33,483.9a4,4,0,0,1-4-3.51L405.42,282.68a4,4,0,0,1,.89-3,4,4,0,0,1,2.81-1.44c14.31-1,28.92-1.74,43.43-2.25h.15a4,4,0,0,1,4,3.75l12.55,199.38a4,4,0,0,1-1.06,3,4,4,0,0,1-2.89,1.28c-10.6.13-21.32.32-31.86.56Z"/><path d="M452.69,280l12.55,199.38q-16.1.2-31.9.56L409.39,282.2q21.35-1.47,43.3-2.24m0-8h-.29c-14.56.51-29.22,1.26-43.56,2.25a8,8,0,0,0-7.4,8.94l23.94,197.71a8,8,0,0,0,7.94,7h.19c10.51-.24,21.22-.43,31.82-.56a8,8,0,0,0,7.89-8.5L460.68,279.46a8,8,0,0,0-8-7.5Z"/></g></g><g id="M"><g id="M_-_Left" data-name="M - Left"><path class="cls-1" d="M181.83,503.11a4,4,0,0,1-3.43-1.94l-85.83-143a4,4,0,0,1,1.61-5.61c13.2-6.77,27.74-13.27,43.21-19.33a4.14,4.14,0,0,1,1.46-.27,4,4,0,0,1,3.55,2.15l81.93,157.11a4,4,0,0,1-3.07,5.83c-13.37,1.57-26.44,3.28-38.85,5.07A3.86,3.86,0,0,1,181.83,503.11Z"/><path d="M138.85,336.91,220.79,494q-20.21,2.39-39,5.09L96,356.07a463.05,463.05,0,0,1,42.85-19.16m0-8a7.82,7.82,0,0,0-2.91.55A475.79,475.79,0,0,0,92.35,349a8,8,0,0,0-3.21,11.23L175,503.23a8,8,0,0,0,6.86,3.88A7.5,7.5,0,0,0,183,507c12.39-1.79,25.43-3.49,38.74-5.06a8,8,0,0,0,6.16-11.65L145.94,333.21a8,8,0,0,0-7.09-4.3Z"/></g><g id="M_-_Right" data-name="M - Right"><path class="cls-1" d="M315.73,489.26a4,4,0,0,1-3.78-2.72l-61.6-182a4,4,0,0,1,3-5.19c15.63-3.32,31.91-6.35,48.39-9a3.47,3.47,0,0,1,.64-.06,4,4,0,0,1,3.86,3l50.71,188.63a4,4,0,0,1-3.65,5c-12.54.68-25.07,1.45-37.25,2.29Z"/><path d="M302.34,294.33,353,483q-19,1-37.3,2.29l-61.6-182q23.34-4.95,48.2-9m0-8a8,8,0,0,0-1.28.11c-16.54,2.67-32.88,5.71-48.58,9a8,8,0,0,0-5.92,10.39l61.6,182a8,8,0,0,0,7.57,5.43l.56,0c12.16-.84,24.67-1.61,37.18-2.28a8,8,0,0,0,7.3-10.07L310.06,292.26a8,8,0,0,0-7.72-5.93Z"/></g></g></g><g id="Mains-2" data-name="Mains"><g id="S-2" data-name="S"><path class="cls-2" d="M881.61,346.66c-7,0-14.53-3-20.62-5.4l-1.6-.63c-46.46-18.18-101.19-32.42-162.66-42.35a4,4,0,0,1-3.35-3.66l-4.17-58.34a4,4,0,0,1,4-4.28,4.37,4.37,0,0,1,.72.06c56.63,10.34,108,25,152.66,43.53.39.17,1,.4,1.4.54.27-.89.61-3.19-.06-8.43-1.47-11.45-5.48-13.21-7.64-14.15-31.53-13.83-66.77-25.69-104.75-35.25l-1.09-.27c-15.38-3.83-47.37-11.82-51.55-67.2L680,109.19c-1.58-22.85,1.53-38.1,9.5-46.64,4.62-4.95,10.78-7.47,18.31-7.47,6,0,11.6,1.51,16.82,3.14C781.26,76,831.55,99.94,874.09,129.51a4,4,0,0,1,1.68,2.72l7.87,55.12a4,4,0,0,1-1.82,3.94,3.94,3.94,0,0,1-2.14.62,4,4,0,0,1-2.2-.66c-37.3-24.59-82.4-45.4-134-61.86a16.33,16.33,0,0,0-4.51-1,2.32,2.32,0,0,0-1.95.72c-.77.85-2.49,3.89-1.63,13.72,1.45,16.23,10.15,18.82,14.33,20.07,35.44,10.57,67.11,22.65,94.14,35.91,29.58,14.51,46.24,33.51,49.52,56.45l6.58,47.65c2.49,19,.85,31.46-5,38.13-3.26,3.72-7.74,5.61-13.3,5.61Z"/><path d="M707.8,59.08c5.7,0,11.36,1.63,15.62,3,56.37,17.64,106.66,41.75,148.39,70.76l7.87,55.11c-37.79-24.91-84-46.07-135-62.33a19.52,19.52,0,0,0-5.73-1.18c-4.52,0-8.93,3.26-7.56,18.79,1.65,18.53,12.06,22,17.17,23.55,33.71,10.06,65.48,21.91,93.52,35.67,15.5,7.61,43.11,24,47.32,53.43L896,303.47c4.1,31.29-3.91,39.19-14.35,39.19-6.78,0-14.58-3.34-20.76-5.75-46-18-101.51-32.57-163.48-42.58L693.2,236c56.68,10.34,108,25.1,151.84,43.29a9.73,9.73,0,0,0,3.47.94c2.52,0,4.75-2.33,3.38-13-1.75-13.6-7.22-16.08-10-17.3-31.56-13.85-67-25.8-105.39-35.46-14.86-3.74-45.57-10.12-49.63-63.9L684,108.91c-2.84-41.13,10.62-49.83,23.82-49.83m0-8c-8.68,0-15.82,2.94-21.24,8.74-8.76,9.39-12.22,25.63-10.56,49.64l2.89,41.62c1.88,24.82,9.49,43.46,22.64,55.44,11.23,10.23,23.7,13.34,31.94,15.39l1.08.27c37.77,9.51,72.8,21.29,104.13,35,1.43.63,4.09,1.8,5.27,11,.1.76.17,1.45.23,2.06-44-17.89-94.29-32.07-149.54-42.15a7.79,7.79,0,0,0-1.44-.13,8,8,0,0,0-8,8.57l4.17,58.33a8,8,0,0,0,6.7,7.33c61.19,9.88,115.64,24,161.85,42.13l1.59.62c6.39,2.53,14.36,5.68,22.08,5.68,8.43,0,13.52-3.79,16.31-7,6.75-7.7,8.65-20.81,6-41.26v-.06l-6.58-47.63c-2.1-14.75-9.47-28.09-21.89-39.66-8-7.42-17.72-13.91-29.83-19.85-27.22-13.36-59.1-25.52-94.75-36.15-4.1-1.22-10.29-3.07-11.5-16.6-.52-5.91,0-8.78.37-10a24.19,24.19,0,0,1,2.45.69l.08,0c51.29,16.34,96,37,133,61.39a8,8,0,0,0,12.32-7.81l-7.87-55.12a8,8,0,0,0-3.36-5.43c-42.87-29.81-93.53-54-150.56-71.82-5.25-1.65-11.5-3.33-18-3.33Z"/></g><g id="N-2" data-name="N"><path class="cls-2" d="M677.42,295.31a5.46,5.46,0,0,1-.57,0c-11.68-1.67-23.68-3.19-35.65-4.51a4,4,0,0,1-3-1.87l-46.16-74.7,2.23,67.88a4,4,0,0,1-4,4.13H590c-14.24-1-28.77-1.73-43.2-2.23A4,4,0,0,1,543,280l-2.82-166.44a4,4,0,0,1,4-4.07h.19c13.66.65,27.42,1.62,40.89,2.87a4,4,0,0,1,3.07,1.93l44.32,74.37-3.33-66.27a4,4,0,0,1,4-4.2,3.92,3.92,0,0,1,.59,0c11.34,1.69,22.71,3.63,33.79,5.76a4,4,0,0,1,3.24,3.67l10.5,163.35a4,4,0,0,1-4,4.26Z"/><path d="M544.15,113.52q20.61,1,40.71,2.85l52.56,88.19-4.13-82.34q17.07,2.55,33.63,5.74l10.5,163.35q-17.58-2.51-35.78-4.53l-54-87.46,2.72,82.88Q569,280.73,547,280l-2.83-166.44m0-8a8,8,0,0,0-8,8.14L539,280.1A8,8,0,0,0,546.7,288c14.4.51,28.88,1.26,43.06,2.23l.55,0a8,8,0,0,0,8-8.26l-1.73-52.87L634.84,291a8,8,0,0,0,5.92,3.74c11.94,1.33,23.9,2.84,35.53,4.5a8.59,8.59,0,0,0,1.13.08,8,8,0,0,0,8-8.52L674.9,127.44a8,8,0,0,0-6.47-7.34c-11.14-2.14-22.57-4.09-34-5.79a7.81,7.81,0,0,0-1.18-.09,8,8,0,0,0-8,8.4l2.52,50.2-36.09-60.55a8,8,0,0,0-6.13-3.87c-13.53-1.25-27.35-2.22-41.07-2.87Z"/></g><g id="I-2" data-name="I"><path class="cls-2" d="M476.06,283.35a4,4,0,0,1-4-4L473.5,112.7a4,4,0,0,1,3.9-4c7.42-.18,15-.27,22.45-.27s14.88.09,22.24.26a4,4,0,0,1,3.91,4l1.42,166.61a4,4,0,0,1-4,4h-.07c-7.79-.13-15.69-.2-23.5-.2s-15.88.07-23.72.21Z"/><path d="M499.85,112.47q11.13,0,22.15.26l1.42,166.61q-11.71-.19-23.57-.2t-23.79.21l1.44-166.61q11.12-.27,22.35-.27m0-8c-7.49,0-15.08.09-22.54.27a8,8,0,0,0-7.81,7.93l-1.44,166.61a8,8,0,0,0,8,8.07h.14c7.83-.13,15.79-.2,23.65-.2s15.68.07,23.43.2h.14a8,8,0,0,0,8-8.07L530,112.66a8,8,0,0,0-7.82-7.93c-7.39-.17-14.9-.26-22.33-.26Z"/></g><g id="A-2" data-name="A"><path class="cls-2" d="M326.26,294.75a4,4,0,0,1-4-4.26l7.5-119.24c3-48.2,29.8-52.09,39.88-53.55,14.71-2.13,29.79-3.92,44.82-5.31,2.53-.24,5.28-.46,8.24-.46,10.81,0,19,3,25.07,9.15,7.59,7.73,11.29,20.33,11,37.45L456.69,280a4,4,0,0,1-3.86,3.93c-14.42.5-28.95,1.25-43.16,2.23h-.28a4,4,0,0,1-4-4.13l1.44-43.6c-13,1-25.92,2.31-38.63,3.77L366,286.55a4,4,0,0,1-3.56,3.78c-12,1.29-23.94,2.76-35.61,4.38A4.91,4.91,0,0,1,326.26,294.75Zm81.81-129.07a6.1,6.1,0,0,0-.64,0c-10.07.94-20.21,2.05-30.14,3.3-2.69.33-5.46.68-5.81,7.62l-1.14,22.9c12.44-1.52,25.12-2.83,37.8-3.9l.83-23.25c.17-4.79-.59-6.35-.82-6.71Z"/><path d="M422.71,115.93c14,0,32.71,5.26,32.07,42.54C454,203.41,452.69,280,452.69,280q-21.93.77-43.3,2.24L411,234.14q-23.7,1.8-46.6,4.53L362,286.35q-18.15,1.95-35.73,4.4s4.75-75.44,7.5-119.25,25.07-48.19,36.46-49.84q21.93-3.18,44.62-5.29c2.29-.21,5-.44,7.87-.44M366.1,204.09q22.54-2.85,45.91-4.76l.95-26.79c.35-9.74-2.69-10.86-4.89-10.86-.36,0-.71,0-1,.06q-15.3,1.42-30.27,3.31c-2.94.37-8.79,1.15-9.3,11.39s-1.39,27.65-1.39,27.65m56.61-96.16c-3.12,0-6,.23-8.61.47-15.1,1.4-30.24,3.2-45,5.34-5.27.77-16.21,2.35-25.75,11.15-10.33,9.52-16.23,25-17.56,46.11l-7.49,119.24a8,8,0,0,0,9.08,8.43c11.63-1.61,23.57-3.08,35.48-4.36a8,8,0,0,0,7.14-7.56l2-40.92c10.11-1.13,20.37-2.14,30.65-3l-1.28,39.11a8,8,0,0,0,8,8.26l.55,0c14.17-1,28.65-1.72,43-2.22a8,8,0,0,0,7.72-7.86l2.09-121.5c.31-18.24-3.78-31.8-12.15-40.32-6.75-6.87-16.14-10.35-27.92-10.35Zm-46.47,65.35a7,7,0,0,1,1.55-.29c8.95-1.13,18.08-2.14,27.18-3,0,.62,0,1.37,0,2.28L404.26,192c-9.94.87-19.88,1.89-29.69,3l.91-18.16c.12-2.53.66-3.41.76-3.56Z"/></g><g id="M-2" data-name="M"><path class="cls-2" d="M96,360.06a4,4,0,0,1-4-4.56l31.89-223.27a4,4,0,0,1,1.68-2.72,474.78,474.78,0,0,1,40.77-25.3,4,4,0,0,1,5.12,1.08l32.12,42.3,68.71-87.76a4,4,0,0,1,1.95-1.35c14.48-4.56,29.47-8.71,44.57-12.35a3.73,3.73,0,0,1,.94-.12,4,4,0,0,1,4,4.29L306.33,294.62a4,4,0,0,1-3.36,3.66c-16.34,2.64-32.5,5.65-48,8.93a3.91,3.91,0,0,1-.83.09,4,4,0,0,1-2.65-1,4,4,0,0,1-1.34-3.35l12.79-144.41-56.77,84.33a4,4,0,0,1-3.15,1.77h-.17a4,4,0,0,1-3.11-1.49L161.09,195.3,142.82,337.42a4,4,0,0,1-2.51,3.21c-15.23,6-29.52,12.35-42.48,19A4,4,0,0,1,96,360.06Z"/><path d="M319.79,50,302.34,294.33q-24.82,4-48.2,9L268.3,143.42l-65.45,97.22L158.32,185.5,138.85,336.91A463.05,463.05,0,0,0,96,356.07L127.89,132.8a468.43,468.43,0,0,1,40.43-25.09l35.26,46.43,71.9-91.85Q297.07,55.51,319.79,50m0-8a8,8,0,0,0-1.88.23c-15.18,3.66-30.27,7.84-44.83,12.42a8,8,0,0,0-3.9,2.7L203.67,141l-29-38.17a8,8,0,0,0-10.25-2.16,477.78,477.78,0,0,0-41.11,25.52,8,8,0,0,0-3.36,5.44L88.08,354.93a8,8,0,0,0,11.57,8.25,461,461,0,0,1,42.12-18.82,8,8,0,0,0,5-6.43L163.86,205.1l32.76,40.57a8,8,0,0,0,6.23,3h.34a8,8,0,0,0,6.29-3.52l48.11-71.46-11.42,129a8,8,0,0,0,8,8.7,8.5,8.5,0,0,0,1.66-.17c15.44-3.28,31.53-6.27,47.81-8.9a8,8,0,0,0,6.71-7.33L327.77,50.58a8,8,0,0,0-8-8.57Z"/></g></g></g><g id="Les"><path id="S-3" data-name="S" class="cls-3" d="M567.91,64.86c-3.6-.29-7.22-.56-10.84-.81-4.58-.3-13.78-.81-14-13.8l-.17-10c-.17-10,8.91-9.47,13.42-9.15q13,.91,25.81,2.24l.33,10q-11.64-1.19-23.47-2c-.81-.06-2.44-.18-2.33,4.64.11,5.17,1.59,5.27,2.33,5.32q5.76.41,11.47.9c4.13.35,12.33,1.15,12.75,14.13l.4,11.93c.49,14.94-7.82,14.17-12,13.83q-13.79-1.11-27.82-1.81l-.29-15q12.45.61,24.74,1.6c1,.08,3,.18,2.78-5.78S568.89,64.94,567.91,64.86Z"/><path id="E" class="cls-3" d="M477.7,89.41q11-.27,22.15-.27t21.9.26l-.11-15q-10.85-.27-21.79-.27-3.71,0-7.41,0l0-12q3.67,0,7.37,0,10.92,0,21.71.27l-.11-13q-10.74-.27-21.6-.27c-2.45,0-4.89,0-7.34,0l0-10c2.44,0,4.87,0,7.31,0q10.77,0,21.43.27v-10q-10.65-.29-21.43-.28t-21.63.28Z"/><path id="L" class="cls-3" d="M429.77,32.18q-6.13.54-12.2,1.17l-2,59.78q19.92-1.91,40.35-2.92l.25-15q-13.95.69-27.69,1.84Z"/></g><g id="Panier"><g id="Panier_Shadow_Bis" data-name="Panier Shadow Bis"><path d="M282.44,774.74a4,4,0,0,1-2.9-1.24L103.73,588.8a4,4,0,0,1-1.06-3.28l20.79-160.3a4,4,0,0,1,2.11-3l115-60.3a3.9,3.9,0,0,1,1.85-.46,4.09,4.09,0,0,1,1.38.24,4,4,0,0,1,2.33,2.25l28.15,69.32,22.94,12.34,80.68-22a4.23,4.23,0,0,1,1.06-.14,4,4,0,0,1,2,.54,4,4,0,0,1,1.87,2.46l23.83,91.83,17.7,25.28,11.38-57.13a4,4,0,0,1,3.35-3.17,3.66,3.66,0,0,1,.57-.05,4,4,0,0,1,3.54,2.14L484.65,564h34.88l22.21-155.41.27-4.81a4.64,4.64,0,0,1,4.45-4h.26a4,4,0,0,1,3.75,3.93v.49l43,98.32,19-96.63a4,4,0,0,1,2-2.74,3.92,3.92,0,0,1,1.92-.49,4.1,4.1,0,0,1,1.46.27l90.25,35.44,37.05-97.71a4,4,0,0,1,3.74-2.59,3.9,3.9,0,0,1,1.6.34l116.18,50.76a4,4,0,0,1,2,2l51.19,113.4a4,4,0,0,1-.59,4.23l-21.16,25L896,586.09a4,4,0,0,1-1.09,2.58L719.48,773.49a4,4,0,0,1-2.9,1.25Z"/><path d="M748.93,342.12l116.18,50.77,51.18,113.4-22,26.08L892,585.92,716.58,770.74H282.44L106.63,586l20.8-160.31,115-60.3L271,435.71l0,.43L271,436l26,14,.12.44,0-.69L379,427.45l23.94,92.26.07.38V520l23.47,33.53,13.21-66.32,43.21,82L483,568h40l22.73-159,.27-5,.33.76.14-.94,0,1.29L595,516l0,.12,0-.56,21.42-108.85,94,36.91,38.48-101.5m0-8a8,8,0,0,0-7.48,5.17l-35.61,93.92-86.49-33.95a8,8,0,0,0-2.92-.55,8,8,0,0,0-7.85,6.45L592,489.26l-37.58-85.9a8,8,0,0,0-7.48-7.53h-.51a8.63,8.63,0,0,0-8.45,7.74l-.25,4.64L516.06,560h-29l-40.3-76.51a8,8,0,0,0-7.08-4.28,7.52,7.52,0,0,0-1.15.09,8,8,0,0,0-6.7,6.35l-9.55,48-11.91-17-23.65-91.14a8,8,0,0,0-9.85-5.71l-79.14,21.58L277.47,430.4l-27.61-68a8,8,0,0,0-4.67-4.5,7.9,7.9,0,0,0-2.75-.49,8.07,8.07,0,0,0-3.71.91l-115,60.31a8,8,0,0,0-4.22,6.05L98.7,585a8,8,0,0,0,2.14,6.54l175.81,184.7a8,8,0,0,0,5.79,2.49H716.58a8,8,0,0,0,5.8-2.5L897.76,591.43a8,8,0,0,0,2.19-5.17l2.18-50.82,20.28-24a8,8,0,0,0,1.18-8.45L872.4,389.6a8,8,0,0,0-4.09-4L752.13,334.79a8.09,8.09,0,0,0-3.2-.67Z"/></g><g id="Panier_Shadows" data-name="Panier Shadows"><g id="R"><g id="R_-_Left" data-name="R - Left"><path class="cls-1" d="M646.66,774.74a4,4,0,0,1-3.38-6.14l123-194.14a4,4,0,0,1,3.38-1.86h.24l51.38,3.18a4,4,0,0,1,2.92,6.42L678,773.17a4,4,0,0,1-3.18,1.57Z"/><path d="M769.69,576.6l51.37,3.18-146.27,191H646.66l123-194.14m0-8a8,8,0,0,0-6.76,3.72l-123,194.14a8,8,0,0,0,6.76,12.28h28.13a8,8,0,0,0,6.36-3.14l146.26-191a8,8,0,0,0-5.86-12.85l-51.37-3.19Z"/></g><g id="R_-_Right" data-name="R - Right"><path class="cls-1" d="M716.58,774.74a4,4,0,0,1-2.9-6.76L889.05,583.17a4,4,0,0,1,2.91-1.25l.5,0,45.69,5.77a4,4,0,0,1,2.23,6.9L748,773.67a4,4,0,0,1-2.72,1.07Z"/><path d="M892,585.92l45.69,5.77-192.38,179H716.58L892,585.92m0-8a8,8,0,0,0-5.81,2.49L710.78,765.23a8,8,0,0,0,5.8,13.51h28.69a8,8,0,0,0,5.45-2.15l192.38-179a8,8,0,0,0-4.45-13.79L893,578a8.51,8.51,0,0,0-1-.06Z"/></g></g><g id="E-2" data-name="E"><path class="cls-1" d="M565.89,774.74a4,4,0,0,1-3.84-5.11l57.68-199.5a4,4,0,0,1,3.84-2.88l119.79,4a4,4,0,0,1,3.33,6L634.46,772.73a4,4,0,0,1-3.47,2Z"/><path d="M623.57,571.25l119.65,4L631,770.74h-65.1l57.68-199.49m0-8a8,8,0,0,0-7.68,5.77l-57.68,199.5a8,8,0,0,0,7.68,10.22H631a8,8,0,0,0,6.94-4L750.16,579.24a8,8,0,0,0-6.67-12l-119.65-4Z"/></g><g id="I-3" data-name="I"><path class="cls-1" d="M526,774.74a4,4,0,0,1-4-4.46l23-200.59a4,4,0,0,1,4-3.54l47.81.59a4,4,0,0,1,3.85,4.88l-45.24,200a4,4,0,0,1-3.9,3.12Z"/><path d="M549,570.15l47.76.59-45.24,200H526l23-200.59m0-8a8,8,0,0,0-7.94,7.09l-23,200.59a8,8,0,0,0,7.95,8.91h25.5a8,8,0,0,0,7.8-6.24l45.24-200a8,8,0,0,0-7.7-9.76l-47.76-.59Z"/></g><g id="N-3" data-name="N"><g id="N_-_Left-2" data-name="N - Left"><path class="cls-1" d="M448.17,774.74a4,4,0,0,1-3.9-3.12L399,571.62a4,4,0,0,1,3.85-4.88l35.41-.48a4,4,0,0,1,4,3.43L471,770.17a4,4,0,0,1-4,4.57Z"/><path d="M438.28,570.26l28.78,200.48H448.17l-45.25-200,35.36-.48m0-8h-.11l-35.36.48a8,8,0,0,0-7.69,9.76l45.25,200a8,8,0,0,0,7.8,6.24h18.89A8,8,0,0,0,475,769.6L446.2,569.13a8,8,0,0,0-7.92-6.87Z"/></g><g id="N_-_Right-2" data-name="N - Right"><path class="cls-1" d="M491,774.74a4,4,0,0,1-4-3.85l-7.75-200.77a4,4,0,0,1,4-4.15l39.44,0a4,4,0,0,1,2.91,1.25,4.06,4.06,0,0,1,1.09,3L516,771a4,4,0,0,1-4,3.79Z"/><path d="M483.27,570l39.44,0L512,770.74H491L483.27,570m0-8a8,8,0,0,0-8,8.31L483,771.05a8,8,0,0,0,8,7.69h21a8,8,0,0,0,8-7.58L530.7,570.42a8,8,0,0,0-8-8.43l-39.44,0Z"/></g></g><g id="A-3" data-name="A"><g id="A_-_Left-2" data-name="A - Left"><path class="cls-1" d="M368.71,774.74a4,4,0,0,1-3.47-2L253,577.25a4,4,0,0,1,3.3-6l35.7-1.53h.17a4,4,0,0,1,3.59,2.24l96.18,197a4,4,0,0,1-3.6,5.76Z"/><path d="M292.17,573.74l96.17,197H368.71L256.47,575.26l35.7-1.52m0-8h-.35l-35.69,1.52a8,8,0,0,0-6.6,12L361.77,774.72a8,8,0,0,0,6.94,4h19.63a8,8,0,0,0,7.19-11.51l-96.18-197a8,8,0,0,0-7.18-4.49Z"/></g><g id="A_-_Right-2" data-name="A - Right"><path class="cls-1" d="M412.78,774.74a4,4,0,0,1-3.74-2.58L333.36,573.65a4,4,0,0,1,3.64-5.42l39.6-1a4,4,0,0,1,3.85,2.9l56.73,199.5a4,4,0,0,1-3.84,5.1Z"/><path d="M376.6,571.24l56.74,199.5H412.78L337.1,572.23l39.5-1m0-8h-.2l-39.5,1a8,8,0,0,0-7.28,10.85L405.3,773.59a8,8,0,0,0,7.48,5.15h20.56A8,8,0,0,0,441,768.55L384.3,569.05a8,8,0,0,0-7.7-5.81Z"/></g></g><g id="P"><path class="cls-1" d="M254.14,774.74a4,4,0,0,1-2.73-1.08L59.62,594.57a4,4,0,0,1,2.23-6.89l44.28-5.61.5,0a4,4,0,0,1,2.9,1.24L285.34,768a4,4,0,0,1-2.9,6.76Z"/><path d="M106.63,586l175.81,184.7h-28.3L62.35,591.65,106.63,586m0-8a8.39,8.39,0,0,0-1,.06l-44.29,5.61a8,8,0,0,0-4.45,13.78L248.68,776.58a8,8,0,0,0,5.46,2.16h28.3a8,8,0,0,0,5.8-13.52L112.43,580.52a8,8,0,0,0-5.8-2.48Z"/></g></g><g id="Panier-2" data-name="Panier"><g id="R-2" data-name="R"><path class="cls-2" d="M937.65,595.69a4,4,0,0,1-.6,0c-13.2-2-28.51-3.95-45.52-5.75a4,4,0,0,1-2.81-1.63l-61.94-85.1-9.22-1.38L825,579.4a4,4,0,0,1-4,4.38h-.28c-16.27-1.15-33.53-2.22-51.31-3.18A4,4,0,0,1,765.7,577L744.94,342.48a4,4,0,0,1,4-4.36,4.76,4.76,0,0,1,.75.07c43.44,8.36,82.86,18.83,117.17,31.12,21,7.52,46,22.41,53,71.24l5,34.8c2.25,15.76.53,26.66-5.27,33.35-4.13,4.76-10.29,7.18-18.28,7.18a77.36,77.36,0,0,1-15.56-2l55.21,75.48a4,4,0,0,1-3.23,6.36ZM811.48,443.81c20.15,3.71,39.2,7.8,56.67,12.18a15.23,15.23,0,0,0,3.25.57,2.17,2.17,0,0,0,.43,0,6.62,6.62,0,0,0,0-2.63l-2.55-19.84c-.63-4.9-4.57-6.42-8.55-7.57-16.29-4.68-33.92-9.08-52.49-13.09Z"/><path d="M748.93,342.12c43.37,8.35,82.65,18.8,116.57,30.95,15.68,5.62,43.16,17.73,50.35,68.05l5,34.79c4.22,29.55-6.91,36-19.59,36-6.25,0-12.88-1.56-18.23-2.68-2.21-.47-4.44-.93-6.71-1.39l61.36,83.88c-13.36-2-28.66-4-45.69-5.77L829,499.47q-7.83-1.22-15.95-2.36l8,82.67c-16.27-1.15-33.43-2.21-51.37-3.18L748.93,342.12M871.4,460.56c2.72,0,5.17-1.35,4.43-7.17l-2.56-19.84c-1-7.83-7.88-9.89-11.41-10.9-18-5.17-37.42-10-58.14-14.31l4.1,38.86c21.23,3.85,41.08,8.09,59.35,12.67a18.24,18.24,0,0,0,4.23.69M748.93,334.12a8,8,0,0,0-8,8.71L761.72,577.3a8,8,0,0,0,7.54,7.29c17.78,1,35,2,51.24,3.17l.56,0a8,8,0,0,0,8-8.77l-7-72.51,2.5.37,61,83.76a8,8,0,0,0,5.62,3.24c16.94,1.8,32.19,3.73,45.34,5.73a8.08,8.08,0,0,0,1.2.09A8,8,0,0,0,944.11,587l-49.37-67.5a55.84,55.84,0,0,0,6.49.41c9.21,0,16.37-2.88,21.3-8.56,6.6-7.61,8.63-19.56,6.21-36.54l-5-34.79c-3.37-23.6-11.51-42.18-24.17-55.23C889.14,374,877.86,369,868.2,365.54c-34.51-12.36-74.13-22.88-117.76-31.27a7.81,7.81,0,0,0-1.51-.15Zm66.22,106.3-2.32-21.92c16.5,3.66,32.21,7.63,46.82,11.84,4.57,1.31,5.45,2.36,5.69,4.23l2.21,17.14c-16.27-4-33.86-7.83-52.4-11.29Z"/></g><g id="E-3" data-name="E"><path class="cls-2" d="M743,579.26c-37.64-1.77-77.86-3.12-119.55-4a4,4,0,0,1-3.91-3.83l-7.15-164.54a4,4,0,0,1,4-4.17h.24c39.71,2.37,78.22,6,114.47,10.72a4,4,0,0,1,3.47,3.65l2.81,35.23a4,4,0,0,1-4,4.32l-.45,0c-23.38-2.65-47.89-4.91-72.92-6.72l1,18.66c25.51,1.62,50.47,3.63,74.26,6a4,4,0,0,1,3.59,3.7l2.53,35a4,4,0,0,1-4,4.29h-.33c-23.6-1.91-48.37-3.55-73.7-4.86l.88,16.35c26.18,1.13,51.79,2.55,76.17,4.22a4,4,0,0,1,3.72,3.67l3,38a4,4,0,0,1-1.11,3.1,4,4,0,0,1-2.88,1.22Z"/><path d="M616.43,406.71c40.16,2.4,78.44,6,114.19,10.7l2.82,35.23c-24.72-2.8-50.66-5.16-77.61-7.05l1.43,26.74c27,1.67,52.94,3.75,77.66,6.21l2.53,35c-24.89-2-51.05-3.72-78.26-5.09l1.31,24.41c27.74,1.17,54.39,2.63,79.7,4.37l3,38c-37.21-1.75-77.35-3.11-119.65-4l-7.14-164.54m0-8a8,8,0,0,0-8,8.34l7.14,164.54a8,8,0,0,0,7.82,7.65c41.66.9,81.85,2.25,119.45,4h.37a8,8,0,0,0,8-8.63l-3-38a8,8,0,0,0-7.43-7.35c-23.26-1.59-47.66-2.95-72.64-4.06l-.44-8.28c23.74,1.27,47,2.82,69.14,4.61.22,0,.43,0,.65,0a8,8,0,0,0,8-8.58l-2.53-35a8,8,0,0,0-7.18-7.39c-22.74-2.26-46.54-4.2-70.85-5.78l-.57-10.58c23.41,1.75,46.32,3.89,68.24,6.37a6.79,6.79,0,0,0,.9.05,8,8,0,0,0,8-8.64l-2.81-35.23a8,8,0,0,0-6.94-7.29c-36.35-4.76-75-8.37-114.75-10.76Z"/></g><g id="I-4" data-name="I"><path class="cls-2" d="M596.69,574.74c-15.8-.26-31.86-.46-47.72-.59a4,4,0,0,1-4-3.94l-2.53-166.33a4,4,0,0,1,4-4.06h.09c15.09.35,30.27.88,45.14,1.57a4,4,0,0,1,3.81,3.87l5.25,165.35a4,4,0,0,1-4,4.13Z"/><path d="M546.47,403.82q22.83.53,45,1.56l5.25,165.36q-23.5-.39-47.76-.59l-2.53-166.33m0-8a8,8,0,0,0-8,8.12L541,570.27a8,8,0,0,0,7.94,7.88c16,.13,32,.33,47.69.59h.13a8,8,0,0,0,8-8.26l-5.25-165.35a8,8,0,0,0-7.63-7.74c-14.89-.69-30.1-1.22-45.23-1.57Z"/></g><g id="N-4" data-name="N"><path class="cls-2" d="M402.92,574.74a4,4,0,0,1-4-4.13l5.27-165.35a4,4,0,0,1,3.81-3.87c11-.51,22.15-.93,33.25-1.26h.12a4,4,0,0,1,3.57,2.19l34.51,67.94.73-67a4,4,0,0,1,4-4q7.83-.06,15.7-.06c7.21,0,14.49,0,21.65.12a4,4,0,0,1,4,4L526.71,570a4,4,0,0,1-4,4h0q-11.37,0-22.85,0l-16.57,0h0a4,4,0,0,1-3.54-2.14l-36.31-68.94-1.14,67.44a4,4,0,0,1-4,3.93c-11.87.13-23.76.29-35.33.48Z"/><path d="M499.85,403.28q10.86,0,21.61.12L522.71,570q-11.37,0-22.86,0-8.33,0-16.58,0l-43.59-82.76-1.4,83.05q-17.88.19-35.36.48l5.27-165.36q16.41-.75,33.18-1.25l41.9,82.48.91-83.27q7.81-.06,15.67-.06m0-8c-5.23,0-10.52,0-15.73.06a8,8,0,0,0-7.94,7.91l-.55,50.66-27.13-53.4a8,8,0,0,0-7.13-4.38h-.23c-11.13.33-22.34.75-33.32,1.26a8,8,0,0,0-7.63,7.74l-5.27,165.35a8,8,0,0,0,8,8.26h.13c11.64-.2,23.52-.36,35.31-.48a8,8,0,0,0,7.92-7.86l.87-51.84L476.2,573.7a8,8,0,0,0,7.07,4.27h0q8.24,0,16.55,0c7.59,0,15.27,0,22.83,0h0a8,8,0,0,0,8-8.06l-1.25-166.59a8,8,0,0,0-7.92-7.94c-7.18-.08-14.48-.12-21.69-.12Z"/></g><g id="A-4" data-name="A"><path class="cls-2" d="M256.47,579.26a4,4,0,0,1-2.88-1.22,4,4,0,0,1-1.11-3.1l9.19-115c3.72-46.53,29.57-49.31,40.61-50.5,14.08-1.52,28.6-2.89,43.18-4.07,2.19-.18,4.54-.35,7.09-.35,9.94,0,17.46,2.79,23,8.54,7.3,7.6,10.64,20.32,9.93,37.79L380.6,571.4a4,4,0,0,1-3.91,3.83c-13.31.29-26.59.62-39.48,1h-.11a4,4,0,0,1-4-4.22l2.29-42.72c-12.4.57-24.72,1.21-36.75,1.92L296.16,574a4,4,0,0,1-3.84,3.77c-12,.46-24,1-35.67,1.52ZM338,457.84c-.55,0-1.06,0-1.48.07-10.56.75-21.11,1.59-31.37,2.48-1.58.14-1.71.15-1.83,1.9l-1.85,27.17c12.21-.89,24.73-1.69,37.32-2.41l.57-28.69a2.13,2.13,0,0,0,0-.38A4.89,4.89,0,0,0,338,457.84Z"/><path d="M352.55,409c12.93,0,30.43,4.84,28.92,42.17L376.6,571.24q-20.09.42-39.5,1l2.52-47.14q-22.9,1-44.77,2.33l-2.68,46.32q-18.26.71-35.7,1.52l9.19-115c3.42-42.85,25.62-45.61,37-46.84q21.06-2.28,43.07-4.06c2-.16,4.29-.34,6.77-.34m-55.4,84.77q22.23-1.65,45.56-2.95l.64-32.39c.08-4-2.92-4.6-5.36-4.6-.65,0-1.26,0-1.77.08q-16,1.14-31.42,2.49c-1.72.15-5.12.44-5.48,5.61l-2.17,31.76M352.55,401c-2.7,0-5.15.18-7.42.36-14.6,1.19-29.16,2.56-43.27,4.08-5.74.62-16.42,1.77-25.82,9.64-10.52,8.81-16.7,23.79-18.36,44.52l-9.19,115a8,8,0,0,0,8,8.64h.37c11.59-.54,23.58-1,35.63-1.52a8,8,0,0,0,7.68-7.53L302.43,535c9.44-.54,19.05-1,28.73-1.5l-2.05,38.31a8,8,0,0,0,8,8.43h.23c12.93-.37,26.2-.7,39.44-1a8,8,0,0,0,7.83-7.67l4.86-120c.76-18.87-2.85-32.19-11-40.73-6.31-6.57-14.77-9.77-25.86-9.77Zm-45.36,63.22c9.23-.8,18.66-1.54,28.09-2.22l-.42,21.26c-9.79.57-19.53,1.2-29.1,1.87l1.43-20.91Z"/></g><g id="P-2" data-name="P"><path class="cls-2" d="M62.35,595.65a4,4,0,0,1-4-4.57L87.08,390.25a4,4,0,0,1,2.25-3.05c31-14.67,68.48-27.52,111.51-38.22a73,73,0,0,1,17.65-2.62c9.35,0,16.8,3,22.13,8.79,8,8.72,11,23.23,9.09,44.34l-3.54,40.05c-2,23.08-10.31,39.89-24.56,50-11.86,8.38-25,10.23-33.67,11.46l-.8.11c-24.19,3.44-46.66,7.29-66.83,11.46-.76,6-2.64,20.8-4.54,35.58-1.24,9.61-2.48,19.22-3.44,26.43-.49,3.62-.9,6.64-1.2,8.75-.59,4.12-.91,6.39-4.08,6.73-16.42,1.75-31.26,3.63-44.1,5.58A4,4,0,0,1,62.35,595.65ZM127.44,457c16.71-4.29,34.87-8.31,54.09-12,3.79-.72,6.7-1.69,7.26-7L191,416.8a3.14,3.14,0,0,0-.17-1.94,3.62,3.62,0,0,0-2.21-.44,28.51,28.51,0,0,0-5.69.85c-18.4,4.16-35.84,8.71-51.89,13.54Z"/><path d="M218.49,350.36c15,0,30.82,8.28,27.24,48.78l-3.55,40c-4.56,51.55-39.37,55.63-55.6,57.93-25.46,3.62-48.88,7.67-69.88,12.09,0,0-9.7,76.8-10.07,76.84-16.46,1.76-31.28,3.64-44.28,5.61L91,390.81c30.67-14.52,68.1-27.34,110.76-37.94a70,70,0,0,1,16.69-2.51m-95.77,112c18.21-4.84,38.14-9.33,59.56-13.41,3.16-.6,9.57-1.79,10.49-10.51L195,417.22c.58-5.44-2.69-6.8-6.36-6.8a31,31,0,0,0-6.57.95c-19.51,4.41-37.78,9.21-54.65,14.36l-4.71,36.67m95.77-120a76.74,76.74,0,0,0-18.62,2.74c-43.28,10.76-81.05,23.71-112.26,38.48a8,8,0,0,0-4.49,6.1L54.43,590.52a8,8,0,0,0,7.92,9.13,8.08,8.08,0,0,0,1.2-.09c12.79-1.94,27.57-3.82,43.93-5.57a8,8,0,0,0,7.06-6.61c0-.21.1-.53.16-.93.1-.6.23-1.48.39-2.59.29-2,.69-5,1.2-8.79.85-6.38,2-15.28,3.45-26.45,1.64-12.75,3.27-25.61,4.18-32.75,19.36-3.93,40.79-7.57,63.78-10.84l.8-.11c8.52-1.2,22.77-3.21,35.42-12.15C239.17,482,248,464.2,250.15,439.89l3.55-40.05c2-22.29-1.34-37.8-10.13-47.4-6.12-6.68-14.56-10.08-25.08-10.08ZM134.7,431.9c15.28-4.53,31.78-8.81,49.14-12.73.78-.17,1.89-.42,3-.59l-2,19.06c-.27,2.59-.8,2.88-4,3.48-17.16,3.27-33.47,6.82-48.66,10.59l2.54-19.81Z"/></g></g></g><g id="Au"><path id="U" class="cls-4" d="M543,380.45q-7.71-.18-15.48-.3c-5.14-.07-15.48-.2-15.74-17.2V320q7.6.06,15.15.2l.4,41c0,2,.8,2,1.19,2q6.5.1,12.94.26c.43,0,1.28,0,1.25-1.77l-.62-41.13q6.81.18,13.57.44l.84,42.87C556.88,380.82,547.67,380.56,543,380.45Z"/><path id="A-5" data-name="A" class="cls-4" d="M474.33,320.16q-7.6.13-15.15.33c-5.08.14-15.17.47-15.47,15.72l-.89,44.62q7.71-.24,15.48-.42l.25-17q7.67-.18,15.39-.29l-.16,17q6.9-.09,13.85-.14l.26-44.72C487.89,320,478.84,320.09,474.33,320.16Zm-.27,30q-7.69.11-15.32.27l.19-13.11c0-1.54,1.06-1.55,1.58-1.56q6.12-.15,12.3-.25c.46,0,1.38,0,1.37,1.42Z"/></g><g id="Ball"><circle id="Fill" class="cls-5" cx="499.85" cy="795.86" r="174.95"/><path class="cls-6" d="M483.5,907a227.62,227.62,0,0,1-149.62-55.79c.47,1.39.95,2.78,1.45,4.17a175,175,0,0,0,339.33-51.69A228.26,228.26,0,0,1,483.5,907Z"/><path class="cls-7" d="M453.53,661.55A208.53,208.53,0,0,1,630.4,679.34,175,175,0,0,0,324.9,800C341.09,738.11,387.36,684.9,453.53,661.55Z"/><circle id="External" class="cls-8" cx="499.85" cy="795.86" r="174.95"/><g id="Internal"><path class="cls-9" d="M325.36,809.16a241.42,241.42,0,0,1,316-116.3"/><path class="cls-9" d="M546.4,964.52c-37.63-59-73.62-132.39-103.27-214.37-12.87-35.57-23.79-70.66-32.74-104.66"/><path class="cls-9" d="M510.86,621.23s-55.86,19.69-40.56,62c34.21,94.56,158.37,89.83,191,180"/><path class="cls-9" d="M354.79,698.06a44.2,44.2,0,0,1,34.71,29c27.63,76.37-13,113.39,26.39,222.26"/></g></g></svg>