<svg id="Calque_1" data-name="Calque 1" xmlns="http://www.w3.org/2000/svg" viewBox="0 0 100 100"><defs><style>.cls-1{fill:none;stroke:#231f20;stroke-linecap:square;stroke-miterlimit:10;stroke-width:2.4px;}</style></defs><title>phenomena-logo</title><path class="cls-1" d="M49.8,35.3A29.36,29.36,0,0,0,24.37,50a29.35,29.35,0,0,0,50.86,0A29.36,29.36,0,0,0,49.8,35.3Z"/><circle class="cls-1" cx="49.8" cy="49.88" r="11.02"/><path d="M49.8,43.27a6.61,6.61,0,1,1-6.61,6.61A6.54,6.54,0,0,0,49.8,43.27Z"/><path class="cls-1" d="M10.19,36.48V13.66h7.19a6.76,6.76,0,1,1,0,13.52H10.19"/><line class="cls-1" x1="29.63" y1="4.07" x2="29.63" y2="26.89"/><line class="cls-1" x1="45.62" y1="4.07" x2="45.62" y2="26.89"/><line class="cls-1" x1="29.63" y1="15.48" x2="45.62" y2="15.48"/><polyline class="cls-1" points="65.53 6.27 52.74 6.27 52.74 24.49 65.53 24.49"/><line class="cls-1" x1="64.52" y1="15.32" x2="52.74" y2="15.32"/><polyline class="cls-1" points="72.22 35.28 72.22 12.46 88.21 35.28 88.21 12.46"/><line class="cls-1" x1="52.74" y1="1.67" x2="65.53" y2="1.67"/><polyline class="cls-1" points="53.47 95.93 53.47 73.11 69.46 95.93 69.46 73.11"/><polyline class="cls-1" points="7.54 88.74 7.54 65.92 17.86 81.47 28.18 65.92 28.18 88.74"/><polyline class="cls-1" points="76.15 86.34 85.3 63.52 94.46 86.34"/><line class="cls-1" x1="76.15" y1="77.03" x2="94.46" y2="77.03"/><polyline class="cls-1" points="47.22 93.73 34.43 93.73 34.43 75.51 47.22 75.51"/><line class="cls-1" x1="46.2" y1="84.68" x2="34.43" y2="84.68"/><line class="cls-1" x1="34.43" y1="98.33" x2="47.22" y2="98.33"/></svg>