<?xml version="1.0" encoding="utf-8"?>
<!-- Generator: Adobe Illustrator 22.1.0, SVG Export Plug-In . SVG Version: 6.00 Build 0)  -->
<svg version="1.1" id="Calque_1" xmlns="http://www.w3.org/2000/svg" xmlns:xlink="http://www.w3.org/1999/xlink" x="0px" y="0px"
	 viewBox="0 0 100 100" style="enable-background:new 0 0 100 100;" xml:space="preserve">
<style type="text/css">
	.st0{fill:none;stroke:#000000;stroke-width:2.4;stroke-linecap:square;stroke-miterlimit:10;}
</style>
<title>phenomena-logo</title>
<path class="st0" d="M49.8,35.3c-10.5,0-20.2,5.6-25.4,14.7c8.1,14,26,18.9,40.1,10.8c4.5-2.6,8.2-6.3,10.8-10.8
	C70,40.9,60.3,35.3,49.8,35.3z"/>
<circle class="st0" cx="49.8" cy="49.9" r="11"/>
<path d="M49.8,43.3c3.7,0,6.6,3,6.6,6.6c0,3.7-3,6.6-6.6,6.6s-6.6-3-6.6-6.6c3.6,0,6.6-2.9,6.6-6.5C49.8,43.4,49.8,43.3,49.8,43.3z"
	/>
<path class="st0" d="M10.2,36.5V13.7h7.2c3.7,0,6.8,3,6.8,6.8s-3,6.8-6.8,6.8h-7.2"/>
<line class="st0" x1="29.6" y1="4.1" x2="29.6" y2="26.9"/>
<line class="st0" x1="45.6" y1="4.1" x2="45.6" y2="26.9"/>
<line class="st0" x1="29.6" y1="15.5" x2="45.6" y2="15.5"/>
<polyline class="st0" points="65.5,6.3 52.7,6.3 52.7,24.5 65.5,24.5 "/>
<line class="st0" x1="64.5" y1="15.3" x2="52.7" y2="15.3"/>
<polyline class="st0" points="72.2,35.3 72.2,12.5 88.2,35.3 88.2,12.5 "/>
<line class="st0" x1="52.7" y1="1.7" x2="65.5" y2="1.7"/>
<polyline class="st0" points="53.5,95.9 53.5,73.1 69.5,95.9 69.5,73.1 "/>
<polyline class="st0" points="7.5,88.7 7.5,65.9 17.9,81.5 28.2,65.9 28.2,88.7 "/>
<polyline class="st0" points="76.2,86.3 85.3,63.5 94.5,86.3 "/>
<line class="st0" x1="76.2" y1="77" x2="94.5" y2="77"/>
<polyline class="st0" points="47.2,93.7 34.4,93.7 34.4,75.5 47.2,75.5 "/>
<line class="st0" x1="46.2" y1="84.7" x2="34.4" y2="84.7"/>
<line class="st0" x1="34.4" y1="98.3" x2="47.2" y2="98.3"/>
</svg>
