<?xml version="1.0" encoding="utf-8"?>
<!-- Generator: Adobe Illustrator 20.1.0, SVG Export Plug-In . SVG Version: 6.00 Build 0)  -->
<svg version="1.1" id="Calque_1" xmlns="http://www.w3.org/2000/svg" xmlns:xlink="http://www.w3.org/1999/xlink" x="0px" y="0px"
	 viewBox="0 0 193.2 34.7" style="enable-background:new 0 0 193.2 34.7;" xml:space="preserve">
<style type="text/css">
	.st0{fill:#FFFFFF;}
</style>
<path class="st0" d="M92.7,0C81.2,0,70.3,6.1,64.5,16.3l-0.6,1.2l0.6,1.2C70.3,28.8,81,34.9,92.7,34.9c11.5,0,22.4-6.1,28.2-16.3
	l0.6-1.2l-0.6-1.2C115.1,6.3,104.2,0,92.7,0z M93.5,26.4c-5,0-8.9-4-8.9-8.9s4-8.9,8.9-8.9c5,0,8.9,4,8.9,8.9S98.4,26.4,93.5,26.4z
	 M69.3,17.5c4.2-6.5,10.9-10.9,18.4-12.3C83.2,7.3,80,12.1,80,17.5s3.2,10.1,7.9,12.3C80,28.4,73.2,24,69.3,17.5z M100.6,29.1
	c4-2.4,6.5-6.7,6.5-11.7s-2.6-9.3-6.5-11.7c6.3,1.8,11.9,5.9,15.7,11.7C112.5,23.2,107,27.2,100.6,29.1z"/>
<path class="st0" d="M93.5,10.7c0,3.4-2.8,6.7-6.7,6.7c0,3.8,3,6.7,6.7,6.7s6.7-3,6.7-6.7S97.2,10.7,93.5,10.7z"/>
<path class="st0" d="M4.3,11.1H0v12.9h1.2v-4.7h3.1c2.3,0,4.1-1.8,4.1-4.1C8.4,13,6.6,11.1,4.3,11.1z M4.3,18.1H1.2v-5.7h3.1
	c1.6,0,2.9,1.3,2.9,2.9S5.9,18.1,4.3,18.1z"/>
<polygon class="st0" points="21.4,16.5 12.7,16.5 12.7,9.2 11.2,9.2 11.2,16.5 11.2,18.1 11.2,25.4 12.7,25.4 12.7,18.1 21.4,18.1 
	21.4,25.4 23,25.4 23,18.1 23,16.5 23,9.2 21.4,9.2 "/>
<polygon class="st0" points="58.1,24 42.1,1.2 42.1,29 44.5,29 44.5,8.8 60.5,31.6 60.5,3.8 58.1,3.8 "/>
<polygon class="st0" points="26.4,17.3 26.4,19.2 26.4,26.6 38.6,26.6 38.6,24.7 28.3,24.7 28.3,19.2 37.8,19.2 37.8,17.3 
	28.3,17.3 28.3,12 38.6,12 38.6,10.1 26.4,10.1 "/>
<rect x="26.4" y="6.4" class="st0" width="12.2" height="1.9"/>
<polygon class="st0" points="177.2,23.6 167,9 167,26.8 168.5,26.8 168.5,13.8 178.8,28.4 178.8,10.6 177.2,10.6 "/>
<polygon class="st0" points="124.9,3.3 124.9,31.3 127.3,31.3 127.3,11.3 136.4,25 145.5,11.3 145.5,31.3 147.9,31.3 147.9,3.3 
	136.4,20.6 "/>
<path class="st0" d="M192.1,25.8l1.1-0.5l-1.8-4.5h1.6v-1.2h-2.1l-3.2-7.9l-3.2,7.9h-2.1v1.2h1.6l-1.8,4.5l1.1,0.5l2-5h4.7
	L192.1,25.8z M185.9,19.6l1.9-4.7l1.8,4.7H185.9z"/>
<polygon class="st0" points="151.4,15.6 151.4,17.5 151.4,24.7 163.5,24.7 163.5,22.8 153.3,22.8 153.3,17.5 162.7,17.5 162.7,15.6 
	153.3,15.6 153.3,10.2 163.5,10.2 163.5,8.3 151.4,8.3 "/>
<rect x="151.4" y="26.5" class="st0" width="12.2" height="1.9"/>
</svg>
