<?xml version="1.0" encoding="utf-8"?>
<!-- Generator: Adobe Illustrator 22.1.0, SVG Export Plug-In . SVG Version: 6.00 Build 0)  -->
<svg version="1.1" id="Phenomena_Logo" xmlns="http://www.w3.org/2000/svg" xmlns:xlink="http://www.w3.org/1999/xlink" x="0px"
	 y="0px" viewBox="0 0 100 100" style="enable-background:new 0 0 100 100;" xml:space="preserve">
<style type="text/css">
	.st0{opacity:0;}
</style>
<rect class="st0" width="100" height="100"/>
<path id="Pupil" d="M51,46.2c0,2.5-2,4.6-4.6,4.6c0,2.5,2,4.6,4.6,4.6s4.6-2,4.6-4.6C55.6,48.3,53.6,46.2,51,46.2z"/>
<path id="Iris" d="M51,40.3c-5.8,0-10.4,4.7-10.4,10.4S45.3,61.2,51,61.2s10.4-4.7,10.4-10.4S56.8,40.3,51,40.3z M51,58.6
	c-4.3,0-7.8-3.5-7.8-7.8c0-4.3,3.5-7.8,7.8-7.8c4.3,0,7.8,3.5,7.8,7.8C58.8,55.1,55.3,58.6,51,58.6z"/>
<path id="Eyes" d="M51,36.4c-9.7,0-18.8,5.2-23.7,13.7L27,50.8l0.4,0.7c4.9,8.4,14,13.7,23.7,13.7c9.7,0,18.8-5.2,23.7-13.7l0.4-0.7
	l-0.4-0.7C69.9,41.7,60.8,36.4,51,36.4z M51,62.5c-8.5,0-16.5-4.5-21-11.7c4.5-7.2,12.5-11.7,21-11.7c8.5,0,16.5,4.5,21,11.7
	C67.6,58,59.6,62.5,51,62.5z"/>
<path id="A" d="M90,90l2.5-0.8l-2.2-7.4h1.9v-2.6h-2.7L84.1,61l-5.5,18.2h-2.7v2.6h1.9l-2.2,7.4l2.5,0.8l2.4-8.1h7L90,90z
	 M81.3,79.3l2.7-9.1l2.7,9.1H81.3z"/>
<polygon id="N2" points="67.6,91.3 53.9,71.7 53.9,100 56.6,100 56.6,80.1 70.2,99.6 70.2,71.3 67.6,71.3 "/>
<rect id="E2_Bar" x="31.9" y="96.1" width="16.3" height="2.6"/>
<polygon id="E2" points="31.9,83 31.9,85.7 31.9,92.2 48.2,92.2 48.2,89.6 34.6,89.6 34.6,85.7 43.7,85.7 43.7,83 34.6,83 
	34.6,72.6 48.2,72.6 48.2,70 31.9,70 "/>
<polygon id="M1" points="7.8,61.9 7.8,89.8 10.4,89.8 10.4,69.5 18.1,79.3 25.8,69.5 25.8,89.8 28.4,89.8 28.4,61.9 18.1,75 "/>
<polygon id="N1" points="78.5,20.6 92.2,40.1 92.2,11.9 89.6,11.9 89.6,31.8 75.9,12.3 75.9,40.5 78.5,40.5 "/>
<rect id="E1_Bar" x="53.9" width="16.3" height="2.6"/>
<polygon id="E1" points="70.2,26 56.6,26 56.6,22.2 65.7,22.2 65.7,19.5 56.6,19.5 56.6,9.1 70.2,9.1 70.2,6.5 53.9,6.5 53.9,19.5 
	53.9,22.2 53.9,28.7 70.2,28.7 "/>
<polygon id="H" points="34.6,22.3 45.6,22.3 45.6,30.1 48.2,30.1 48.2,22.3 48.2,19.7 48.2,1.4 45.6,1.4 45.6,19.7 34.6,19.7 
	34.6,1.4 31.9,1.4 31.9,19.7 31.9,22.3 31.9,30.1 34.6,30.1 "/>
<path id="P" d="M14.9,32.2c1,0.3,2.1,0.5,3.2,0.5c5.8,0,10.4-4.7,10.4-10.4c0-5.8-4.7-10.4-10.4-10.4h-5.9v28.7h2.6V32.2z
	 M14.9,14.5h3.2c4.3,0,7.8,3.5,7.8,7.8c0,4.3-3.5,7.8-7.8,7.8c-1.1,0-2.2-0.2-3.2-0.7V14.5z"/>
</svg>
