<?xml version="1.0" encoding="utf-8"?>
<!-- Generator: Adobe Illustrator 24.1.2, SVG Export Plug-In . SVG Version: 6.00 Build 0)  -->
<svg version="1.1" id="Phenomena_Logo" xmlns="http://www.w3.org/2000/svg" xmlns:xlink="http://www.w3.org/1999/xlink" x="0px"
	 y="0px" viewBox="0 0 100 100" style="enable-background:new 0 0 100 100;" xml:space="preserve">
<style type="text/css">
	.st0{fill-opacity:0;}
	.st1{display:none;}
	.st2{display:inline;fill:none;stroke:#00FFFF;stroke-width:0.1;stroke-miterlimit:10;}
	.st3{stroke:#FFFFFF;stroke-width:0.1;stroke-miterlimit:10;}
	.st4{display:inline;fill:none;stroke:#C5FFFC;stroke-width:0.15;stroke-miterlimit:10;}
	.st5{display:inline;fill:none;stroke:#C5FFFC;stroke-width:0.1667;stroke-miterlimit:10;}
	.st6{display:inline;}
	.st7{fill:none;stroke:#000000;stroke-miterlimit:10;}
	.st8{display:inline;fill:none;stroke:#000000;stroke-miterlimit:10;}
</style>
<rect x="-120" y="0" class="st0" width="100" height="100"/>
<path id="Pupil" d="M-69,46.2c0,2.5-2,4.6-4.6,4.6c0,2.5,2,4.6,4.6,4.6s4.6-2,4.6-4.6C-64.4,48.3-66.4,46.2-69,46.2z"/>
<path id="Iris" d="M-69,40.3c-5.8,0-10.4,4.7-10.4,10.4s4.7,10.5,10.4,10.5s10.4-4.7,10.4-10.4S-63.2,40.3-69,40.3z M-69,58.6
	c-4.3,0-7.8-3.5-7.8-7.8S-73.3,43-69,43s7.8,3.5,7.8,7.8S-64.7,58.6-69,58.6z"/>
<path id="Eyes" d="M-69,36.4c-9.7,0-18.8,5.2-23.7,13.7l-0.3,0.7l0.4,0.7c4.9,8.4,14,13.7,23.7,13.7s18.8-5.2,23.7-13.7l0.4-0.7
	l-0.4-0.7C-50.1,41.7-59.2,36.4-69,36.4z M-69,62.5c-8.5,0-16.5-4.5-21-11.7c4.5-7.2,12.5-11.7,21-11.7s16.5,4.5,21,11.7
	C-52.4,58-60.4,62.5-69,62.5z"/>
<path id="A" d="M-30,90l2.5-0.8l-2.2-7.4h1.9v-2.6h-2.7L-35.9,61l-5.5,18.2h-2.7v2.6h1.9l-2.2,7.4l2.5,0.8l2.4-8.1h7L-30,90z
	 M-38.7,79.3l2.7-9.1l2.7,9.1H-38.7z"/>
<polygon id="N2" points="-52.4,91.3 -66.1,71.7 -66.1,100 -63.4,100 -63.4,80.1 -49.8,99.6 -49.8,71.3 -52.4,71.3 "/>
<rect id="E2_Bar" x="-88.1" y="96.1" width="16.3" height="2.6"/>
<polygon id="E2" points="-88.1,83 -88.1,85.7 -88.1,92.2 -71.8,92.2 -71.8,89.6 -85.4,89.6 -85.4,85.7 -76.3,85.7 -76.3,83 
	-85.4,83 -85.4,72.6 -71.8,72.6 -71.8,70 -88.1,70 "/>
<polygon id="M1" points="-112.2,61.9 -112.2,89.8 -109.6,89.8 -109.6,69.5 -101.9,79.3 -94.2,69.5 -94.2,89.8 -91.6,89.8 
	-91.6,61.9 -101.9,75 "/>
<polygon id="N1" points="-41.5,20.6 -27.8,40.1 -27.8,11.9 -30.4,11.9 -30.4,31.8 -44.1,12.3 -44.1,40.5 -41.5,40.5 "/>
<rect id="E1_Bar" x="-66.1" y="0" width="16.3" height="2.6"/>
<polygon id="E1" points="-49.8,26 -63.4,26 -63.4,22.2 -54.3,22.2 -54.3,19.5 -63.4,19.5 -63.4,9.1 -49.8,9.1 -49.8,6.5 -66.1,6.5 
	-66.1,19.5 -66.1,22.2 -66.1,28.7 -49.8,28.7 "/>
<polygon id="H" points="-85.4,22.3 -74.4,22.3 -74.4,30.1 -71.8,30.1 -71.8,22.3 -71.8,19.7 -71.8,1.4 -74.4,1.4 -74.4,19.7 
	-85.4,19.7 -85.4,1.4 -88.1,1.4 -88.1,19.7 -88.1,22.3 -88.1,30.1 -85.4,30.1 "/>
<path id="P" d="M-105.1,32.2c1,0.3,2.1,0.5,3.2,0.5c5.8,0,10.4-4.7,10.4-10.4c0-5.8-4.7-10.4-10.4-10.4h-5.9v28.7h2.6v-8.4
	C-105.2,32.2-105.1,32.2-105.1,32.2z M-105.1,14.5h3.2c4.3,0,7.8,3.5,7.8,7.8s-3.5,7.8-7.8,7.8c-1.1,0-2.2-0.2-3.2-0.7
	C-105.1,29.4-105.1,14.5-105.1,14.5z"/>
<g id="A3">
	<g class="st1">
		<circle class="st2" cx="80.8" cy="64.4" r="8"/>
		<circle class="st2" cx="80.8" cy="64.4" r="6"/>
	</g>
	<path d="M80.8,56.4c-1.5,0-2.8,0.4-4,1.1v22.9h2v-7h8v7h2v-16C88.8,59.9,85.2,56.4,80.8,56.4z M86.8,71.4h-8V58.7
		c0.6-0.2,1.3-0.3,2-0.3c3.3,0,6,2.7,6,6V71.4z"/>
</g>
<polygon points="68.9,7.7 68.9,9.7 58.9,9.7 58.9,22.7 64.9,22.7 64.9,24.7 58.9,24.7 58.9,29.7 68.9,29.7 68.9,31.7 56.9,31.7 
	56.9,7.7 "/>
<rect x="56.9" y="3.6" width="12" height="2"/>
<rect x="37" y="93.9" width="12" height="2"/>
<polygon points="49,68 49,70 39,70 39,83 45,83 45,85 39,85 39,90 49,90 49,92 37,92 37,68 "/>
<g id="H1">
	<polygon points="35.2,6.6 37.2,6.6 37.2,21.6 45.2,21.6 45.2,6.6 47.2,6.6 47.2,30.6 45.2,30.6 45.2,23.6 37.2,23.6 37.2,30.6 
		35.2,30.6 	"/>
</g>
<g id="M1_1_">
	<polygon points="14,83.1 14,56.9 22,72.9 30,56.9 30,83.1 28,83.1 28,65.1 22,77.4 16,65.4 16,83.1 	"/>
</g>
<g id="N1_1_">
	<polygon class="st3" points="76.1,40.7 76.1,14.5 86.1,34.5 86.1,16.7 88.1,16.7 88.1,42.9 78.1,22.9 78.1,40.7 	"/>
</g>
<g id="N1_2_">
	<polygon class="st3" points="57.4,91 57.4,64.8 67.4,84.7 67.4,67 69.4,67 69.4,93.2 59.4,73.2 59.4,91 	"/>
</g>
<g id="P2">
	<g class="st1">
		<circle class="st2" cx="19.5" cy="24.3" r="8.5"/>
		<circle class="st2" cx="19.5" cy="24.3" r="6.5"/>
	</g>
	<path d="M19.5,15.8c-1.3,0-2.4,0.3-3.5,0.8v23.2h2v-7.1c0.5,0.1,1,0.1,1.5,0.1c4.7,0,8.5-3.8,8.5-8.5S24.2,15.8,19.5,15.8z
		 M19.5,30.8c-0.5,0-1-0.1-1.5-0.2V17.9c0.5-0.1,1-0.2,1.5-0.2c3.6,0,6.5,2.9,6.5,6.5S23.1,30.8,19.5,30.8z"/>
</g>
<g id="O2">
	<g class="st1">
		<circle class="st4" cx="50.4" cy="50" r="12"/>
		<circle class="st5" cx="50.4" cy="50" r="10"/>
	</g>
	<path d="M50.4,38c-6.6,0-12,5.4-12,12s5.4,12,12,12s12-5.4,12-12S57,38,50.4,38z M50.4,60c-5.5,0-10-4.5-10-10s4.5-10,10-10
		s10,4.5,10,10S55.9,60,50.4,60z"/>
</g>
<g id="O2_1_" class="st1">
	<g class="st6">
		<circle class="st7" cx="50.4" cy="50" r="38.1"/>
		<circle class="st7" cx="50.4" cy="50" r="31.8"/>
	</g>
	<path class="st8" d="M50.4,11.9c-21,0-38.1,17.1-38.1,38.1s17.1,38.1,38.1,38.1S88.5,71,88.5,50C88.5,29,71.4,11.9,50.4,11.9z
		 M50.4,81.8c-17.5,0-31.8-14.2-31.8-31.8c0-17.5,14.2-31.7,31.8-31.7S82.1,32.5,82.1,50C82.1,67.5,67.9,81.8,50.4,81.8z"/>
</g>
<path id="Pupil_1_" d="M50.4,45.4c0,2.5-2,4.6-4.6,4.6c0,2.5,2,4.6,4.6,4.6s4.6-2,4.6-4.6C55,47.5,53,45.4,50.4,45.4z"/>
</svg>
