<svg xmlns="http://www.w3.org/2000/svg" viewBox="0 0 206.17 31.55"><defs><style>.cls-1{fill:none;stroke:#231f20;stroke-linecap:square;stroke-miterlimit:10;stroke-width:2.4px;}</style></defs><title>phenomena-logo</title><g id="Calque_2" data-name="Calque 2"><path class="cls-1" d="M2.3,27.41V4.59H9.5a6.76,6.76,0,1,1,0,13.52H2.3"/><line class="cls-1" x1="21.75" y1="4.59" x2="21.75" y2="27.41"/><line class="cls-1" x1="37.73" y1="4.59" x2="37.73" y2="27.41"/><line class="cls-1" x1="21.75" y1="16" x2="37.73" y2="16"/><polyline class="cls-1" points="57.65 9.19 44.86 9.19 44.86 27.41 57.65 27.41"/><line class="cls-1" x1="56.63" y1="18.24" x2="44.86" y2="18.24"/><line class="cls-1" x1="44.86" y1="4.59" x2="57.65" y2="4.59"/><polyline class="cls-1" points="64.33 27.41 64.33 4.59 80.32 27.41 80.32 4.59"/><circle class="cls-1" cx="98.26" cy="15.88" r="11.02"/><path d="M98.26,9.27a6.61,6.61,0,1,1-6.61,6.61A6.54,6.54,0,0,0,98.26,9.27Z"/><polyline class="cls-1" points="162.12 27.41 162.12 4.59 178.11 27.41 178.11 4.59"/><polyline class="cls-1" points="116.19 27.56 116.19 4.74 126.51 20.29 136.83 4.74 136.83 27.56"/><polyline class="cls-1" points="184.79 27.19 193.95 4.37 203.11 27.19"/><line class="cls-1" x1="184.8" y1="17.88" x2="203.11" y2="17.88"/><polyline class="cls-1" points="155.87 22.95 143.08 22.95 143.08 4.74 155.87 4.74"/><line class="cls-1" x1="154.85" y1="13.9" x2="143.08" y2="13.9"/><line class="cls-1" x1="143.08" y1="27.56" x2="155.87" y2="27.56"/></g></svg>