<?xml version="1.0" encoding="utf-8"?>
<!-- Generator: Adobe Illustrator 20.1.0, SVG Export Plug-In . SVG Version: 6.00 Build 0)  -->
<svg version="1.1" id="Calque_1" xmlns="http://www.w3.org/2000/svg" xmlns:xlink="http://www.w3.org/1999/xlink" x="0px" y="0px"
	 viewBox="0 0 211.3 34.7" style="enable-background:new 0 0 211.3 34.7;" xml:space="preserve">
<style type="text/css">
	.st0{fill:none;stroke:#000000;stroke-width:2.33;stroke-linecap:square;stroke-miterlimit:10;}
	.st1{fill:none;stroke:#000000;stroke-width:2.3994;stroke-linecap:square;stroke-miterlimit:10;}
</style>
<g>
	<path class="st0" d="M100,9.9c-5.7,0-10.6,3.1-13.2,7.6c2.6,4.6,7.6,7.6,13.2,7.6c5.7,0,10.6-3.1,13.2-7.6
		C110.6,13,105.7,9.9,100,9.9z"/>
	<circle class="st0" cx="100.4" cy="17.5" r="5.7"/>
	<path d="M100.4,14.1c1.9,0,3.4,1.5,3.4,3.4s-1.5,3.4-3.4,3.4s-3.4-1.5-3.4-3.4C99,17.5,100.4,15.8,100.4,14.1z"/>
</g>
<g>
	<path class="st1" d="M1.1,27.9V5.1h7.2c3.7,0,6.8,3,6.8,6.8s-3,6.8-6.8,6.8H1.1"/>
	<g>
		<line class="st1" x1="19.9" y1="5.1" x2="19.9" y2="27.9"/>
		<line class="st1" x1="35.9" y1="5.1" x2="35.9" y2="27.9"/>
		<line class="st1" x1="19.9" y1="16.5" x2="35.9" y2="16.5"/>
	</g>
	<polyline class="st1" points="62.5,27.9 62.5,5.1 78.5,27.9 78.5,5.1 	"/>
	<g>
		<g>
			<polyline class="st1" points="55.8,9.7 43,9.7 43,27.9 55.8,27.9 			"/>
			<line class="st1" x1="54.8" y1="18.7" x2="43" y2="18.7"/>
		</g>
		<line class="st1" x1="43" y1="5.1" x2="55.8" y2="5.1"/>
	</g>
</g>
<g>
	<polyline class="st1" points="167.3,30.1 167.3,7.3 183.3,30.1 183.3,7.3 	"/>
	<polyline class="st1" points="121.4,30.1 121.4,7.3 131.7,22.8 142,7.3 142,30.1 	"/>
	<g>
		<polyline class="st1" points="190,29.8 199.2,7 208.3,29.8 		"/>
		<line class="st1" x1="190" y1="20.5" x2="208.3" y2="20.5"/>
	</g>
	<g>
		<polyline class="st1" points="161.1,25.5 148.3,25.5 148.3,7.3 161.1,7.3 		"/>
		<line class="st1" x1="160.1" y1="16.5" x2="148.3" y2="16.5"/>
	</g>
	<line class="st1" x1="148.3" y1="30.1" x2="161.1" y2="30.1"/>
</g>
<line class="st1" x1="90.9" y1="5.1" x2="110" y2="5.1"/>
<line class="st1" x1="90.9" y1="30.1" x2="110" y2="30.1"/>
</svg>
