<?xml version="1.0" encoding="utf-8"?>
<!-- Generator: Adobe Illustrator 20.1.0, SVG Export Plug-In . SVG Version: 6.00 Build 0)  -->
<svg version="1.1" id="Calque_1" xmlns="http://www.w3.org/2000/svg" xmlns:xlink="http://www.w3.org/1999/xlink" x="0px" y="0px"
	 viewBox="0 0 100 100" style="enable-background:new 0 0 100 100;" xml:space="preserve">
<style type="text/css">
	.st0{fill:#FFFFFF;}
</style>
<path class="st0" d="M76.6,50l-0.3-0.6C70.8,40,60.7,34.1,49.8,34.1s-21,5.9-26.5,15.3L23,50l0.3,0.6c5.5,9.4,15.6,15.3,26.5,15.3
	s21-5.9,26.5-15.3L76.6,50z M53.3,51.5c0,3.4-2.6,6.6-6.6,6.6c0,1.9,0.8,3.6,2.1,4.8c-4.2-1.1-7.2-4.9-7.2-9.5
	c0-5.4,4.4-9.8,9.8-9.8c5.4,0,9.8,4.4,9.8,9.8c0,1.8-0.5,3.4-1.3,4.9c0-0.1,0-0.2,0-0.2C59.9,54.4,56.9,51.5,53.3,51.5z M60.7,61.3
	c1.8-2.1,2.8-4.8,2.8-7.8c0-6.7-5.5-12.2-12.2-12.2s-12.2,5.5-12.2,12.2c0,3.7,1.7,7.1,4.3,9.3C36.2,61,29.8,56.5,25.8,50
	c5.1-8.3,14.3-13.5,24-13.5s18.9,5.2,24,13.5C70.7,55.1,66.1,59,60.7,61.3z"/>
<path class="st0" d="M11.4,28.4h6c4.4,0,8-3.6,8-8s-3.6-8-8-8H9v25.2h2.4V28.4z M11.4,14.9h6c3.1,0,5.6,2.5,5.6,5.6S20.5,26,17.4,26
	h-6V14.9z"/>
<polygon class="st0" points="30.8,16.7 44.4,16.7 44.4,28.1 46.8,28.1 46.8,16.7 46.8,14.3 46.8,2.9 44.4,2.9 44.4,14.3 30.8,14.3 
	30.8,2.9 28.4,2.9 28.4,14.3 28.4,16.7 28.4,28.1 30.8,28.1 "/>
<polygon class="st0" points="66.7,23.3 53.9,23.3 53.9,16.5 65.7,16.5 65.7,14.1 53.9,14.1 53.9,7.5 66.7,7.5 66.7,5.1 51.5,5.1 
	51.5,14.1 51.5,16.5 51.5,25.7 66.7,25.7 "/>
<polygon class="st0" points="73.4,16.3 89.4,39.1 89.4,11.3 87,11.3 87,31.5 71,8.7 71,36.5 73.4,36.5 "/>
<rect x="51.5" y="0.5" class="st0" width="15.2" height="2.4"/>
<polygon class="st0" points="68.3,92.1 52.3,69.3 52.3,97.1 54.7,97.1 54.7,76.9 70.7,99.7 70.7,71.9 68.3,71.9 "/>
<polygon class="st0" points="6.3,61.9 6.3,89.9 8.7,89.9 8.7,69.9 17.9,83.6 27,69.9 27,89.9 29.4,89.9 29.4,61.9 17.9,79.3 "/>
<path class="st0" d="M93.8,87.9L96,87l-3.5-8.8h3.2v-2.4h-4.1l-6.2-15.5l-6.2,15.5h-4.1v2.4h3.2L74.6,87l2.2,0.9l3.9-9.7h9.2
	L93.8,87.9z M81.7,75.8l3.7-9.1l3.7,9.1H81.7z"/>
<polygon class="st0" points="33.2,83.5 33.2,85.9 33.2,94.9 48.4,94.9 48.4,92.5 35.6,92.5 35.6,85.9 47.4,85.9 47.4,83.5 
	35.6,83.5 35.6,76.7 48.4,76.7 48.4,74.3 33.2,74.3 "/>
<rect x="33.2" y="97.1" class="st0" width="15.2" height="2.4"/>
</svg>
