<?xml version="1.0" encoding="utf-8"?>
<!-- Generator: Adobe Illustrator 22.1.0, SVG Export Plug-In . SVG Version: 6.00 Build 0)  -->
<svg version="1.1" id="Calque_1" xmlns="http://www.w3.org/2000/svg" xmlns:xlink="http://www.w3.org/1999/xlink" x="0px" y="0px"
	 viewBox="0 0 185 34.7" style="enable-background:new 0 0 185 34.7;" xml:space="preserve">
<style type="text/css">
	.st0{display:none;}
	.st1{display:inline;fill:#FFFFFF;}
</style>
<g class="st0">
	<path class="st1" d="M92.7,0C81.2,0,70.3,6.1,64.5,16.3l-0.6,1.2l0.6,1.2C70.3,28.8,81,34.9,92.7,34.9c11.5,0,22.4-6.1,28.2-16.3
		l0.6-1.2l-0.6-1.2C115.1,6.3,104.2,0,92.7,0z M93.5,26.4c-5,0-8.9-4-8.9-8.9s4-8.9,8.9-8.9c5,0,8.9,4,8.9,8.9S98.4,26.4,93.5,26.4z
		 M69.3,17.5C73.5,11,80.2,6.6,87.7,5.2C83.2,7.3,80,12.1,80,17.5s3.2,10.1,7.9,12.3C80,28.4,73.2,24,69.3,17.5z M100.6,29.1
		c4-2.4,6.5-6.7,6.5-11.7s-2.6-9.3-6.5-11.7c6.3,1.8,11.9,5.9,15.7,11.7C112.5,23.2,107,27.2,100.6,29.1z"/>
	<path class="st1" d="M93.5,10.7c0,3.4-2.8,6.7-6.7,6.7c0,3.8,3,6.7,6.7,6.7s6.7-3,6.7-6.7S97.2,10.7,93.5,10.7z"/>
	<path class="st1" d="M4.3,11.1H0V24h1.2v-4.7h3.1c2.3,0,4.1-1.8,4.1-4.1C8.4,13,6.6,11.1,4.3,11.1z M4.3,18.1H1.2v-5.7h3.1
		c1.6,0,2.9,1.3,2.9,2.9S5.9,18.1,4.3,18.1z"/>
	<polygon class="st1" points="21.4,16.5 12.7,16.5 12.7,9.2 11.2,9.2 11.2,16.5 11.2,18.1 11.2,25.4 12.7,25.4 12.7,18.1 21.4,18.1 
		21.4,25.4 23,25.4 23,18.1 23,16.5 23,9.2 21.4,9.2 	"/>
	<polygon class="st1" points="58.1,24 42.1,1.2 42.1,29 44.5,29 44.5,8.8 60.5,31.6 60.5,3.8 58.1,3.8 	"/>
	<polygon class="st1" points="26.4,17.3 26.4,19.2 26.4,26.6 38.6,26.6 38.6,24.7 28.3,24.7 28.3,19.2 37.8,19.2 37.8,17.3 
		28.3,17.3 28.3,12 38.6,12 38.6,10.1 26.4,10.1 	"/>
	<rect x="26.4" y="6.4" class="st1" width="12.2" height="1.9"/>
	<polygon class="st1" points="177.2,23.6 167,9 167,26.8 168.5,26.8 168.5,13.8 178.8,28.4 178.8,10.6 177.2,10.6 	"/>
	<polygon class="st1" points="124.9,3.3 124.9,31.3 127.3,31.3 127.3,11.3 136.4,25 145.5,11.3 145.5,31.3 147.9,31.3 147.9,3.3 
		136.4,20.6 	"/>
	<path class="st1" d="M192.1,25.8l1.1-0.5l-1.8-4.5h1.6v-1.2h-2.1l-3.2-7.9l-3.2,7.9h-2.1v1.2h1.6l-1.8,4.5l1.1,0.5l2-5h4.7
		L192.1,25.8z M185.9,19.6l1.9-4.7l1.8,4.7H185.9z"/>
	<polygon class="st1" points="151.4,15.6 151.4,17.5 151.4,24.7 163.5,24.7 163.5,22.8 153.3,22.8 153.3,17.5 162.7,17.5 
		162.7,15.6 153.3,15.6 153.3,10.2 163.5,10.2 163.5,8.3 151.4,8.3 	"/>
	<rect x="151.4" y="26.5" class="st1" width="12.2" height="1.9"/>
</g>
<g>
	<polygon points="105.3,3.2 105.3,30.1 107.7,30.1 107.7,10.2 115.2,19.8 122.8,10.2 122.8,30.1 125.2,30.1 125.2,3.2 115.2,15.9 	
		"/>
	<path d="M180.1,30.4l2.3-0.7l-2.2-7.2h1.9v-2.4h-2.6l-5.3-17.6l-5.3,17.6h-2.6v2.4h1.9l-2.2,7.2l2.3,0.7l2.4-7.9h7L180.1,30.4z
		 M171.5,20.1l2.8-9.2l2.8,9.2H171.5z"/>
	<polygon points="161.6,23.4 148.5,4.7 148.5,31.5 150.9,31.5 150.9,12.2 164,31 164,4.1 161.6,4.1 	"/>
	<polygon points="73.9,23.4 60.7,4.7 60.7,31.5 63.1,31.5 63.1,12.2 76.2,31 76.2,4.1 73.9,4.1 	"/>
	<rect x="128.8" y="29.1" width="15.5" height="2.4"/>
	<polygon points="128.8,16.6 128.8,19 128.8,25.2 144.3,25.2 144.3,22.9 131.2,22.9 131.2,19 140,19 140,16.6 131.2,16.6 131.2,6.5 
		144.3,6.5 144.3,4.1 128.8,4.1 	"/>
	<rect x="40.9" y="4.1" width="15.5" height="2.4"/>
	<polygon points="40.9,22.9 40.9,25.2 40.9,31.5 56.4,31.5 56.4,29.1 43.3,29.1 43.3,25.2 52.1,25.2 52.1,22.9 43.3,22.9 43.3,12.7 
		56.4,12.7 56.4,10.4 40.9,10.4 	"/>
	<polygon points="34.9,21.6 24.2,21.6 24.2,4.1 21.8,4.1 21.8,21.6 21.8,24 21.8,31.5 24.2,31.5 24.2,24 34.9,24 34.9,31.5 
		37.3,31.5 37.3,24 37.3,21.6 37.3,4.1 34.9,4.1 	"/>
	<path d="M10,4.1H4.4v27.4h2.4v-8c1,0.3,2.1,0.5,3.2,0.5c5.5,0,9.9-4.5,9.9-9.9C19.9,8.6,15.5,4.1,10,4.1z M10,21.6
		c-1.1,0-2.2-0.2-3.2-0.7V6.5H10c4.2,0,7.6,3.4,7.6,7.6C17.6,18.2,14.2,21.6,10,21.6z"/>
	<path d="M90.7,5.3c-6.9,0-12.5,5.6-12.5,12.5c0,6.9,5.6,12.5,12.5,12.5c6.9,0,12.5-5.6,12.5-12.5C103.1,10.9,97.5,5.3,90.7,5.3z
		 M90.7,27.3c-5.2,0-9.5-4.3-9.5-9.5c0-5.2,4.3-9.5,9.5-9.5c5.2,0,9.5,4.3,9.5,9.5C100.2,23,95.9,27.3,90.7,27.3z"/>
	<path d="M90.7,12.3c0,3-2.5,5.5-5.5,5.5c0,3,2.5,5.5,5.5,5.5c3,0,5.5-2.5,5.5-5.5S93.7,12.3,90.7,12.3z"/>
</g>
</svg>
