<?xml version="1.0" encoding="utf-8"?>
<!-- Generator: Adobe Illustrator 24.1.3, SVG Export Plug-In . SVG Version: 6.00 Build 0)  -->
<svg version="1.1" id="Radio_Wislon_Logo" xmlns="http://www.w3.org/2000/svg" xmlns:xlink="http://www.w3.org/1999/xlink" x="0px"
	 y="0px" viewBox="0 0 100 100" style="enable-background:new 0 0 100 100;" xml:space="preserve">
<style type="text/css">
	.st0{fill:#FFFFFF;fill-opacity:0;}
	.st1{display:none;opacity:0.1;fill:#FFFFFF;}
	.st2{display:none;}
	.st3{display:inline;}
	.st4{fill:none;stroke:#FFFFFF;stroke-width:3;stroke-miterlimit:10;}
	.st5{fill:none;stroke:#FFFFFF;stroke-width:6;stroke-miterlimit:10;}
	.st6{fill:#FFFFFF;}
</style>
<rect id="Frame" class="st0" width="100" height="100"/>
<path id="Logo" class="st1" d="M86.5,50c0-10.2-2-18.9-5.8-25.8l5.2-5.2L81,14.1l-4.2,4.2c-3.6-4.3-8-7.5-13.3-9.5V0h-7v7
	c-2.1-0.3-4.2-0.5-6.5-0.5S45.6,6.7,43.5,7V0h-7v8.8c-5.2,2-9.7,5.2-13.3,9.5L19,14.1l-5,5l5.2,5.2c-3.7,6.9-5.8,15.6-5.8,25.8
	s2,18.9,5.8,25.8L14.1,81l4.9,4.9l4.2-4.2c5.6,6.8,13.6,10.8,23.3,11.6v6.6h7v-6.6c9.7-0.8,17.6-4.9,23.3-11.6l4.2,4.2l4.9-4.9
	l-5.2-5.2C84.5,68.9,86.5,60.2,86.5,50z M79.5,50c0,5.1-0.6,13.3-3.9,20.6l-3.7-3.7c1.9-4.7,2.9-10.3,2.9-16.9
	c0-6.5-1-12.2-2.9-16.9l3.7-3.7C78.9,36.7,79.5,44.9,79.5,50z M50,78.3c-13.3,0-21.3-10.6-21.3-28.3s8-28.2,21.3-28.2
	c12.9,0,20.7,9.9,21.2,26.5h-7.8c-0.9-6.6-6.5-11.8-13.4-11.8c-7.4,0-13.5,6.1-13.5,13.5S42.6,63.5,50,63.5
	c6.8,0,12.5-5.1,13.4-11.8h7.8C70.7,68.4,62.9,78.3,50,78.3z M56.5,50c0,3.6-2.9,6.5-6.5,6.5s-6.5-2.9-6.5-6.5s2.9-6.5,6.5-6.5
	S56.5,46.4,56.5,50z M71.9,23.2l-3.6,3.6c-3.6-4.7-8.6-7.5-14.8-8.3v-4.8C62.2,14.5,68,18.2,71.9,23.2z M46.5,13.7v4.8
	c-6.2,0.8-11.2,3.6-14.8,8.3l-3.6-3.6C32,18.2,37.8,14.5,46.5,13.7z M20.5,50c0-5.1,0.6-13.3,3.9-20.6l3.7,3.7
	c-1.9,4.7-2.9,10.3-2.9,16.9c0,6.5,1,12.2,2.9,16.9l-3.7,3.7C21.1,63.3,20.5,55.1,20.5,50z M28.1,76.8l3.6-3.6
	c3.6,4.7,8.6,7.5,14.8,8.3v4.8C37.8,85.5,32,81.8,28.1,76.8z M53.5,86.3v-4.8c6.2-0.8,11.2-3.6,14.8-8.3l3.6,3.6
	C68,81.8,62.2,85.5,53.5,86.3z"/>
<g class="st2">
	<g class="st3">
		<ellipse class="st4" cx="50" cy="50" rx="21.64" ry="28.64"/>
		<line class="st4" x1="60" y1="50" x2="71.64" y2="50"/>
	</g>
	<g class="st3">
		<line class="st5" x1="50" y1="10" x2="50" y2="21.36"/>
		<line class="st5" x1="50" y1="78.64" x2="50" y2="100"/>
		<line class="st5" x1="60.53" y1="0" x2="60.47" y2="11.48"/>
		<line class="st5" x1="39.53" y1="0" x2="39.47" y2="11.47"/>
		<line class="st5" x1="16.16" y1="16.16" x2="32.11" y2="32.11"/>
		<line class="st5" x1="83.84" y1="16.16" x2="67.88" y2="32.12"/>
		<line class="st5" x1="32.11" y1="67.89" x2="16.15" y2="83.85"/>
		<line class="st5" x1="67.89" y1="67.89" x2="83.84" y2="83.84"/>
		<circle class="st5" cx="50" cy="50" r="10"/>
		<ellipse class="st5" cx="50" cy="50" rx="33" ry="40"/>
	</g>
</g>
<path class="st6" d="M86,50c0-10.25-2.07-19-5.88-25.88l5.84-5.84l-4.24-4.24l-5,5c-3.52-4.37-7.98-7.65-13.23-9.67l0.04-9.36
	l-6-0.03l-0.03,7.7C55.12,7.24,52.62,7,50,7c-2.62,0-5.13,0.24-7.51,0.69l0.03-7.67l-6-0.03l-0.04,9.4
	c-5.24,2.02-9.68,5.3-13.2,9.66l-5-5l-4.24,4.24l5.84,5.84C16.07,31,14,39.75,14,50c0,10.25,2.07,19,5.88,25.88l-5.85,5.85
	l4.24,4.24l5.01-5.01C28.96,88,37.04,92.19,47,92.88V100h6v-7.12c9.96-0.7,18.04-4.89,23.71-11.93l5.01,5.01l4.24-4.24l-5.85-5.85
	C83.93,69,86,60.25,86,50z M80,50c0,8.57-1.46,15.8-4.23,21.53l-5.39-5.39c1.8-4.45,2.76-9.88,2.76-16.14
	c0-6.26-0.96-11.69-2.76-16.14l5.39-5.39C78.54,34.2,80,41.43,80,50z M50,77.14C37.39,77.14,29.86,67,29.86,50
	c0-17,7.53-27.14,20.14-27.14c12.24,0,19.69,9.55,20.12,25.64h-7.22C62.16,42.04,56.66,37,50,37c-7.17,0-13,5.83-13,13
	c0,7.17,5.83,13,13,13c6.66,0,12.16-5.04,12.91-11.5h7.22C69.69,67.59,62.24,77.14,50,77.14z M57,50c0,3.86-3.14,7-7,7
	c-3.86,0-7-3.14-7-7c0-3.86,3.14-7,7-7C53.86,43,57,46.14,57,50z M72.55,23.21l-5.17,5.17c-3.43-4.75-8.31-7.63-14.39-8.34v-6.91
	C61.36,13.79,67.96,17.26,72.55,23.21z M47,13.12v6.91c-6.08,0.71-10.95,3.59-14.39,8.34l-5.17-5.17
	C32.04,17.26,38.64,13.79,47,13.12z M20,50c0-8.57,1.46-15.8,4.23-21.53l5.39,5.39c-1.8,4.45-2.76,9.88-2.76,16.14
	c0,6.26,0.96,11.68,2.76,16.14l-5.39,5.39C21.46,65.79,20,58.57,20,50z M27.45,76.79l5.17-5.17c3.43,4.75,8.31,7.63,14.39,8.34v6.91
	C38.64,86.21,32.04,82.74,27.45,76.79z M53,86.88v-6.91c6.08-0.71,10.95-3.59,14.39-8.34l5.17,5.17
	C67.96,82.74,61.36,86.21,53,86.88z"/>
</svg>
