<?xml version="1.0" encoding="utf-8"?>
<!-- Generator: Adobe Illustrator 22.1.0, SVG Export Plug-In . SVG Version: 6.00 Build 0)  -->
<svg version="1.1" id="Radio_Wislon_Logo" xmlns="http://www.w3.org/2000/svg" xmlns:xlink="http://www.w3.org/1999/xlink" x="0px"
	 y="0px" viewBox="0 0 100 100" style="enable-background:new 0 0 100 100;" xml:space="preserve">
<style type="text/css">
	.st0{opacity:0;fill:#FFFFFF;}
	.st1{fill:#FFFFFF;}
</style>
<rect id="Frame" class="st0" width="100" height="100"/>
<path id="Logo" class="st1" d="M86.5,50c0-10.2-2-18.9-5.8-25.8l5.2-5.2L81,14.1l-4.2,4.2c-3.6-4.3-8-7.5-13.3-9.5V0h-7v7
	c-2.1-0.3-4.2-0.5-6.5-0.5S45.6,6.7,43.5,7V0h-7v8.8c-5.2,2-9.7,5.2-13.3,9.5L19,14.1l-5,5l5.2,5.2c-3.7,6.9-5.8,15.6-5.8,25.8
	c0,10.2,2,18.9,5.8,25.8L14.1,81l4.9,4.9l4.2-4.2c5.6,6.8,13.6,10.8,23.3,11.6v6.6h7v-6.6c9.7-0.8,17.6-4.9,23.3-11.6l4.2,4.2
	l4.9-4.9l-5.2-5.2C84.5,68.9,86.5,60.2,86.5,50z M79.5,50c0,5.1-0.6,13.3-3.9,20.6l-3.7-3.7c1.9-4.7,2.9-10.3,2.9-16.9
	c0-6.5-1-12.2-2.9-16.9l3.7-3.7C78.9,36.7,79.5,44.9,79.5,50z M50,78.3c-13.3,0-21.3-10.6-21.3-28.3S36.7,21.8,50,21.8
	c12.9,0,20.7,9.9,21.2,26.5h-7.8c-0.9-6.6-6.5-11.8-13.4-11.8c-7.4,0-13.5,6.1-13.5,13.5c0,7.4,6.1,13.5,13.5,13.5
	c6.8,0,12.5-5.1,13.4-11.8h7.8C70.7,68.4,62.9,78.3,50,78.3z M56.5,50c0,3.6-2.9,6.5-6.5,6.5s-6.5-2.9-6.5-6.5s2.9-6.5,6.5-6.5
	S56.5,46.4,56.5,50z M71.9,23.2l-3.6,3.6c-3.6-4.7-8.6-7.5-14.8-8.3v-4.8C62.2,14.5,68,18.2,71.9,23.2z M46.5,13.7v4.8
	c-6.2,0.8-11.2,3.6-14.8,8.3l-3.6-3.6C32,18.2,37.8,14.5,46.5,13.7z M20.5,50c0-5.1,0.6-13.3,3.9-20.6l3.7,3.7
	c-1.9,4.7-2.9,10.3-2.9,16.9c0,6.5,1,12.2,2.9,16.9l-3.7,3.7C21.1,63.3,20.5,55.1,20.5,50z M28.1,76.8l3.6-3.6
	c3.6,4.7,8.6,7.5,14.8,8.3v4.8C37.8,85.5,32,81.8,28.1,76.8z M53.5,86.3v-4.8c6.2-0.8,11.2-3.6,14.8-8.3l3.6,3.6
	C68,81.8,62.2,85.5,53.5,86.3z"/>
</svg>
