<svg id="Radio_Wislon_Logo" data-name="Radio Wislon Logo" xmlns="http://www.w3.org/2000/svg" viewBox="0 0 100 100.01"><defs><style>.cls-1{fill:#fff;fill-opacity:0;}</style></defs><rect id="Frame" class="cls-1" y="0.01" width="100" height="100"/><path d="M86,50c0-10.25-2.07-19-5.88-25.88L86,18.28,81.72,14l-5,5A31.16,31.16,0,0,0,63.48,9.37L63.53,0l-6,0,0,7.69A41,41,0,0,0,50,7a40.4,40.4,0,0,0-7.51.69l0-7.68-6,0,0,9.39A31.16,31.16,0,0,0,23.29,19l-5-5L14,18.28l5.84,5.84C16.07,31,14,39.75,14,50s2.07,19,5.88,25.88L14,81.72,18.28,86l5-5C29,88,37,92.19,47,92.88V100h6V92.88C63,92.19,71,88,76.71,81l5,5L86,81.72l-5.84-5.84C83.93,69,86,60.25,86,50Zm-6,0c0,8.57-1.46,15.8-4.23,21.53l-5.39-5.39A43,43,0,0,0,73.14,50a43,43,0,0,0-2.76-16.14l5.39-5.39C78.54,34.2,80,41.43,80,50ZM50,77.14C37.39,77.14,29.86,67,29.86,50S37.39,22.86,50,22.86c12.24,0,19.69,9.55,20.12,25.64H62.91a13,13,0,1,0,0,3h7.21C69.69,67.59,62.24,77.14,50,77.14ZM57,50a7,7,0,1,1-7-7A7,7,0,0,1,57,50ZM72.55,23.21l-5.16,5.16A20.07,20.07,0,0,0,53,20V13.12C61.36,13.79,68,17.26,72.55,23.21ZM47,13.12V20a20.07,20.07,0,0,0-14.39,8.34l-5.16-5.16C32,17.26,38.64,13.79,47,13.12ZM20,50c0-8.57,1.46-15.8,4.23-21.53l5.39,5.39A43,43,0,0,0,26.86,50a43,43,0,0,0,2.76,16.14l-5.4,5.39C21.46,65.79,20,58.57,20,50Zm7.45,26.79,5.16-5.16A20.07,20.07,0,0,0,47,80v6.91C38.64,86.21,32,82.74,27.45,76.79ZM53,86.88V80a20.07,20.07,0,0,0,14.39-8.34l5.16,5.16C68,82.74,61.36,86.21,53,86.88Z" transform="translate(0 0.01)"/></svg>