<?xml version="1.0" encoding="utf-8"?>
<!-- Generator: Adobe Illustrator 20.1.0, SVG Export Plug-In . SVG Version: 6.00 Build 0)  -->
<svg version="1.1" id="Calque_1" xmlns="http://www.w3.org/2000/svg" xmlns:xlink="http://www.w3.org/1999/xlink" x="0px" y="0px"
	 viewBox="0 0 100 100" style="enable-background:new 0 0 100 100;" xml:space="preserve">
<style type="text/css">
	.st0{fill:#FFFFFF;fill-opacity:0;}
	.st1{fill:none;stroke:#272727;stroke-width:5.4336;stroke-miterlimit:10;}
	.st2{fill:none;stroke:#272727;stroke-width:2.7168;stroke-miterlimit:10;}
</style>
<rect y="0" class="st0" width="100" height="100"/>
<path class="st1" d="M50,87.4L50,87.4c-17.2,0-31.2-14.1-31.2-31.2V42.6c0-17.2,14.1-31.2,31.2-31.2h0c17.2,0,31.2,14.1,31.2,31.2
	v13.6C81.2,73.4,67.2,87.4,50,87.4z"/>
<path class="st2" d="M50,75.7L50,75.7c-9.5,0-17.3-7.8-17.3-17.3v-18c0-9.5,7.8-17.3,17.3-17.3h0c9.5,0,17.3,7.8,17.3,17.3v18
	C67.3,67.9,59.5,75.7,50,75.7z"/>
<circle class="st1" cx="50" cy="49.4" r="6.8"/>
<line class="st1" x1="41.4" y1="12.6" x2="41.4" y2="0"/>
<line class="st1" x1="58.6" y1="12.6" x2="58.6" y2="0"/>
<line class="st1" x1="50" y1="100" x2="50" y2="87.4"/>
<line class="st1" x1="81" y1="87.2" x2="72.1" y2="78.3"/>
<line class="st1" x1="19" y1="87.2" x2="27.9" y2="78.3"/>
<line class="st2" x1="50" y1="87.4" x2="50" y2="75.7"/>
<line class="st2" x1="72.1" y1="78.3" x2="63.8" y2="70"/>
<line class="st2" x1="27.9" y1="78.3" x2="36.2" y2="70"/>
<line class="st1" x1="81" y1="11.6" x2="72.1" y2="20.5"/>
<line class="st1" x1="19" y1="11.6" x2="27.9" y2="20.5"/>
<line class="st2" x1="50" y1="11.4" x2="50" y2="23.1"/>
<line class="st2" x1="72.1" y1="20.5" x2="63.8" y2="28.8"/>
<line class="st2" x1="27.9" y1="20.5" x2="36.2" y2="28.8"/>
<line class="st2" x1="56.8" y1="49.4" x2="67.3" y2="49.4"/>
</svg>
